STARTFONT 1.0
COMMENT  Product Version MAUI VERSION
COMMENT  
COMMENT  GuoBi Font
COMMENT  
FONT GuoBi Font
SIZE 18 96 96
FONTBOUNDINGBOX 24 24 0 -2 
STARTPROPERTIES 19
FONT_ASCENT 19
FONT_DESCENT 5
FOUNDRY "GuoBi"
FAMILY_NAME "Hei"
WEIGHT_NAME "medium"
SLANT "r"
SETWIDTH_NAME "normal"
ADD_STYLE_NAME ""
PIXEL_SIZE 24
POINT_SIZE 180
RESOLUTION_X 96
RESOLUTION_Y 96
SPACING "c"
AVERAGE_WIDTH 24
CHARS 7451
STARTCHAR C00a4
ENCODING 164
SWIDTH 1000 0
DWIDTH 24 0
BBX 24 24 0 0
BITMAP
000000
000000
100008
083c10
04c320
0300c0
040020
040020
080010
080010
100008
100008
100008
100008
080010
080010
040020
040020
0300c0
04c320
083c10
100008
000000
000000
ENDCHAR
STARTCHAR C00a7
ENCODING 167
SWIDTH 1000 0
DWIDTH 24 0
BBX 24 24 0 0
BITMAP
000000
003c00
004200
008300
008300
004000
004000
003000
007800
008c00
008600
008300
00c100
006100
003100
001e00
000600
000200
00c100
00c100
008200
004200
003c00
000000
ENDCHAR
STARTCHAR C00a8
ENCODING 168
SWIDTH 1000 0
DWIDTH 24 0
BBX 24 24 0 0
BITMAP
000000
000000
000000
000000
008100
01c380
01c380
008100
000000
000000
000000
000000
000000
000000
000000
000000
000000
000000
000000
000000
000000
000000
000000
000000
ENDCHAR
STARTCHAR C00b0
ENCODING 176
SWIDTH 1000 0
DWIDTH 24 0
BBX 24 24 0 0
BITMAP
000000
000000
070000
088000
104000
104000
104000
088000
070000
000000
000000
000000
000000
000000
000000
000000
000000
000000
000000
000000
000000
000000
000000
000000
ENDCHAR
STARTCHAR C00b1
ENCODING 177
SWIDTH 1000 0
DWIDTH 24 0
BBX 24 24 0 0
BITMAP
000000
000000
000000
001000
001000
001000
001000
001000
001000
001000
1ffff0
001000
001000
001000
001000
001000
001000
000000
000000
1ffff0
000000
000000
000000
000000
ENDCHAR
STARTCHAR C00b7
ENCODING 183
SWIDTH 1000 0
DWIDTH 24 0
BBX 24 24 0 0
BITMAP
000000
000000
000000
000000
000000
000000
000000
000000
000000
000000
001800
003c00
003c00
001800
000000
000000
000000
000000
000000
000000
000000
000000
000000
000000
ENDCHAR
STARTCHAR C00d7
ENCODING 215
SWIDTH 1000 0
DWIDTH 24 0
BBX 24 24 0 0
BITMAP
000000
000000
000000
000000
080010
040020
020040
010080
008100
004200
002400
001800
001800
002400
004200
008100
010080
020040
040020
080010
000000
000000
000000
000000
ENDCHAR
STARTCHAR C00e0
ENCODING 224
SWIDTH 1000 0
DWIDTH 24 0
BBX 24 24 0 0
BITMAP
000000
000000
004000
002000
001000
000800
000000
007900
008700
018300
018300
018300
018300
018300
018300
018300
018300
008700
007900
000000
000000
000000
000000
000000
ENDCHAR
STARTCHAR C00e1
ENCODING 225
SWIDTH 1000 0
DWIDTH 24 0
BBX 24 24 0 0
BITMAP
000000
000000
000800
001000
002000
004000
000000
007900
008700
018300
018300
018300
018300
018300
018300
018300
018300
008700
007900
000000
000000
000000
000000
000000
ENDCHAR
STARTCHAR C00e8
ENCODING 232
SWIDTH 1000 0
DWIDTH 24 0
BBX 24 24 0 0
BITMAP
000000
000000
004000
002000
001000
000800
000000
007c00
008200
018300
018300
018300
01ff00
018000
018000
018000
018300
00c200
007c00
000000
000000
000000
000000
000000
ENDCHAR
STARTCHAR C00e9
ENCODING 233
SWIDTH 1000 0
DWIDTH 24 0
BBX 24 24 0 0
BITMAP
000000
000000
000800
001000
002000
004000
000000
007c00
008200
018300
018300
018300
01ff00
018000
018000
018000
018300
00c200
007c00
000000
000000
000000
000000
000000
ENDCHAR
STARTCHAR C00ea
ENCODING 234
SWIDTH 1000 0
DWIDTH 24 0
BBX 24 24 0 0
BITMAP
000000
000000
003000
004800
008400
000000
000000
007c00
008200
018300
018300
018300
01ff00
018000
018000
018000
018300
00c200
007c00
000000
000000
000000
000000
000000
ENDCHAR
STARTCHAR C00ec
ENCODING 236
SWIDTH 1000 0
DWIDTH 24 0
BBX 24 24 0 0
BITMAP
000000
000000
002000
001000
000800
000400
000000
001800
001800
001800
001800
001800
001800
001800
001800
001800
001800
001800
001800
000000
000000
000000
000000
000000
ENDCHAR
STARTCHAR C00ed
ENCODING 237
SWIDTH 1000 0
DWIDTH 24 0
BBX 24 24 0 0
BITMAP
000000
000000
000400
000800
001000
002000
000000
001800
001800
001800
001800
001800
001800
001800
001800
001800
001800
001800
001800
000000
000000
000000
000000
000000
ENDCHAR
STARTCHAR C00f2
ENCODING 242
SWIDTH 1000 0
DWIDTH 24 0
BBX 24 24 0 0
BITMAP
000000
000000
002000
001000
000800
000400
000000
003c00
00c300
008100
018180
018180
018180
018180
018180
018180
008100
00c300
003c00
000000
000000
000000
000000
000000
ENDCHAR
STARTCHAR C00f3
ENCODING 243
SWIDTH 1000 0
DWIDTH 24 0
BBX 24 24 0 0
BITMAP
000000
000000
000400
000800
001000
002000
000000
003c00
00c300
008100
018180
018180
018180
018180
018180
018180
008100
00c300
003c00
000000
000000
000000
000000
000000
ENDCHAR
STARTCHAR C00f7
ENCODING 247
SWIDTH 1000 0
DWIDTH 24 0
BBX 24 24 0 0
BITMAP
000000
000000
000000
000000
001000
003800
003800
001000
000000
000000
000000
1ffff0
000000
000000
000000
001000
003800
003800
001000
000000
000000
000000
000000
000000
ENDCHAR
STARTCHAR C00f9
ENCODING 249
SWIDTH 1000 0
DWIDTH 24 0
BBX 24 24 0 0
BITMAP
000000
000000
004000
002000
001000
000800
000000
018300
018300
018300
018300
018300
018300
018300
018300
018300
018300
008700
007900
000000
000000
000000
000000
000000
ENDCHAR
STARTCHAR C00fa
ENCODING 250
SWIDTH 1000 0
DWIDTH 24 0
BBX 24 24 0 0
BITMAP
000000
000000
000400
000800
001000
002000
000000
018300
018300
018300
018300
018300
018300
018300
018300
018300
018300
008700
007900
000000
000000
000000
000000
000000
ENDCHAR
STARTCHAR C00fc
ENCODING 252
SWIDTH 1000 0
DWIDTH 24 0
BBX 24 24 0 0
BITMAP
000000
000000
000000
000000
000000
00c600
000000
018300
018300
018300
018300
018300
018300
018300
018300
018300
018300
008700
007900
000000
000000
000000
000000
000000
ENDCHAR
STARTCHAR C0101
ENCODING 257
SWIDTH 1000 0
DWIDTH 24 0
BBX 24 24 0 0
BITMAP
000000
000000
000000
01ff00
000000
000000
000000
007900
008700
018300
018300
018300
018300
018300
018300
018300
018300
008700
007900
000000
000000
000000
000000
000000
ENDCHAR
STARTCHAR C0113
ENCODING 275
SWIDTH 1000 0
DWIDTH 24 0
BBX 24 24 0 0
BITMAP
000000
000000
000000
01ff00
000000
000000
000000
007c00
008200
018300
018300
018300
01ff00
018000
018000
018000
018300
00c200
007c00
000000
000000
000000
000000
000000
ENDCHAR
STARTCHAR C011b
ENCODING 283
SWIDTH 1000 0
DWIDTH 24 0
BBX 24 24 0 0
BITMAP
000000
000000
008400
004800
003000
000000
000000
007c00
008200
018300
018300
018300
01ff00
018000
018000
018000
018300
00c200
007c00
000000
000000
000000
000000
000000
ENDCHAR
STARTCHAR C012b
ENCODING 299
SWIDTH 1000 0
DWIDTH 24 0
BBX 24 24 0 0
BITMAP
000000
000000
000000
003c00
000000
000000
000000
001800
001800
001800
001800
001800
001800
001800
001800
001800
001800
001800
001800
000000
000000
000000
000000
000000
ENDCHAR
STARTCHAR C0144
ENCODING 324
SWIDTH 1000 0
DWIDTH 24 0
BBX 24 24 0 0
BITMAP
000000
000000
000400
000800
001000
002000
000000
009e00
03a300
01c300
018300
018300
018300
018300
018300
018300
018300
018300
03c780
000000
000000
000000
000000
000000
ENDCHAR
STARTCHAR C0148
ENCODING 328
SWIDTH 1000 0
DWIDTH 24 0
BBX 24 24 0 0
BITMAP
000000
000000
008400
004800
003000
000000
000000
009e00
03a300
01c300
018300
018300
018300
018300
018300
018300
018300
018300
03c780
000000
000000
000000
000000
000000
ENDCHAR
STARTCHAR C014d
ENCODING 333
SWIDTH 1000 0
DWIDTH 24 0
BBX 24 24 0 0
BITMAP
000000
000000
000000
01ff80
000000
000000
000000
003c00
00c300
008100
018180
018180
018180
018180
018180
018180
008100
00c300
003c00
000000
000000
000000
000000
000000
ENDCHAR
STARTCHAR C016b
ENCODING 363
SWIDTH 1000 0
DWIDTH 24 0
BBX 24 24 0 0
BITMAP
000000
000000
000000
01ff00
000000
000000
000000
018300
018300
018300
018300
018300
018300
018300
018300
018300
018300
008700
007900
000000
000000
000000
000000
000000
ENDCHAR
STARTCHAR C01ce
ENCODING 462
SWIDTH 1000 0
DWIDTH 24 0
BBX 24 24 0 0
BITMAP
000000
000000
008400
004800
003000
000000
000000
007900
008700
018300
018300
018300
018300
018300
018300
018300
018300
008700
007900
000000
000000
000000
000000
000000
ENDCHAR
STARTCHAR C01d0
ENCODING 464
SWIDTH 1000 0
DWIDTH 24 0
BBX 24 24 0 0
BITMAP
000000
000000
004200
002400
001800
000000
000000
001800
001800
001800
001800
001800
001800
001800
001800
001800
001800
001800
001800
000000
000000
000000
000000
000000
ENDCHAR
STARTCHAR C01d2
ENCODING 466
SWIDTH 1000 0
DWIDTH 24 0
BBX 24 24 0 0
BITMAP
000000
000000
004200
002400
001800
000000
000000
003c00
00c300
008100
018180
018180
018180
018180
018180
018180
008100
00c300
003c00
000000
000000
000000
000000
000000
ENDCHAR
STARTCHAR C01d4
ENCODING 468
SWIDTH 1000 0
DWIDTH 24 0
BBX 24 24 0 0
BITMAP
000000
000000
004200
002400
001800
000000
000000
018300
018300
018300
018300
018300
018300
018300
018300
018300
018300
008700
007900
000000
000000
000000
000000
000000
ENDCHAR
STARTCHAR C01d6
ENCODING 470
SWIDTH 1000 0
DWIDTH 24 0
BBX 24 24 0 0
BITMAP
000000
000000
000000
01ff00
000000
00c600
000000
018300
018300
018300
018300
018300
018300
018300
018300
018300
018300
008700
007900
000000
000000
000000
000000
000000
ENDCHAR
STARTCHAR C01d8
ENCODING 472
SWIDTH 1000 0
DWIDTH 24 0
BBX 24 24 0 0
BITMAP
000000
000400
000800
001000
000000
00c600
000000
018300
018300
018300
018300
018300
018300
018300
018300
018300
018300
008700
007900
000000
000000
000000
000000
000000
ENDCHAR
STARTCHAR C01da
ENCODING 474
SWIDTH 1000 0
DWIDTH 24 0
BBX 24 24 0 0
BITMAP
000000
004200
002400
001800
000000
00c600
000000
018300
018300
018300
018300
018300
018300
018300
018300
018300
018300
008700
007900
000000
000000
000000
000000
000000
ENDCHAR
STARTCHAR C01dc
ENCODING 476
SWIDTH 1000 0
DWIDTH 24 0
BBX 24 24 0 0
BITMAP
000000
004000
002000
001000
000000
00c600
000000
018300
018300
018300
018300
018300
018300
018300
018300
018300
018300
008700
007900
000000
000000
000000
000000
000000
ENDCHAR
STARTCHAR C0251
ENCODING 593
SWIDTH 1000 0
DWIDTH 24 0
BBX 24 24 0 0
BITMAP
000000
000000
000000
000000
000000
000000
000000
007900
008700
018300
018300
018300
018300
018300
018300
018300
018300
008700
007900
000000
000000
000000
000000
000000
ENDCHAR
STARTCHAR C0261
ENCODING 609
SWIDTH 1000 0
DWIDTH 24 0
BBX 24 24 0 0
BITMAP
000000
000000
000000
000000
000000
000000
000000
003cc0
0042c0
00c300
00c300
00c300
004200
003c00
002000
004000
006000
003e00
005f00
0180c0
0200c0
0200c0
018180
00fe00
ENDCHAR
STARTCHAR C02c7
ENCODING 711
SWIDTH 1000 0
DWIDTH 24 0
BBX 24 24 0 0
BITMAP
000000
000000
000000
008200
004400
002800
001000
000000
000000
000000
000000
000000
000000
000000
000000
000000
000000
000000
000000
000000
000000
000000
000000
000000
ENDCHAR
STARTCHAR C02c9
ENCODING 713
SWIDTH 1000 0
DWIDTH 24 0
BBX 24 24 0 0
BITMAP
000000
000000
000000
000000
000000
00ff00
000000
000000
000000
000000
000000
000000
000000
000000
000000
000000
000000
000000
000000
000000
000000
000000
000000
000000
ENDCHAR
STARTCHAR C0391
ENCODING 913
SWIDTH 1000 0
DWIDTH 24 0
BBX 24 24 0 0
BITMAP
000000
001000
003000
003800
005800
004c00
004c00
008600
008600
008600
010300
01ff00
010300
020180
020180
020180
0400c0
0400c0
1f03f0
000000
000000
000000
000000
000000
ENDCHAR
STARTCHAR C0392
ENCODING 914
SWIDTH 1000 0
DWIDTH 24 0
BBX 24 24 0 0
BITMAP
000000
07fe00
018300
018180
018180
018180
018180
018180
018300
01fe00
018380
0181c0
0180c0
0180c0
0180c0
0180c0
0181c0
018380
07ff00
000000
000000
000000
000000
000000
ENDCHAR
STARTCHAR C0393
ENCODING 915
SWIDTH 1000 0
DWIDTH 24 0
BBX 24 24 0 0
BITMAP
000000
07ffe0
018060
018020
018020
018000
018000
018000
018000
018000
018000
018000
018000
018000
018000
018000
018000
018000
07e000
000000
000000
000000
000000
000000
ENDCHAR
STARTCHAR C0394
ENCODING 916
SWIDTH 1000 0
DWIDTH 24 0
BBX 24 24 0 0
BITMAP
000000
001800
002c00
002c00
004600
004600
004600
008300
008300
010180
010180
010180
0200c0
0200c0
040060
040060
040060
080030
0ffff0
000000
000000
000000
000000
000000
ENDCHAR
STARTCHAR C0395
ENCODING 917
SWIDTH 1000 0
DWIDTH 24 0
BBX 24 24 0 0
BITMAP
000000
07ffe0
018060
018020
018020
018000
018100
018100
018300
01ff00
018300
018100
018100
018000
018000
018020
018020
018060
07ffe0
000000
000000
000000
000000
000000
ENDCHAR
STARTCHAR C0396
ENCODING 918
SWIDTH 1000 0
DWIDTH 24 0
BBX 24 24 0 0
BITMAP
000000
03ffc0
0300c0
020180
020300
000600
000600
000c00
001800
001800
003000
006000
006000
00c000
018020
018020
030020
060060
07ffe0
000000
000000
000000
000000
000000
ENDCHAR
STARTCHAR C0397
ENCODING 919
SWIDTH 1000 0
DWIDTH 24 0
BBX 24 24 0 0
BITMAP
000000
0fc3f0
0300c0
0300c0
0300c0
0300c0
0300c0
0300c0
0300c0
03ffc0
0300c0
0300c0
0300c0
0300c0
0300c0
0300c0
0300c0
0300c0
0fc3f0
000000
000000
000000
000000
000000
ENDCHAR
STARTCHAR C0398
ENCODING 920
SWIDTH 1000 0
DWIDTH 24 0
BBX 24 24 0 0
BITMAP
000000
003c00
00c300
0300c0
060060
060060
0c0030
0c8130
0c8130
0cff30
0cff30
0c8130
0c8130
0c0030
060060
060060
0300c0
00c300
003c00
000000
000000
000000
000000
000000
ENDCHAR
STARTCHAR C0399
ENCODING 921
SWIDTH 1000 0
DWIDTH 24 0
BBX 24 24 0 0
BITMAP
000000
007e00
001800
001800
001800
001800
001800
001800
001800
001800
001800
001800
001800
001800
001800
001800
001800
001800
007e00
000000
000000
000000
000000
000000
ENDCHAR
STARTCHAR C039a
ENCODING 922
SWIDTH 1000 0
DWIDTH 24 0
BBX 24 24 0 0
BITMAP
000000
0fc3f0
030080
030100
030200
030400
030800
031000
033800
034c00
038c00
030600
030300
030300
030180
0300c0
0300c0
030060
0fc1f8
000000
000000
000000
000000
000000
ENDCHAR
STARTCHAR C039b
ENCODING 923
SWIDTH 1000 0
DWIDTH 24 0
BBX 24 24 0 0
BITMAP
000000
003000
003000
003800
005800
004c00
004c00
008600
008600
008600
010300
010300
010300
020180
020180
020180
0400c0
0400c0
1f03f0
000000
000000
000000
000000
000000
ENDCHAR
STARTCHAR C039c
ENCODING 924
SWIDTH 1000 0
DWIDTH 24 0
BBX 24 24 0 0
BITMAP
000000
3e007c
0e00e0
0b00e0
0b00e0
0b0160
098160
098160
098260
08c260
08c260
08c460
086460
086460
082860
083860
083060
081060
3e01f8
000000
000000
000000
000000
000000
ENDCHAR
STARTCHAR C039d
ENCODING 925
SWIDTH 1000 0
DWIDTH 24 0
BBX 24 24 0 0
BITMAP
000000
0f01f0
038040
038040
02c040
026040
026040
023040
021840
020c40
020c40
020640
020640
020340
0201c0
0201c0
0200c0
0200c0
0f8040
000000
000000
000000
000000
000000
ENDCHAR
STARTCHAR C039e
ENCODING 926
SWIDTH 1000 0
DWIDTH 24 0
BBX 24 24 0 0
BITMAP
000000
0ffff0
0ffff0
080010
080010
000000
000000
010080
010080
01ff80
01ff80
010080
010080
000000
000000
080010
080010
0ffff0
0ffff0
000000
000000
000000
000000
000000
ENDCHAR
STARTCHAR C039f
ENCODING 927
SWIDTH 1000 0
DWIDTH 24 0
BBX 24 24 0 0
BITMAP
000000
003c00
00c300
0300c0
060060
060060
0c0030
0c0030
0c0030
0c0030
0c0030
0c0030
0c0030
0c0030
060060
060060
0300c0
00c300
003c00
000000
000000
000000
000000
000000
ENDCHAR
STARTCHAR C03a0
ENCODING 928
SWIDTH 1000 0
DWIDTH 24 0
BBX 24 24 0 0
BITMAP
000000
0ffff0
0300c0
0300c0
0300c0
0300c0
0300c0
0300c0
0300c0
0300c0
0300c0
0300c0
0300c0
0300c0
0300c0
0300c0
0300c0
0300c0
0f83f0
000000
000000
000000
000000
000000
ENDCHAR
STARTCHAR C03a1
ENCODING 929
SWIDTH 1000 0
DWIDTH 24 0
BBX 24 24 0 0
BITMAP
000000
07ff00
018180
0180c0
0180c0
0180c0
0180c0
0180c0
018180
01ff00
018000
018000
018000
018000
018000
018000
018000
018000
07e000
000000
000000
000000
000000
000000
ENDCHAR
STARTCHAR C03a3
ENCODING 931
SWIDTH 1000 0
DWIDTH 24 0
BBX 24 24 0 0
BITMAP
000000
0fffe0
0e0060
070020
038020
01c000
00e000
007000
003800
001c00
001800
003000
006000
00c000
018000
030020
060020
0fffe0
0fffe0
000000
000000
000000
000000
000000
ENDCHAR
STARTCHAR C03a4
ENCODING 932
SWIDTH 1000 0
DWIDTH 24 0
BBX 24 24 0 0
BITMAP
000000
0ffff0
0c1830
081810
081810
001800
001800
001800
001800
001800
001800
001800
001800
001800
001800
001800
001800
001800
007e00
000000
000000
000000
000000
000000
ENDCHAR
STARTCHAR C03a5
ENCODING 933
SWIDTH 1000 0
DWIDTH 24 0
BBX 24 24 0 0
BITMAP
000000
000300
01c4c0
032860
031860
001800
001800
001800
001800
001800
001800
001800
001800
001800
001800
001800
001800
001800
007e00
000000
000000
000000
000000
000000
ENDCHAR
STARTCHAR C03a6
ENCODING 934
SWIDTH 1000 0
DWIDTH 24 0
BBX 24 24 0 0
BITMAP
000000
007e00
001800
001800
00ff00
0318c0
061860
0c1830
0c1830
0c1830
0c1830
0c1830
0c1830
061860
0318c0
00ff00
001800
001800
007e00
000000
000000
000000
000000
000000
ENDCHAR
STARTCHAR C03a7
ENCODING 935
SWIDTH 1000 0
DWIDTH 24 0
BBX 24 24 0 0
BITMAP
000000
0fc3f8
030080
018100
00c200
006200
006400
003400
001800
001800
002c00
002600
004600
004300
008180
008180
0100c0
020060
1f81f8
000000
000000
000000
000000
000000
ENDCHAR
STARTCHAR C03a8
ENCODING 936
SWIDTH 1000 0
DWIDTH 24 0
BBX 24 24 0 0
BITMAP
000000
007e00
181818
0c1830
0c1830
061860
061860
061860
061860
061860
0318c0
019980
00ff00
001800
001800
001800
001800
001800
007e00
000000
000000
000000
000000
000000
ENDCHAR
STARTCHAR C03a9
ENCODING 937
SWIDTH 1000 0
DWIDTH 24 0
BBX 24 24 0 0
BITMAP
000000
007e00
018180
060060
060030
0c0030
0c0030
0c0030
0c0030
0c0030
0c0030
060060
060060
018180
00e700
002400
042420
07e7e0
07e7e0
000000
000000
000000
000000
000000
ENDCHAR
STARTCHAR C03b1
ENCODING 945
SWIDTH 1000 0
DWIDTH 24 0
BBX 24 24 0 0
BITMAP
000000
000000
000000
000000
000000
000000
000000
003980
006580
00c380
018300
018300
018300
018300
018300
018300
018500
00c900
007180
000000
000000
000000
000000
000000
ENDCHAR
STARTCHAR C03b2
ENCODING 946
SWIDTH 1000 0
DWIDTH 24 0
BBX 24 24 0 0
BITMAP
000000
000000
000000
000000
003800
004600
00c300
018300
018300
018300
018600
01fc00
018600
018380
018180
018180
018180
01c300
01bc00
018000
018000
018000
018000
018000
ENDCHAR
STARTCHAR C03b3
ENCODING 947
SWIDTH 1000 0
DWIDTH 24 0
BBX 24 24 0 0
BITMAP
000000
000000
000000
000000
000000
000000
000000
030300
078300
048300
004200
004200
004400
002400
002800
001000
001000
001000
003000
003000
003000
003000
003000
003000
ENDCHAR
STARTCHAR C03b4
ENCODING 948
SWIDTH 1000 0
DWIDTH 24 0
BBX 24 24 0 0
BITMAP
000000
000000
007c00
00c600
00c300
006000
003000
003800
00ce00
018300
030180
030180
030180
030180
030180
030180
018300
00c600
003800
000000
000000
000000
000000
000000
ENDCHAR
STARTCHAR C03b5
ENCODING 949
SWIDTH 1000 0
DWIDTH 24 0
BBX 24 24 0 0
BITMAP
000000
000000
000000
000000
000000
000000
000000
003e00
00c180
008180
018000
01c000
007c00
00c000
018000
018000
018040
00c180
003e00
000000
000000
000000
000000
000000
ENDCHAR
STARTCHAR C03b6
ENCODING 950
SWIDTH 1000 0
DWIDTH 24 0
BBX 24 24 0 0
BITMAP
000000
004000
008000
018000
018000
018600
00ce00
007800
006000
00c000
018000
038000
030000
030000
030000
030000
018000
00ff00
007f80
000180
000180
000180
00c300
00fe00
ENDCHAR
STARTCHAR C03b7
ENCODING 951
SWIDTH 1000 0
DWIDTH 24 0
BBX 24 24 0 0
BITMAP
000000
000000
000000
000000
000000
000000
000000
00ce00
01d300
00e300
00c300
00c300
00c300
00c300
00c300
00c300
00c300
00c300
00c300
000300
000300
000300
000300
000300
ENDCHAR
STARTCHAR C03b8
ENCODING 952
SWIDTH 1000 0
DWIDTH 24 0
BBX 24 24 0 0
BITMAP
000000
000000
003c00
006600
00c300
018180
018180
018180
018180
018180
01ff80
018180
018180
018180
018180
018180
00c300
006600
003c00
000000
000000
000000
000000
000000
ENDCHAR
STARTCHAR C03b9
ENCODING 953
SWIDTH 1000 0
DWIDTH 24 0
BBX 24 24 0 0
BITMAP
000000
000000
000000
000000
000000
000000
000000
000800
007800
001800
001800
001800
001800
001800
001800
001800
001800
001900
000e00
000000
000000
000000
000000
000000
ENDCHAR
STARTCHAR C03ba
ENCODING 954
SWIDTH 1000 0
DWIDTH 24 0
BBX 24 24 0 0
BITMAP
000000
000000
000000
000000
000000
000000
000000
006070
0060b0
006100
006600
007800
007800
006c00
006600
006300
006180
0060c0
0061f0
000000
000000
000000
000000
000000
ENDCHAR
STARTCHAR C03bb
ENCODING 955
SWIDTH 1000 0
DWIDTH 24 0
BBX 24 24 0 0
BITMAP
000000
000000
00c000
012000
011000
001000
001000
001800
000800
003800
002c00
006400
006400
00c600
00c200
018300
030100
030120
0600c0
000000
000000
000000
000000
000000
ENDCHAR
STARTCHAR C03bc
ENCODING 956
SWIDTH 1000 0
DWIDTH 24 0
BBX 24 24 0 0
BITMAP
000000
000000
000000
000000
000000
000000
000000
018180
018180
018180
018180
018180
018180
018180
018180
018180
01c390
01fda0
01b8c0
018000
018000
018000
018000
018000
ENDCHAR
STARTCHAR C03bd
ENCODING 957
SWIDTH 1000 0
DWIDTH 24 0
BBX 24 24 0 0
BITMAP
000000
000000
000000
000000
000000
000000
000000
018180
02c180
00c080
00c080
00c100
00c100
00c200
00c200
00c400
00c800
00d000
006000
000000
000000
000000
000000
000000
ENDCHAR
STARTCHAR C03be
ENCODING 958
SWIDTH 1000 0
DWIDTH 24 0
BBX 24 24 0 0
BITMAP
001000
006000
00c000
00c000
006600
003e00
006000
00c000
00c000
007e00
008e00
018000
030000
030000
030000
030000
018000
00fe00
007f00
000180
000180
000180
00c300
00fe00
ENDCHAR
STARTCHAR C03bf
ENCODING 959
SWIDTH 1000 0
DWIDTH 24 0
BBX 24 24 0 0
BITMAP
000000
000000
000000
000000
000000
000000
000000
003800
00c600
018300
030180
030180
030180
030180
030180
030180
018300
00c600
003800
000000
000000
000000
000000
000000
ENDCHAR
STARTCHAR C03c0
ENCODING 960
SWIDTH 1000 0
DWIDTH 24 0
BBX 24 24 0 0
BITMAP
000000
000000
000000
000000
000000
000000
000000
01ff80
03ff80
024200
044200
004200
004200
004200
004200
004200
014240
03c3c0
018180
000000
000000
000000
000000
000000
ENDCHAR
STARTCHAR C03c1
ENCODING 961
SWIDTH 1000 0
DWIDTH 24 0
BBX 24 24 0 0
BITMAP
000000
000000
000000
000000
000000
000000
000000
001c00
002300
006180
004180
00c180
00c180
00c180
00c180
00c180
00c100
00e300
00dc00
00c000
00c000
00c000
00c000
00c000
ENDCHAR
STARTCHAR C03c3
ENCODING 963
SWIDTH 1000 0
DWIDTH 24 0
BBX 24 24 0 0
BITMAP
000000
000000
000000
000000
000000
000000
000000
003fe0
00c7e0
018300
030180
030180
030180
030180
030180
030180
018300
00c600
003800
000000
000000
000000
000000
000000
ENDCHAR
STARTCHAR C03c4
ENCODING 964
SWIDTH 1000 0
DWIDTH 24 0
BBX 24 24 0 0
BITMAP
000000
000000
000000
000000
000000
000000
000000
00ff80
01ff80
021800
001800
001800
001800
001800
001800
001800
001800
001900
000e00
000000
000000
000000
000000
000000
ENDCHAR
STARTCHAR C03c5
ENCODING 965
SWIDTH 1000 0
DWIDTH 24 0
BBX 24 24 0 0
BITMAP
000000
000000
000000
000000
000000
000000
000000
070180
0981c0
0180c0
0180c0
018080
018080
018100
018100
018200
018200
018c00
00f000
000000
000000
000000
000000
000000
ENDCHAR
STARTCHAR C03c6
ENCODING 966
SWIDTH 1000 0
DWIDTH 24 0
BBX 24 24 0 0
BITMAP
000000
000000
001000
001000
001000
001000
001000
007c00
019300
031180
0610c0
0610c0
0610c0
0610c0
0610c0
0610c0
031180
019300
007c00
001000
001000
001000
001000
001000
ENDCHAR
STARTCHAR C03c7
ENCODING 967
SWIDTH 1000 0
DWIDTH 24 0
BBX 24 24 0 0
BITMAP
000000
000000
000000
000000
000000
000000
000000
0180c0
024180
004300
002300
002600
001600
001c00
001800
001800
003800
006400
006400
00c200
00c200
018100
030120
0600c0
ENDCHAR
STARTCHAR C03c8
ENCODING 968
SWIDTH 1000 0
DWIDTH 24 0
BBX 24 24 0 0
BITMAP
000000
000000
000000
000800
000800
000800
000800
030980
0589c0
0188c0
0188c0
0188c0
0188c0
0188c0
0188c0
0188c0
0188c0
00c980
003e00
000800
000800
000800
000800
000800
ENDCHAR
STARTCHAR C03c9
ENCODING 969
SWIDTH 1000 0
DWIDTH 24 0
BBX 24 24 0 0
BITMAP
000000
000000
000000
000000
000000
000000
000000
01c380
0300c0
0300c0
060060
060060
061860
061860
061860
061860
061860
0324c0
01c380
000000
000000
000000
000000
000000
ENDCHAR
STARTCHAR C0401
ENCODING 1025
SWIDTH 1000 0
DWIDTH 24 0
BBX 24 24 0 0
BITMAP
000000
008200
01c700
008200
000000
07ffe0
018060
018020
018000
018100
018100
018300
01ff00
018300
018100
018100
018000
018020
018020
018060
07ffe0
000000
000000
000000
ENDCHAR
STARTCHAR C0410
ENCODING 1040
SWIDTH 1000 0
DWIDTH 24 0
BBX 24 24 0 0
BITMAP
000000
000000
000000
000000
001000
003000
003800
004800
004c00
00c400
008600
008600
010300
01ff00
010300
020180
020180
020180
0400c0
0400c0
1f03f0
000000
000000
000000
ENDCHAR
STARTCHAR C0411
ENCODING 1041
SWIDTH 1000 0
DWIDTH 24 0
BBX 24 24 0 0
BITMAP
000000
000000
000000
000000
07ff80
018180
018080
018080
018000
018000
018000
018000
01fe00
018300
018180
018180
018180
018180
018180
018300
07fe00
000000
000000
000000
ENDCHAR
STARTCHAR C0412
ENCODING 1042
SWIDTH 1000 0
DWIDTH 24 0
BBX 24 24 0 0
BITMAP
000000
000000
000000
000000
07fe00
018300
018180
018180
018180
018180
018180
018300
01fe00
018380
0181c0
0180c0
0180c0
0180c0
0181c0
018380
07ff80
000000
000000
000000
ENDCHAR
STARTCHAR C0413
ENCODING 1043
SWIDTH 1000 0
DWIDTH 24 0
BBX 24 24 0 0
BITMAP
000000
000000
000000
000000
07fff0
018030
018010
018010
018000
018000
018000
018000
018000
018000
018000
018000
018000
018000
018000
018000
07e000
000000
000000
000000
ENDCHAR
STARTCHAR C0414
ENCODING 1044
SWIDTH 1000 0
DWIDTH 24 0
BBX 24 24 0 0
BITMAP
000000
000000
000000
000000
03ffe0
008180
008180
008180
008180
010180
010180
010180
010180
010180
020180
020180
020180
020180
040180
080180
1ffff0
300030
200010
000010
ENDCHAR
STARTCHAR C0415
ENCODING 1045
SWIDTH 1000 0
DWIDTH 24 0
BBX 24 24 0 0
BITMAP
000000
000000
000000
000000
07ffe0
018060
018020
018020
018000
018100
018100
018300
01ff00
018300
018100
018100
018000
018020
018020
018060
07ffe0
000000
000000
000000
ENDCHAR
STARTCHAR C0416
ENCODING 1046
SWIDTH 1000 0
DWIDTH 24 0
BBX 24 24 0 0
BITMAP
000000
000000
000000
000000
1c7e38
1a1858
021840
011880
011880
009900
009900
005a00
007e00
00db00
019980
019980
0318c0
061860
061860
0c1830
3c7e3c
000000
000000
000000
ENDCHAR
STARTCHAR C0417
ENCODING 1047
SWIDTH 1000 0
DWIDTH 24 0
BBX 24 24 0 0
BITMAP
000000
000000
000000
000000
027c00
038600
030300
020300
020300
000300
000600
000c00
007800
000c00
000600
000300
040300
040300
060300
030600
01f800
000000
000000
000000
ENDCHAR
STARTCHAR C0418
ENCODING 1048
SWIDTH 1000 0
DWIDTH 24 0
BBX 24 24 0 0
BITMAP
000000
000000
000000
000000
0fc3f0
0300c0
0300c0
0301c0
0302c0
0302c0
0304c0
0308c0
0308c0
0310c0
0320c0
0340c0
0340c0
0380c0
0300c0
0300c0
0fc3f0
000000
000000
000000
ENDCHAR
STARTCHAR C0419
ENCODING 1049
SWIDTH 1000 0
DWIDTH 24 0
BBX 24 24 0 0
BITMAP
00c300
00c300
004200
003c00
0f81f0
0300c0
0300c0
0301c0
0302c0
0302c0
0304c0
0308c0
0308c0
0310c0
0320c0
0340c0
0340c0
0380c0
0300c0
0300c0
0fc3f0
000000
000000
000000
ENDCHAR
STARTCHAR C041a
ENCODING 1050
SWIDTH 1000 0
DWIDTH 24 0
BBX 24 24 0 0
BITMAP
000000
000000
000000
000000
0fc0e0
030160
030200
030400
030800
031000
032000
036000
03e000
033000
031800
030c00
030600
030300
030180
0300c0
0fc0f0
000000
000000
000000
ENDCHAR
STARTCHAR C041b
ENCODING 1051
SWIDTH 1000 0
DWIDTH 24 0
BBX 24 24 0 0
BITMAP
000000
000000
000000
000000
07ffe0
010180
010180
010180
010180
010180
010180
010180
010180
010180
010180
010180
010180
010180
190180
1a0180
0c07e0
000000
000000
000000
ENDCHAR
STARTCHAR C041c
ENCODING 1052
SWIDTH 1000 0
DWIDTH 24 0
BBX 24 24 0 0
BITMAP
000000
000000
000000
000000
3e007c
0b00e0
0b00e0
0b0160
098160
098160
098260
08c260
08c260
08c460
086460
086460
086860
083860
083060
081060
3e01f8
000000
000000
000000
ENDCHAR
STARTCHAR C041d
ENCODING 1053
SWIDTH 1000 0
DWIDTH 24 0
BBX 24 24 0 0
BITMAP
000000
000000
000000
000000
0fc3f0
0300c0
0300c0
0300c0
0300c0
0300c0
0300c0
0300c0
03ffc0
0300c0
0300c0
0300c0
0300c0
0300c0
0300c0
0300c0
0fc3f0
000000
000000
000000
ENDCHAR
STARTCHAR C041e
ENCODING 1054
SWIDTH 1000 0
DWIDTH 24 0
BBX 24 24 0 0
BITMAP
000000
000000
000000
000000
003800
00c600
030180
0600c0
040060
0c0060
0c0060
0c0060
0c0060
0c0060
0c0060
0c0060
040040
0600c0
030180
00c600
003800
000000
000000
000000
ENDCHAR
STARTCHAR C041f
ENCODING 1055
SWIDTH 1000 0
DWIDTH 24 0
BBX 24 24 0 0
BITMAP
000000
000000
000000
000000
0ffff0
0300c0
0300c0
0300c0
0300c0
0300c0
0300c0
0300c0
0300c0
0300c0
0300c0
0300c0
0300c0
0300c0
0300c0
0300c0
0fc3f0
000000
000000
000000
ENDCHAR
STARTCHAR C0420
ENCODING 1056
SWIDTH 1000 0
DWIDTH 24 0
BBX 24 24 0 0
BITMAP
000000
000000
000000
000000
07ff00
018180
0180c0
0180c0
0180c0
0180c0
0180c0
018180
01ff00
018000
018000
018000
018000
018000
018000
018000
07e000
000000
000000
000000
ENDCHAR
STARTCHAR C0421
ENCODING 1057
SWIDTH 1000 0
DWIDTH 24 0
BBX 24 24 0 0
BITMAP
000000
000000
000000
000000
003f20
00c0e0
018060
030020
030020
060000
060000
060000
060000
060000
060000
060030
030030
030020
018060
00c0c0
003f00
000000
000000
000000
ENDCHAR
STARTCHAR C0422
ENCODING 1058
SWIDTH 1000 0
DWIDTH 24 0
BBX 24 24 0 0
BITMAP
000000
000000
000000
000000
0ffff0
0c1830
081810
081810
001800
001800
001800
001800
001800
001800
001800
001800
001800
001800
001800
001800
007e00
000000
000000
000000
ENDCHAR
STARTCHAR C0423
ENCODING 1059
SWIDTH 1000 0
DWIDTH 24 0
BBX 24 24 0 0
BITMAP
000000
000000
000000
000000
0fc1f0
030040
018080
018080
00c100
00c100
006200
006200
003400
003400
001800
000800
001000
001000
062000
064000
038000
000000
000000
000000
ENDCHAR
STARTCHAR C0424
ENCODING 1060
SWIDTH 1000 0
DWIDTH 24 0
BBX 24 24 0 0
BITMAP
000000
000000
000000
000000
007e00
001800
001800
00ff00
0318c0
061860
0c1830
0c1830
0c1830
0c1830
0c1830
061860
0318c0
00ff00
001800
001800
007e00
000000
000000
000000
ENDCHAR
STARTCHAR C0425
ENCODING 1061
SWIDTH 1000 0
DWIDTH 24 0
BBX 24 24 0 0
BITMAP
000000
000000
000000
000000
0f80f8
030020
018040
00c080
006100
006200
003400
001800
001800
001c00
002600
004600
008300
010180
0200c0
040060
1f01f8
000000
000000
000000
ENDCHAR
STARTCHAR C0426
ENCODING 1062
SWIDTH 1000 0
DWIDTH 24 0
BBX 24 24 0 0
BITMAP
000000
000000
000000
000000
0fc3f0
0300c0
0300c0
0300c0
0300c0
0300c0
0300c0
0300c0
0300c0
0300c0
0300c0
0300c0
0300c0
0300c0
0300c0
0300c0
0ffff8
000018
000008
000008
ENDCHAR
STARTCHAR C0427
ENCODING 1063
SWIDTH 1000 0
DWIDTH 24 0
BBX 24 24 0 0
BITMAP
000000
000000
000000
000000
07c3e0
018180
018180
018180
018180
018180
018180
018380
008580
007980
000180
000180
000180
000180
000180
000180
0007e0
000000
000000
000000
ENDCHAR
STARTCHAR C0428
ENCODING 1064
SWIDTH 1000 0
DWIDTH 24 0
BBX 24 24 0 0
BITMAP
000000
000000
000000
000000
1f3cf8
061860
061860
061860
061860
061860
061860
061860
061860
061860
061860
061860
061860
061860
061860
061860
1ffff8
000000
000000
000000
ENDCHAR
STARTCHAR C0429
ENCODING 1065
SWIDTH 1000 0
DWIDTH 24 0
BBX 24 24 0 0
BITMAP
000000
000000
000000
000000
1f3cf8
061860
061860
061860
061860
061860
061860
061860
061860
061860
061860
061860
061860
061860
061860
061860
1ffffc
00000c
000004
000004
ENDCHAR
STARTCHAR C042a
ENCODING 1066
SWIDTH 1000 0
DWIDTH 24 0
BBX 24 24 0 0
BITMAP
000000
000000
000000
000000
1ffc00
183000
103000
103000
003000
003000
003000
003000
003fe0
003030
003018
003018
003018
003018
003018
003030
00ffe0
000000
000000
000000
ENDCHAR
STARTCHAR C042b
ENCODING 1067
SWIDTH 1000 0
DWIDTH 24 0
BBX 24 24 0 0
BITMAP
000000
000000
000000
000000
3f00fc
0c0030
0c0030
0c0030
0c0030
0c0030
0c0030
0c0030
0ff830
0c0c30
0c0630
0c0630
0c0630
0c0630
0c0630
0c0c30
3ff8fc
000000
000000
000000
ENDCHAR
STARTCHAR C042c
ENCODING 1068
SWIDTH 1000 0
DWIDTH 24 0
BBX 24 24 0 0
BITMAP
000000
000000
000000
000000
07e000
018000
018000
018000
018000
018000
018000
018000
01ff00
018180
0180c0
0180c0
0180c0
0180c0
0180c0
018180
07ff00
000000
000000
000000
ENDCHAR
STARTCHAR C042d
ENCODING 1069
SWIDTH 1000 0
DWIDTH 24 0
BBX 24 24 0 0
BITMAP
000000
000000
000000
000000
04fc00
070300
060180
0400c0
0400c0
000060
000060
000060
007fe0
000060
000060
000060
0800c0
0800c0
0c0180
070300
01fc00
000000
000000
000000
ENDCHAR
STARTCHAR C042e
ENCODING 1070
SWIDTH 1000 0
DWIDTH 24 0
BBX 24 24 0 0
BITMAP
000000
000000
000000
000000
3f0780
0c1860
0c3030
0c3030
0c6018
0c6018
0c6018
0c6018
0fe018
0c6018
0c6018
0c6018
0c6018
0c3030
0c3030
0c1860
3f0780
000000
000000
000000
ENDCHAR
STARTCHAR C042f
ENCODING 1071
SWIDTH 1000 0
DWIDTH 24 0
BBX 24 24 0 0
BITMAP
000000
000000
000000
000000
00ffe0
018180
030180
030180
030180
030180
018180
00ff80
001980
003180
003180
006180
00c180
00c180
018180
030180
0f87e0
000000
000000
000000
ENDCHAR
STARTCHAR C0430
ENCODING 1072
SWIDTH 1000 0
DWIDTH 24 0
BBX 24 24 0 0
BITMAP
000000
000000
000000
000000
000000
000000
000000
000000
000000
000000
007800
00c600
00c300
008300
000f00
007300
00c300
018300
018700
019b40
00e380
000000
000000
000000
ENDCHAR
STARTCHAR C0431
ENCODING 1073
SWIDTH 1000 0
DWIDTH 24 0
BBX 24 24 0 0
BITMAP
000000
000000
000000
000000
000000
000000
000200
001c00
007000
00c000
018000
018000
01b800
01c600
018300
018300
018300
018300
018300
00c600
003800
000000
000000
000000
ENDCHAR
STARTCHAR C0432
ENCODING 1074
SWIDTH 1000 0
DWIDTH 24 0
BBX 24 24 0 0
BITMAP
000000
000000
000000
000000
000000
000000
000000
000000
000000
000000
01fe00
00c700
00c300
00c300
00c300
00fe00
00c300
00c180
00c180
00c380
01ff00
000000
000000
000000
ENDCHAR
STARTCHAR C0433
ENCODING 1075
SWIDTH 1000 0
DWIDTH 24 0
BBX 24 24 0 0
BITMAP
000000
000000
000000
000000
000000
000000
000000
000000
000000
000000
01ff80
00c180
00c080
00c000
00c000
00c000
00c000
00c000
00c000
00c000
01e000
000000
000000
000000
ENDCHAR
STARTCHAR C0434
ENCODING 1076
SWIDTH 1000 0
DWIDTH 24 0
BBX 24 24 0 0
BITMAP
000000
000000
000000
000000
000000
000000
000000
000000
000000
000000
00ff00
004600
004600
004600
008600
008600
008600
010600
010600
010600
03ffc0
0600c0
040040
000000
ENDCHAR
STARTCHAR C0435
ENCODING 1077
SWIDTH 1000 0
DWIDTH 24 0
BBX 24 24 0 0
BITMAP
000000
000000
000000
000000
000000
000000
000000
000000
000000
000000
003e00
006100
00c180
00c180
00ff80
00c000
00c000
00c080
00c080
006100
003e00
000000
000000
000000
ENDCHAR
STARTCHAR C0436
ENCODING 1078
SWIDTH 1000 0
DWIDTH 24 0
BBX 24 24 0 0
BITMAP
000000
000000
000000
000000
000000
000000
000000
000000
000000
000000
073ce0
069960
009900
005a00
005a00
003c00
00db00
019980
019980
0318c0
0f3cf0
000000
000000
000000
ENDCHAR
STARTCHAR C0437
ENCODING 1079
SWIDTH 1000 0
DWIDTH 24 0
BBX 24 24 0 0
BITMAP
000000
000000
000000
000000
000000
000000
000000
000000
000000
000000
017c00
018600
018300
010300
000600
003c00
000600
018300
018300
00c600
007c00
000000
000000
000000
ENDCHAR
STARTCHAR C0438
ENCODING 1080
SWIDTH 1000 0
DWIDTH 24 0
BBX 24 24 0 0
BITMAP
000000
000000
000000
000000
000000
000000
000000
000000
000000
000000
01e780
00c300
00c700
00cb00
00cb00
00d300
00d300
00e300
00e300
00c300
01e780
000000
000000
000000
ENDCHAR
STARTCHAR C0439
ENCODING 1081
SWIDTH 1000 0
DWIDTH 24 0
BBX 24 24 0 0
BITMAP
000000
000000
000000
000000
000000
006600
004200
002400
001800
000000
01e780
00c300
00c700
00cb00
00cb00
00d300
00d300
00e300
00e300
00c300
01e780
000000
000000
000000
ENDCHAR
STARTCHAR C043a
ENCODING 1082
SWIDTH 1000 0
DWIDTH 24 0
BBX 24 24 0 0
BITMAP
000000
000000
000000
000000
000000
000000
000000
000000
000000
000000
01e180
00c380
00c400
00c800
00f000
00f000
00d800
00cc00
00c600
00c340
01e180
000000
000000
000000
ENDCHAR
STARTCHAR C043b
ENCODING 1083
SWIDTH 1000 0
DWIDTH 24 0
BBX 24 24 0 0
BITMAP
000000
000000
000000
000000
000000
000000
000000
000000
000000
000000
00ff80
002300
002300
002300
002300
002300
002300
002300
01a300
01a300
00c780
000000
000000
000000
ENDCHAR
STARTCHAR C043c
ENCODING 1084
SWIDTH 1000 0
DWIDTH 24 0
BBX 24 24 0 0
BITMAP
000000
000000
000000
000000
000000
000000
000000
000000
000000
000000
03c0e0
01c1c0
0161c0
0162c0
0162c0
0162c0
0134c0
0134c0
0118c0
0118c0
0391e0
000000
000000
000000
ENDCHAR
STARTCHAR C043d
ENCODING 1085
SWIDTH 1000 0
DWIDTH 24 0
BBX 24 24 0 0
BITMAP
000000
000000
000000
000000
000000
000000
000000
000000
000000
000000
01e780
00c300
00c300
00c300
00c300
00ff00
00c300
00c300
00c300
00c300
01e780
000000
000000
000000
ENDCHAR
STARTCHAR C043e
ENCODING 1086
SWIDTH 1000 0
DWIDTH 24 0
BBX 24 24 0 0
BITMAP
000000
000000
000000
000000
000000
000000
000000
000000
000000
000000
003c00
00c300
018180
018180
018180
018180
018180
018180
018180
00c300
003c00
000000
000000
000000
ENDCHAR
STARTCHAR C043f
ENCODING 1087
SWIDTH 1000 0
DWIDTH 24 0
BBX 24 24 0 0
BITMAP
000000
000000
000000
000000
000000
000000
000000
000000
000000
000000
01ff80
00c300
00c300
00c300
00c300
00c300
00c300
00c300
00c300
00c300
01e780
000000
000000
000000
ENDCHAR
STARTCHAR C0440
ENCODING 1088
SWIDTH 1000 0
DWIDTH 24 0
BBX 24 24 0 0
BITMAP
000000
000000
000000
000000
000000
000000
000000
000000
000000
000000
013800
01c600
018300
018300
018300
018300
018300
018300
018300
01c600
01b800
018000
018000
03c000
ENDCHAR
STARTCHAR C0441
ENCODING 1089
SWIDTH 1000 0
DWIDTH 24 0
BBX 24 24 0 0
BITMAP
000000
000000
000000
000000
000000
000000
000000
000000
000000
000000
003e00
006300
00c300
00c000
00c000
00c000
00c000
00c000
00c100
006200
003c00
000000
000000
000000
ENDCHAR
STARTCHAR C0442
ENCODING 1090
SWIDTH 1000 0
DWIDTH 24 0
BBX 24 24 0 0
BITMAP
000000
000000
000000
000000
000000
000000
000000
000000
000000
000000
01ff80
019980
011880
011880
001800
001800
001800
001800
001800
001800
003c00
000000
000000
000000
ENDCHAR
STARTCHAR C0443
ENCODING 1091
SWIDTH 1000 0
DWIDTH 24 0
BBX 24 24 0 0
BITMAP
000000
000000
000000
000000
000000
000000
000000
000000
000000
000000
03c380
018100
00c100
00c200
006200
006400
003400
003800
001800
001000
001000
032000
032000
01c000
ENDCHAR
STARTCHAR C0444
ENCODING 1092
SWIDTH 1000 0
DWIDTH 24 0
BBX 24 24 0 0
BITMAP
000000
000000
000000
000000
000800
003800
001800
001800
001800
001800
00db00
013c80
0318c0
061860
061860
061860
061860
061860
0318c0
013c80
00db00
001800
001800
003c00
ENDCHAR
STARTCHAR C0445
ENCODING 1093
SWIDTH 1000 0
DWIDTH 24 0
BBX 24 24 0 0
BITMAP
000000
000000
000000
000000
000000
000000
000000
000000
000000
000000
03c780
010300
008600
004c00
003800
001800
003800
006400
00c200
018100
07c3c0
000000
000000
000000
ENDCHAR
STARTCHAR C0446
ENCODING 1094
SWIDTH 1000 0
DWIDTH 24 0
BBX 24 24 0 0
BITMAP
000000
000000
000000
000000
000000
000000
000000
000000
000000
000000
01e780
00c300
00c300
00c300
00c300
00c300
00c300
00c300
00c300
00c300
01ffc0
0000c0
000040
000000
ENDCHAR
STARTCHAR C0447
ENCODING 1095
SWIDTH 1000 0
DWIDTH 24 0
BBX 24 24 0 0
BITMAP
000000
000000
000000
000000
000000
000000
000000
000000
000000
000000
01e780
00c300
00c300
00c300
00c300
006700
003b00
000300
000300
000300
000780
000000
000000
000000
ENDCHAR
STARTCHAR C0448
ENCODING 1096
SWIDTH 1000 0
DWIDTH 24 0
BBX 24 24 0 0
BITMAP
000000
000000
000000
000000
000000
000000
000000
000000
000000
000000
07bde0
0318c0
0318c0
0318c0
0318c0
0318c0
0318c0
0318c0
0318c0
0318c0
07ffe0
000000
000000
000000
ENDCHAR
STARTCHAR C0449
ENCODING 1097
SWIDTH 1000 0
DWIDTH 24 0
BBX 24 24 0 0
BITMAP
000000
000000
000000
000000
000000
000000
000000
000000
000000
000000
07bde0
0318c0
0318c0
0318c0
0318c0
0318c0
0318c0
0318c0
0318c0
0318c0
07fff0
000030
000010
000000
ENDCHAR
STARTCHAR C044a
ENCODING 1098
SWIDTH 1000 0
DWIDTH 24 0
BBX 24 24 0 0
BITMAP
000000
000000
000000
000000
000000
000000
000000
000000
000000
000000
03f800
033000
023000
003000
003f00
003180
0030c0
0030c0
0030c0
003180
007f00
000000
000000
000000
ENDCHAR
STARTCHAR C044b
ENCODING 1099
SWIDTH 1000 0
DWIDTH 24 0
BBX 24 24 0 0
BITMAP
000000
000000
000000
000000
000000
000000
000000
000000
000000
000000
0783c0
030180
030180
030180
03f180
031980
030d80
030d80
030d80
031980
07f3c0
000000
000000
000000
ENDCHAR
STARTCHAR C044c
ENCODING 1100
SWIDTH 1000 0
DWIDTH 24 0
BBX 24 24 0 0
BITMAP
000000
000000
000000
000000
000000
000000
000000
000000
000000
000000
01e000
00c000
00c000
00c000
00fc00
00c600
00c300
00c300
00c300
00c600
01fc00
000000
000000
000000
ENDCHAR
STARTCHAR C044d
ENCODING 1101
SWIDTH 1000 0
DWIDTH 24 0
BBX 24 24 0 0
BITMAP
000000
000000
000000
000000
000000
000000
000000
000000
000000
000000
007800
008600
008300
000300
000300
003f00
000300
000300
00c300
00c600
007c00
000000
000000
000000
ENDCHAR
STARTCHAR C044e
ENCODING 1102
SWIDTH 1000 0
DWIDTH 24 0
BBX 24 24 0 0
BITMAP
000000
000000
000000
000000
000000
000000
000000
000000
000000
000000
03c700
018880
0198c0
0198c0
0198c0
01f8c0
0198c0
0198c0
0198c0
018880
07c700
000000
000000
000000
ENDCHAR
STARTCHAR C044f
ENCODING 1103
SWIDTH 1000 0
DWIDTH 24 0
BBX 24 24 0 0
BITMAP
000000
000000
000000
000000
000000
000000
000000
000000
000000
000000
007f80
00c300
00c300
00c300
00c300
007f00
001b00
003300
003300
016300
00c780
000000
000000
000000
ENDCHAR
STARTCHAR C0451
ENCODING 1105
SWIDTH 1000 0
DWIDTH 24 0
BBX 24 24 0 0
BITMAP
000000
000000
000000
000000
000000
000000
002200
007700
002200
000000
003e00
006100
00c180
00c180
00ff80
00c000
00c000
00c080
00c080
006100
003e00
000000
000000
000000
ENDCHAR
STARTCHAR C2014
ENCODING 8212
SWIDTH 1000 0
DWIDTH 24 0
BBX 24 24 0 0
BITMAP
000000
000000
000000
000000
000000
000000
000000
000000
000000
000000
000000
1ffff8
000000
000000
000000
000000
000000
000000
000000
000000
000000
000000
000000
000000
ENDCHAR
STARTCHAR C2016
ENCODING 8214
SWIDTH 1000 0
DWIDTH 24 0
BBX 24 24 0 0
BITMAP
000000
000000
000000
004200
004200
004200
004200
004200
004200
004200
004200
004200
004200
004200
004200
004200
004200
004200
004200
004200
004200
000000
000000
000000
ENDCHAR
STARTCHAR C2018
ENCODING 8216
SWIDTH 1000 0
DWIDTH 24 0
BBX 24 24 0 0
BITMAP
000000
000000
000008
000010
000020
000060
0000c0
0000e0
0000e0
000040
000000
000000
000000
000000
000000
000000
000000
000000
000000
000000
000000
000000
000000
000000
ENDCHAR
STARTCHAR C2019
ENCODING 8217
SWIDTH 1000 0
DWIDTH 24 0
BBX 24 24 0 0
BITMAP
000000
000000
020000
070000
070000
030000
060000
040000
080000
100000
000000
000000
000000
000000
000000
000000
000000
000000
000000
000000
000000
000000
000000
000000
ENDCHAR
STARTCHAR C201c
ENCODING 8220
SWIDTH 1000 0
DWIDTH 24 0
BBX 24 24 0 0
BITMAP
000000
000000
000042
000084
000108
000318
000630
000738
000738
000210
000000
000000
000000
000000
000000
000000
000000
000000
000000
000000
000000
000000
000000
000000
ENDCHAR
STARTCHAR C201d
ENCODING 8221
SWIDTH 1000 0
DWIDTH 24 0
BBX 24 24 0 0
BITMAP
000000
000000
084000
1ce000
1ce000
0c6000
18c000
108000
210000
420000
000000
000000
000000
000000
000000
000000
000000
000000
000000
000000
000000
000000
000000
000000
ENDCHAR
STARTCHAR C2026
ENCODING 8230
SWIDTH 1000 0
DWIDTH 24 0
BBX 24 24 0 0
BITMAP
000000
000000
000000
000000
000000
000000
000000
000000
000000
000000
181818
3c3c3c
3c3c3c
181818
000000
000000
000000
000000
000000
000000
000000
000000
000000
000000
ENDCHAR
STARTCHAR C2030
ENCODING 8240
SWIDTH 1000 0
DWIDTH 24 0
BBX 24 24 0 0
BITMAP
000000
000080
000100
1c0200
220400
220400
220800
221000
221000
222000
224000
224000
1c9c38
012244
012244
022244
042244
042244
082244
102244
102244
201c38
400000
000000
ENDCHAR
STARTCHAR C2032
ENCODING 8242
SWIDTH 1000 0
DWIDTH 24 0
BBX 24 24 0 0
BITMAP
000000
000000
020000
070000
070000
060000
0e0000
0c0000
180000
100000
200000
000000
000000
000000
000000
000000
000000
000000
000000
000000
000000
000000
000000
000000
ENDCHAR
STARTCHAR C2033
ENCODING 8243
SWIDTH 1000 0
DWIDTH 24 0
BBX 24 24 0 0
BITMAP
000000
000000
021000
073800
073800
063000
0e7000
0c6000
18c000
108000
210000
000000
000000
000000
000000
000000
000000
000000
000000
000000
000000
000000
000000
000000
ENDCHAR
STARTCHAR C203b
ENCODING 8251
SWIDTH 1000 0
DWIDTH 24 0
BBX 24 24 0 0
BITMAP
000000
000000
000000
101808
083c10
043c20
021840
010080
008100
004200
0c2430
1e1878
1e1878
0c2430
004200
008100
010080
021840
043c20
083c10
101808
000000
000000
000000
ENDCHAR
STARTCHAR C2103
ENCODING 8451
SWIDTH 1000 0
DWIDTH 24 0
BBX 24 24 0 0
BITMAP
000000
000000
180fc4
243034
24601c
18c00c
00c004
018004
018004
018000
018000
018000
018000
018000
018000
018000
018000
00c004
00c004
006008
003010
000fe0
000000
000000
ENDCHAR
STARTCHAR C2116
ENCODING 8470
SWIDTH 1000 0
DWIDTH 24 0
BBX 24 24 0 0
BITMAP
000000
000000
1e0600
060b00
060b00
070800
070860
058890
058998
058998
04c998
04c998
04c998
046998
046998
046998
043998
043890
043860
341800
341800
180bfc
000000
000000
ENDCHAR
STARTCHAR C2160
ENCODING 8544
SWIDTH 1000 0
DWIDTH 24 0
BBX 24 24 0 0
BITMAP
000000
000000
007e00
001800
001800
001800
001800
001800
001800
001800
001800
001800
001800
001800
001800
001800
001800
001800
001800
001800
00ff00
000000
000000
000000
ENDCHAR
STARTCHAR C2161
ENCODING 8545
SWIDTH 1000 0
DWIDTH 24 0
BBX 24 24 0 0
BITMAP
000000
000000
07e7e0
018180
018180
018180
018180
018180
018180
018180
018180
018180
018180
018180
018180
018180
018180
018180
018180
018180
0fe7f0
000000
000000
000000
ENDCHAR
STARTCHAR C2162
ENCODING 8546
SWIDTH 1000 0
DWIDTH 24 0
BBX 24 24 0 0
BITMAP
000000
000000
1fbdf8
061860
061860
061860
061860
061860
061860
061860
061860
061860
061860
061860
061860
061860
061860
061860
061860
061860
3fbdfc
000000
000000
000000
ENDCHAR
STARTCHAR C2163
ENCODING 8547
SWIDTH 1000 0
DWIDTH 24 0
BBX 24 24 0 0
BITMAP
000000
000000
1f7c7c
063010
063010
063010
061820
061820
061820
061820
060c40
060c40
060c40
060c40
060680
060680
060680
060680
060300
060300
1f8300
000000
000000
000000
ENDCHAR
STARTCHAR C2164
ENCODING 8548
SWIDTH 1000 0
DWIDTH 24 0
BBX 24 24 0 0
BITMAP
000000
000000
1f80f8
060020
060020
030040
030040
030040
018080
018080
00c100
00c100
00c100
006200
006200
003400
003400
003400
001800
001800
001800
000000
000000
000000
ENDCHAR
STARTCHAR C2165
ENCODING 8549
SWIDTH 1000 0
DWIDTH 24 0
BBX 24 24 0 0
BITMAP
000000
000000
3e1ef8
0c0460
0c0460
0c0460
060860
060860
060860
060860
031060
031060
031060
031060
01a060
01a060
01a060
01a060
00c060
00c060
00c1f8
000000
000000
000000
ENDCHAR
STARTCHAR C2166
ENCODING 8550
SWIDTH 1000 0
DWIDTH 24 0
BBX 24 24 0 0
BITMAP
000000
000000
7c1f78
180b30
180b30
0c0b30
0c1330
0c1330
0c1330
0c1330
062330
062330
062330
062330
034330
034330
034330
034330
018330
018330
0187f8
000000
000000
000000
ENDCHAR
STARTCHAR C2167
ENCODING 8551
SWIDTH 1000 0
DWIDTH 24 0
BBX 24 24 0 0
BITMAP
000000
000000
78fffc
305998
305998
305998
305998
189998
189998
189998
189998
189998
189998
0d1998
0d1998
0d1998
0d1998
0d1998
061998
061998
063ffc
000000
000000
000000
ENDCHAR
STARTCHAR C2168
ENCODING 8552
SWIDTH 1000 0
DWIDTH 24 0
BBX 24 24 0 0
BITMAP
000000
000000
1fbcf8
061820
061820
060c40
060c40
060680
060680
060300
060300
060300
060380
060580
060580
0604c0
0608c0
0608c0
061060
061060
1f7ef8
000000
000000
000000
ENDCHAR
STARTCHAR C2169
ENCODING 8553
SWIDTH 1000 0
DWIDTH 24 0
BBX 24 24 0 0
BITMAP
000000
000000
0fc1f0
030040
018080
018080
00c100
006200
006200
003400
001800
001800
001c00
002600
004300
004300
008180
0100c0
0100c0
020060
1f81fc
000000
000000
000000
ENDCHAR
STARTCHAR C216a
ENCODING 8554
SWIDTH 1000 0
DWIDTH 24 0
BBX 24 24 0 0
BITMAP
000000
000000
1fbdf8
060860
060860
031060
031060
01a060
01a060
00c060
00c060
00c060
00e060
016060
016060
013060
023060
023060
041860
041860
1f7ef8
000000
000000
000000
ENDCHAR
STARTCHAR C216b
ENCODING 8555
SWIDTH 1000 0
DWIDTH 24 0
BBX 24 24 0 0
BITMAP
000000
000000
3f7ffc
0c1330
062330
062330
032330
034330
034330
01c330
018330
00c330
01c330
01c330
026330
026330
026330
043330
043330
081b30
3e7ffc
000000
000000
000000
ENDCHAR
STARTCHAR C2190
ENCODING 8592
SWIDTH 1000 0
DWIDTH 24 0
BBX 24 24 0 0
BITMAP
000000
000000
000000
000000
000000
000000
000000
000000
008000
030000
1e0000
7ffffe
1e0000
030000
008000
000000
000000
000000
000000
000000
000000
000000
000000
000000
ENDCHAR
STARTCHAR C2191
ENCODING 8593
SWIDTH 1000 0
DWIDTH 24 0
BBX 24 24 0 0
BITMAP
000000
000000
001000
001000
003800
003800
007c00
00fe00
009200
011100
001000
001000
001000
001000
001000
001000
001000
001000
001000
001000
001000
001000
000000
000000
ENDCHAR
STARTCHAR C2192
ENCODING 8594
SWIDTH 1000 0
DWIDTH 24 0
BBX 24 24 0 0
BITMAP
000000
000000
000000
000000
000000
000000
000000
000000
000100
0000c0
000078
7ffffe
000078
0000c0
000100
000000
000000
000000
000000
000000
000000
000000
000000
000000
ENDCHAR
STARTCHAR C2193
ENCODING 8595
SWIDTH 1000 0
DWIDTH 24 0
BBX 24 24 0 0
BITMAP
000000
000000
001000
001000
001000
001000
001000
001000
001000
001000
001000
001000
001000
001000
011100
009200
00fe00
007c00
003800
003800
001000
001000
000000
000000
ENDCHAR
STARTCHAR C2208
ENCODING 8712
SWIDTH 1000 0
DWIDTH 24 0
BBX 24 24 0 0
BITMAP
000000
000000
000380
000c00
003000
004000
004000
008000
008000
010000
010000
01ff80
010000
010000
010000
008000
008000
004000
004000
003000
000c00
000380
000000
000000
ENDCHAR
STARTCHAR C220f
ENCODING 8719
SWIDTH 1000 0
DWIDTH 24 0
BBX 24 24 0 0
BITMAP
000000
000000
7ffffe
060060
060060
060060
060060
060060
060060
060060
060060
060060
060060
060060
060060
060060
060060
060060
060060
060060
060060
3fc3fc
000000
000000
ENDCHAR
STARTCHAR C2211
ENCODING 8721
SWIDTH 1000 0
DWIDTH 24 0
BBX 24 24 0 0
BITMAP
000000
000000
3ffffc
30001c
38000c
1c0004
0e0004
070004
038000
01c000
00e000
007000
002000
004000
008000
010004
020004
040004
08000c
10001c
3ffffc
3ffffc
000000
000000
ENDCHAR
STARTCHAR C221a
ENCODING 8730
SWIDTH 1000 0
DWIDTH 24 0
BBX 24 24 0 0
BITMAP
000000
000000
000002
000002
000004
000008
000008
000010
000010
000020
000040
000040
000080
100100
180100
2c0200
460200
030400
018800
00c800
007000
002000
000000
000000
ENDCHAR
STARTCHAR C221d
ENCODING 8733
SWIDTH 1000 0
DWIDTH 24 0
BBX 24 24 0 0
BITMAP
000000
000000
000000
000000
000000
000000
000000
000000
07c0f8
082104
101200
100c00
100c00
101200
082104
07c0f8
000000
000000
000000
000000
000000
000000
000000
000000
ENDCHAR
STARTCHAR C221e
ENCODING 8734
SWIDTH 1000 0
DWIDTH 24 0
BBX 24 24 0 0
BITMAP
000000
000000
000000
000000
000000
000000
000000
000000
0f81f0
104208
202404
201804
201804
202404
104208
0f81f0
000000
000000
000000
000000
000000
000000
000000
000000
ENDCHAR
STARTCHAR C2220
ENCODING 8736
SWIDTH 1000 0
DWIDTH 24 0
BBX 24 24 0 0
BITMAP
000000
000000
000000
000008
000010
000020
000040
000080
000100
000200
000400
000800
001000
002000
004000
008000
010000
020000
040000
080000
100000
3ffff8
000000
000000
ENDCHAR
STARTCHAR C2225
ENCODING 8741
SWIDTH 1000 0
DWIDTH 24 0
BBX 24 24 0 0
BITMAP
000000
000000
000000
002040
002040
002040
004080
004080
004080
008100
008100
008100
010200
010200
010200
020400
020400
020400
040800
040800
040800
000000
000000
000000
ENDCHAR
STARTCHAR C2227
ENCODING 8743
SWIDTH 1000 0
DWIDTH 24 0
BBX 24 24 0 0
BITMAP
000000
000000
001000
002800
002800
004400
004400
008200
008200
010100
010100
020080
020080
040040
040040
080020
080020
100010
100010
200008
200008
000000
000000
000000
ENDCHAR
STARTCHAR C2228
ENCODING 8744
SWIDTH 1000 0
DWIDTH 24 0
BBX 24 24 0 0
BITMAP
000000
000000
000000
200008
200008
100010
100010
080020
080020
040040
040040
020080
020080
010100
010100
008200
008200
004400
004400
002800
002800
001000
000000
000000
ENDCHAR
STARTCHAR C2229
ENCODING 8745
SWIDTH 1000 0
DWIDTH 24 0
BBX 24 24 0 0
BITMAP
000000
000000
007e00
018180
020040
020040
040020
040020
040020
040020
040020
040020
040020
040020
040020
040020
040020
040020
040020
040020
040020
040020
000000
000000
ENDCHAR
STARTCHAR C222a
ENCODING 8746
SWIDTH 1000 0
DWIDTH 24 0
BBX 24 24 0 0
BITMAP
000000
000000
040020
040020
040020
040020
040020
040020
040020
040020
040020
040020
040020
040020
040020
040020
040020
040020
020040
020040
018180
007e00
000000
000000
ENDCHAR
STARTCHAR C222b
ENCODING 8747
SWIDTH 1000 0
DWIDTH 24 0
BBX 24 24 0 0
BITMAP
000000
000380
000440
000860
000860
001800
001800
001800
001800
001800
001800
001800
001800
001800
001800
001800
001800
001800
001800
061000
061000
022000
01c000
000000
ENDCHAR
STARTCHAR C222e
ENCODING 8750
SWIDTH 1000 0
DWIDTH 24 0
BBX 24 24 0 0
BITMAP
000000
000380
000440
000860
000860
001800
001800
001800
007e00
009900
011880
011880
011880
011880
009900
007e00
001800
001800
001800
061000
061000
022000
01c000
000000
ENDCHAR
STARTCHAR C2234
ENCODING 8756
SWIDTH 1000 0
DWIDTH 24 0
BBX 24 24 0 0
BITMAP
000000
000000
000000
000000
000000
001800
003c00
003c00
001800
000000
000000
000000
000000
000000
000000
060060
0f00f0
0f00f0
060060
000000
000000
000000
000000
000000
ENDCHAR
STARTCHAR C2235
ENCODING 8757
SWIDTH 1000 0
DWIDTH 24 0
BBX 24 24 0 0
BITMAP
000000
000000
000000
000000
000000
060060
0f00f0
0f00f0
060060
000000
000000
000000
000000
000000
000000
001800
003c00
003c00
001800
000000
000000
000000
000000
000000
ENDCHAR
STARTCHAR C2236
ENCODING 8758
SWIDTH 1000 0
DWIDTH 24 0
BBX 24 24 0 0
BITMAP
000000
000000
000000
000000
001800
003c00
003c00
001800
000000
000000
000000
000000
000000
000000
000000
000000
001800
003c00
003c00
001800
000000
000000
000000
000000
ENDCHAR
STARTCHAR C2237
ENCODING 8759
SWIDTH 1000 0
DWIDTH 24 0
BBX 24 24 0 0
BITMAP
000000
000000
000000
000000
060060
0f00f0
0f00f0
060060
000000
000000
000000
000000
000000
000000
000000
000000
060060
0f00f0
0f00f0
060060
000000
000000
000000
000000
ENDCHAR
STARTCHAR C223d
ENCODING 8765
SWIDTH 1000 0
DWIDTH 24 0
BBX 24 24 0 0
BITMAP
000000
000000
000000
000000
000000
000000
000000
000000
0e00f0
100308
200404
200804
201004
202004
10c008
0f0070
000000
000000
000000
000000
000000
000000
000000
000000
ENDCHAR
STARTCHAR C2248
ENCODING 8776
SWIDTH 1000 0
DWIDTH 24 0
BBX 24 24 0 0
BITMAP
000000
000000
000000
000000
000000
000000
038000
0fe004
303818
400fe0
000380
000000
000000
038000
0fe004
303818
400fe0
000380
000000
000000
000000
000000
000000
000000
ENDCHAR
STARTCHAR C224c
ENCODING 8780
SWIDTH 1000 0
DWIDTH 24 0
BBX 24 24 0 0
BITMAP
000000
000000
000000
000000
0e00f0
100308
200404
200804
201004
202004
10c008
0f0070
000000
000000
3ffffc
000000
000000
000000
3ffffc
000000
000000
000000
000000
000000
ENDCHAR
STARTCHAR C2260
ENCODING 8800
SWIDTH 1000 0
DWIDTH 24 0
BBX 24 24 0 0
BITMAP
000000
000000
000080
000080
000100
000100
000200
3ffffc
000400
000400
000800
000800
001000
001000
002000
3ffffc
004000
004000
008000
008000
010000
010000
000000
000000
ENDCHAR
STARTCHAR C2261
ENCODING 8801
SWIDTH 1000 0
DWIDTH 24 0
BBX 24 24 0 0
BITMAP
000000
000000
000000
000000
000000
000000
000000
1ffff8
000000
000000
000000
1ffff8
000000
000000
000000
1ffff8
000000
000000
000000
000000
000000
000000
000000
000000
ENDCHAR
STARTCHAR C2264
ENCODING 8804
SWIDTH 1000 0
DWIDTH 24 0
BBX 24 24 0 0
BITMAP
000000
000000
000000
00000c
000070
000380
000c00
007000
038000
0c0000
300000
0c0000
038000
307000
0c0c00
038380
007070
000c0c
000380
000070
00000c
000000
000000
000000
ENDCHAR
STARTCHAR C2265
ENCODING 8805
SWIDTH 1000 0
DWIDTH 24 0
BBX 24 24 0 0
BITMAP
000000
000000
000000
300000
0e0000
01c000
003000
000e00
0001c0
000030
00000c
000030
0001c0
000e0c
003030
01c1c0
0e0e00
303000
01c000
0e0000
300000
000000
000000
000000
ENDCHAR
STARTCHAR C226e
ENCODING 8814
SWIDTH 1000 0
DWIDTH 24 0
BBX 24 24 0 0
BITMAP
000000
000000
000000
000800
000800
00081c
0008e0
000f00
003800
00c800
030800
0c0800
300800
0c0800
030800
00c800
003800
000f00
0008e0
00081c
000800
000800
000000
000000
ENDCHAR
STARTCHAR C226f
ENCODING 8815
SWIDTH 1000 0
DWIDTH 24 0
BBX 24 24 0 0
BITMAP
000000
000000
000000
001000
001000
381000
071000
00f000
001c00
001300
0010c0
001030
00100c
001030
0010c0
001300
001c00
00f000
071000
381000
001000
001000
000000
000000
ENDCHAR
STARTCHAR C2299
ENCODING 8857
SWIDTH 1000 0
DWIDTH 24 0
BBX 24 24 0 0
BITMAP
000000
000000
007e00
018180
060060
080010
080010
100008
100008
200004
201804
203c04
203c04
201804
200004
100008
100008
080010
080010
060060
018180
007e00
000000
000000
ENDCHAR
STARTCHAR C22a5
ENCODING 8869
SWIDTH 1000 0
DWIDTH 24 0
BBX 24 24 0 0
BITMAP
000000
000000
001000
001000
001000
001000
001000
001000
001000
001000
001000
001000
001000
001000
001000
001000
001000
001000
001000
001000
001000
1ffff8
000000
000000
ENDCHAR
STARTCHAR C2312
ENCODING 8978
SWIDTH 1000 0
DWIDTH 24 0
BBX 24 24 0 0
BITMAP
000000
000000
000000
000000
000000
000000
007e00
018180
060060
080010
080010
100008
100008
200004
200004
200004
000000
000000
000000
000000
000000
000000
000000
000000
ENDCHAR
STARTCHAR C2460
ENCODING 9312
SWIDTH 1000 0
DWIDTH 24 0
BBX 24 24 0 0
BITMAP
000000
007e00
018180
060060
080010
100808
101808
203804
205804
401802
401802
401802
401802
401802
401802
201804
201804
101808
101808
080010
060060
018180
007e00
000000
ENDCHAR
STARTCHAR C2461
ENCODING 9313
SWIDTH 1000 0
DWIDTH 24 0
BBX 24 24 0 0
BITMAP
000000
007e00
018180
060060
080010
103e08
107f08
208304
200304
400302
400602
400602
400c02
401802
403002
206004
20c004
10ff08
10ff08
080010
060060
018180
007e00
000000
ENDCHAR
STARTCHAR C2462
ENCODING 9314
SWIDTH 1000 0
DWIDTH 24 0
BBX 24 24 0 0
BITMAP
000000
007e00
018180
060060
080010
10ff08
100308
200604
200c04
401802
403002
401802
400602
400302
400302
200304
208304
107e08
103c08
080010
060060
018180
007e00
000000
ENDCHAR
STARTCHAR C2463
ENCODING 9315
SWIDTH 1000 0
DWIDTH 24 0
BBX 24 24 0 0
BITMAP
000000
007e00
018180
060060
080010
100c08
101808
201004
203004
402002
406c02
40cc02
408c02
418c02
43ff82
200c04
200c04
100c08
100c08
080010
060060
018180
007e00
000000
ENDCHAR
STARTCHAR C2464
ENCODING 9316
SWIDTH 1000 0
DWIDTH 24 0
BBX 24 24 0 0
BITMAP
000000
007e00
018180
060060
080010
107f08
106008
206004
206004
406002
407802
400e02
400302
400302
400302
200304
208304
107e08
103c08
080010
060060
018180
007e00
000000
ENDCHAR
STARTCHAR C2465
ENCODING 9317
SWIDTH 1000 0
DWIDTH 24 0
BBX 24 24 0 0
BITMAP
000000
007e00
018180
060060
080010
100408
100808
201004
202004
406002
404002
40dc02
40e202
40c302
40c302
20c304
20c304
106208
103c08
080010
060060
018180
007e00
000000
ENDCHAR
STARTCHAR C2466
ENCODING 9318
SWIDTH 1000 0
DWIDTH 24 0
BBX 24 24 0 0
BITMAP
000000
007e00
018180
060060
080010
10ff08
100308
200604
200604
400c02
400c02
401802
401802
401802
401802
201804
201804
101808
101808
080010
060060
018180
007e00
000000
ENDCHAR
STARTCHAR C2467
ENCODING 9319
SWIDTH 1000 0
DWIDTH 24 0
BBX 24 24 0 0
BITMAP
000000
007e00
018180
060060
080010
103c08
104208
20c304
20c304
406202
403402
401802
402c02
404602
40c302
20c304
20c304
104208
103c08
080010
060060
018180
007e00
000000
ENDCHAR
STARTCHAR C2468
ENCODING 9320
SWIDTH 1000 0
DWIDTH 24 0
BBX 24 24 0 0
BITMAP
000000
007e00
018180
060060
080010
103c08
104608
20c304
20c304
40c302
40c302
404702
403b02
400202
400602
200404
200804
101008
102008
080010
060060
018180
007e00
000000
ENDCHAR
STARTCHAR C2469
ENCODING 9321
SWIDTH 1000 0
DWIDTH 24 0
BBX 24 24 0 0
BITMAP
000000
007e00
018180
060060
080010
108708
118888
2398c4
2598c4
4198c2
4198c2
4198c2
4198c2
4198c2
4198c2
2198c4
2198c4
118888
118708
080010
060060
018180
007e00
000000
ENDCHAR
STARTCHAR C2474
ENCODING 9332
SWIDTH 1000 0
DWIDTH 24 0
BBX 24 24 0 0
BITMAP
000000
020080
040040
080020
180830
101810
303818
205808
60180c
60180c
60180c
60180c
60180c
60180c
60180c
60180c
201808
301818
101810
181830
080020
040040
020080
000000
ENDCHAR
STARTCHAR C2475
ENCODING 9333
SWIDTH 1000 0
DWIDTH 24 0
BBX 24 24 0 0
BITMAP
000000
020040
040020
080010
183c18
107e08
30c30c
208304
600306
600606
600606
600c06
601806
603006
603006
606006
206004
30c00c
10ff08
18ff18
080010
040020
020040
000000
ENDCHAR
STARTCHAR C2476
ENCODING 9334
SWIDTH 1000 0
DWIDTH 24 0
BBX 24 24 0 0
BITMAP
000000
020040
040020
080010
18ff18
100308
30060c
200c04
601806
603006
606006
601c06
600606
600306
600306
600306
200304
30830c
107e08
183c18
080010
040020
020040
000000
ENDCHAR
STARTCHAR C2477
ENCODING 9335
SWIDTH 1000 0
DWIDTH 24 0
BBX 24 24 0 0
BITMAP
000000
020040
040020
080010
180c18
101808
30180c
203004
603006
606006
604c06
60cc06
618c06
618c06
630c06
63ff86
200c04
300c0c
100c08
180c18
080010
040020
020040
000000
ENDCHAR
STARTCHAR C2478
ENCODING 9336
SWIDTH 1000 0
DWIDTH 24 0
BBX 24 24 0 0
BITMAP
000000
020040
040020
080010
180018
107f08
30600c
206004
606006
606006
607006
600c06
600606
600306
600306
600306
200304
30860c
107c08
183818
080010
040020
020040
000000
ENDCHAR
STARTCHAR C2479
ENCODING 9337
SWIDTH 1000 0
DWIDTH 24 0
BBX 24 24 0 0
BITMAP
000000
020040
040020
080010
180418
100808
30100c
202004
606006
604006
60dc06
60e206
60c306
60c306
60c306
60c306
20c304
30c30c
106208
183c18
080010
040020
020040
000000
ENDCHAR
STARTCHAR C247a
ENCODING 9338
SWIDTH 1000 0
DWIDTH 24 0
BBX 24 24 0 0
BITMAP
000000
020040
040020
080010
18ff18
100308
30020c
200604
600406
600c06
600c06
600c06
601806
601806
601806
601806
201804
30180c
101808
181818
080010
040020
020040
000000
ENDCHAR
STARTCHAR C247b
ENCODING 9339
SWIDTH 1000 0
DWIDTH 24 0
BBX 24 24 0 0
BITMAP
000000
020040
040020
080010
183c18
104208
30c30c
20c304
60c306
604206
602406
601806
603c06
604206
60c306
60c306
20c304
30c30c
104208
183c18
080010
040020
020040
000000
ENDCHAR
STARTCHAR C247c
ENCODING 9340
SWIDTH 1000 0
DWIDTH 24 0
BBX 24 24 0 0
BITMAP
000000
020040
040020
080010
183c18
104608
30c30c
20c304
60c306
60c306
60c306
604706
603b06
600206
600606
600406
200804
30100c
102008
184018
080010
040020
020040
000000
ENDCHAR
STARTCHAR C247d
ENCODING 9341
SWIDTH 1000 0
DWIDTH 24 0
BBX 24 24 0 0
BITMAP
000000
020040
040020
080010
188718
118888
3398cc
2598c4
6198c6
6198c6
6198c6
6198c6
6198c6
6198c6
6198c6
6198c6
2198c4
3198cc
118888
198718
080010
040020
020040
000000
ENDCHAR
STARTCHAR C247e
ENCODING 9342
SWIDTH 1000 0
DWIDTH 24 0
BBX 24 24 0 0
BITMAP
000000
020040
040020
080010
184118
10c308
31c70c
22cb04
60c306
60c306
60c306
60c306
60c306
60c306
60c306
60c306
20c304
30c30c
10c308
18c318
080010
040020
020040
000000
ENDCHAR
STARTCHAR C247f
ENCODING 9343
SWIDTH 1000 0
DWIDTH 24 0
BBX 24 24 0 0
BITMAP
000000
020040
040020
080010
188798
118fc8
3390cc
2580c4
6180c6
6180c6
618186
618186
618306
618606
618606
618c06
218c04
31980c
119fc8
199fd8
080010
040020
020040
000000
ENDCHAR
STARTCHAR C2480
ENCODING 9344
SWIDTH 1000 0
DWIDTH 24 0
BBX 24 24 0 0
BITMAP
000000
020040
040020
080010
188018
119fc8
3380cc
258184
618306
618606
618c06
618606
618186
6180c6
6180c6
6180c6
2180c4
3190cc
118f88
198718
080010
040020
020040
000000
ENDCHAR
STARTCHAR C2481
ENCODING 9345
SWIDTH 1000 0
DWIDTH 24 0
BBX 24 24 0 0
BITMAP
000000
020040
040020
080010
188198
118108
33830c
258204
618606
618406
618d86
618986
619986
619186
61b186
61bfe6
218184
31818c
118188
198198
080010
040020
020040
000000
ENDCHAR
STARTCHAR C2482
ENCODING 9346
SWIDTH 1000 0
DWIDTH 24 0
BBX 24 24 0 0
BITMAP
000000
020040
040020
080010
188018
118fc8
338c0c
258c04
618c06
618c06
618e06
618186
6180c6
6180c6
6180c6
6180c6
2180c4
3190cc
118f88
198718
080010
040020
020040
000000
ENDCHAR
STARTCHAR C2483
ENCODING 9347
SWIDTH 1000 0
DWIDTH 24 0
BBX 24 24 0 0
BITMAP
000000
020040
040020
080010
188118
118208
33840c
258c04
619806
619806
619b06
619c86
6198c6
6198c6
6198c6
6198c6
2198c4
3198cc
118c88
198718
080010
040020
020040
000000
ENDCHAR
STARTCHAR C2484
ENCODING 9348
SWIDTH 1000 0
DWIDTH 24 0
BBX 24 24 0 0
BITMAP
000000
020040
040020
080010
189fd8
1180c8
33808c
258184
618106
618306
618306
618306
618606
618606
618606
618606
218604
31860c
118608
198618
080010
040020
020040
000000
ENDCHAR
STARTCHAR C2485
ENCODING 9349
SWIDTH 1000 0
DWIDTH 24 0
BBX 24 24 0 0
BITMAP
000000
020040
040020
080010
188718
118888
3398cc
2598c4
6198c6
618886
618506
618206
618506
618886
6198c6
6198c6
2198c4
3198cc
118888
198718
080010
040020
020040
000000
ENDCHAR
STARTCHAR C2486
ENCODING 9350
SWIDTH 1000 0
DWIDTH 24 0
BBX 24 24 0 0
BITMAP
000000
020040
040020
080010
188718
118988
3398cc
2598c4
6198c6
6198c6
6198c6
6198c6
6189c6
6186c6
6180c6
618086
218184
31810c
118208
198418
080010
040020
020040
000000
ENDCHAR
STARTCHAR C2487
ENCODING 9351
SWIDTH 1000 0
DWIDTH 24 0
BBX 24 24 0 0
BITMAP
000000
020040
040020
080010
19e198
13f248
36366c
243664
603666
603666
606666
606666
606666
60c666
60c666
618666
218664
33066c
13f248
1bf198
080010
040020
020040
000000
ENDCHAR
STARTCHAR C2488
ENCODING 9352
SWIDTH 1000 0
DWIDTH 24 0
BBX 24 24 0 0
BITMAP
000000
000000
000000
001000
003000
007000
00f000
013000
003000
003000
003000
003000
003000
003000
003000
003000
003020
003070
003070
003020
003000
000000
000000
000000
ENDCHAR
STARTCHAR C2489
ENCODING 9353
SWIDTH 1000 0
DWIDTH 24 0
BBX 24 24 0 0
BITMAP
000000
000000
000000
00f000
01f800
030c00
020c00
000c00
000c00
000c00
001800
003000
003000
006000
004000
00c000
018020
018070
030070
03fc20
03fc00
000000
000000
000000
ENDCHAR
STARTCHAR C248a
ENCODING 9354
SWIDTH 1000 0
DWIDTH 24 0
BBX 24 24 0 0
BITMAP
000000
000000
000000
07fc00
000c00
001800
003000
006000
00c000
018000
006000
001800
000c00
000c00
000c00
000c00
000c20
000c70
041870
03f020
01e000
000000
000000
000000
ENDCHAR
STARTCHAR C248b
ENCODING 9355
SWIDTH 1000 0
DWIDTH 24 0
BBX 24 24 0 0
BITMAP
000000
000000
000000
003000
003000
006000
006000
00c000
018000
01b000
033000
033000
063000
0c3000
0c3000
183000
1ffe20
003070
003070
003020
003000
000000
000000
000000
ENDCHAR
STARTCHAR C248c
ENCODING 9356
SWIDTH 1000 0
DWIDTH 24 0
BBX 24 24 0 0
BITMAP
000000
000000
000000
03fc00
030000
030000
030000
030000
030000
03c000
007000
001800
000c00
000c00
000c00
000c00
000c20
000c70
041870
03f020
01e000
000000
000000
000000
ENDCHAR
STARTCHAR C248d
ENCODING 9357
SWIDTH 1000 0
DWIDTH 24 0
BBX 24 24 0 0
BITMAP
000000
000000
000000
001000
002000
004000
008000
018000
030000
030000
060000
06f000
070800
060c00
060c00
060c00
060c20
060c70
060c70
031820
01f000
000000
000000
000000
ENDCHAR
STARTCHAR C248e
ENCODING 9358
SWIDTH 1000 0
DWIDTH 24 0
BBX 24 24 0 0
BITMAP
000000
000000
000000
07fe00
000600
000400
000c00
000800
001800
001000
003000
003000
003000
006000
006000
006000
006020
006070
006070
006020
006000
000000
000000
000000
ENDCHAR
STARTCHAR C248f
ENCODING 9359
SWIDTH 1000 0
DWIDTH 24 0
BBX 24 24 0 0
BITMAP
000000
000000
000000
01f000
020800
060c00
060c00
060c00
060c00
031800
01b000
004000
01b000
031800
060c00
060c00
060c20
060c70
060c70
020820
01f000
000000
000000
000000
ENDCHAR
STARTCHAR C2490
ENCODING 9360
SWIDTH 1000 0
DWIDTH 24 0
BBX 24 24 0 0
BITMAP
000000
000000
000000
01f000
031800
060c00
060c00
060c00
060c00
060c00
060c00
060c00
031c00
01ec00
000c00
001800
001820
003070
002070
004020
008000
000000
000000
000000
ENDCHAR
STARTCHAR C2491
ENCODING 9361
SWIDTH 1000 0
DWIDTH 24 0
BBX 24 24 0 0
BITMAP
000000
000000
000000
041c00
0c2200
1c6300
2c6300
0c6300
0c6300
0c6300
0c6300
0c6300
0c6300
0c6300
0c6300
0c6300
0c6308
0c631c
0c631c
0c2208
0c1c00
000000
000000
000000
ENDCHAR
STARTCHAR C2492
ENCODING 9362
SWIDTH 1000 0
DWIDTH 24 0
BBX 24 24 0 0
BITMAP
000000
000000
000000
040200
0c0600
1c0e00
2c1600
0c0600
0c0600
0c0600
0c0600
0c0600
0c0600
0c0600
0c0600
0c0600
0c0608
0c061c
0c061c
0c0608
0c0600
000000
000000
000000
ENDCHAR
STARTCHAR C2493
ENCODING 9363
SWIDTH 1000 0
DWIDTH 24 0
BBX 24 24 0 0
BITMAP
000000
000000
000000
043e00
0c7f00
1c4180
2c0180
0c0180
0c0180
0c0300
0c0300
0c0600
0c0600
0c0c00
0c0c00
0c1800
0c1808
0c301c
0c201c
0c7f88
0c7f80
000000
000000
000000
ENDCHAR
STARTCHAR C2494
ENCODING 9364
SWIDTH 1000 0
DWIDTH 24 0
BBX 24 24 0 0
BITMAP
000000
000000
000000
047f80
0c0180
1c0300
2c0600
0c0c00
0c1800
0c3800
0c0600
0c0100
0c0180
0c0180
0c0180
0c0180
0c0188
0c019c
0c831c
0c7e08
0c3c00
000000
000000
000000
ENDCHAR
STARTCHAR C2495
ENCODING 9365
SWIDTH 1000 0
DWIDTH 24 0
BBX 24 24 0 0
BITMAP
000000
000000
000000
040600
0c0600
1c0c00
2c0800
0c1800
0c1000
0c3600
0c3600
0c6600
0c6600
0cc600
0cc600
0dffc0
0c0608
0c061c
0c061c
0c0608
0c0600
000000
000000
000000
ENDCHAR
STARTCHAR C2496
ENCODING 9366
SWIDTH 1000 0
DWIDTH 24 0
BBX 24 24 0 0
BITMAP
000000
000000
000000
040000
0c3f80
1c3000
2c3000
0c3000
0c3000
0c3000
0c3c00
0c0700
0c0180
0c0180
0c0180
0c0180
0c0188
0c019c
0c831c
0c7e08
0c3c00
000000
000000
000000
ENDCHAR
STARTCHAR C2497
ENCODING 9367
SWIDTH 1000 0
DWIDTH 24 0
BBX 24 24 0 0
BITMAP
000000
000000
000000
040200
0c0400
1c0800
2c1800
0c1000
0c3000
0c6000
0c6000
0c6e00
0c7100
0c6180
0c6180
0c6180
0c6188
0c619c
0c619c
0c3308
0c1e00
000000
000000
000000
ENDCHAR
STARTCHAR C2498
ENCODING 9368
SWIDTH 1000 0
DWIDTH 24 0
BBX 24 24 0 0
BITMAP
000000
000000
000000
047f80
0c0180
1c0100
2c0300
0c0200
0c0600
0c0600
0c0600
0c0c00
0c0c00
0c0c00
0c0c00
0c0c00
0c0c08
0c0c1c
0c0c1c
0c0c08
0c0c00
000000
000000
000000
ENDCHAR
STARTCHAR C2499
ENCODING 9369
SWIDTH 1000 0
DWIDTH 24 0
BBX 24 24 0 0
BITMAP
000000
000000
000000
041e00
0c2100
1c6180
2c6180
0c6180
0c6180
0c3300
0c1e00
0c0c00
0c1200
0c3300
0c6180
0c6180
0c6188
0c619c
0c619c
0c2108
0c1e00
000000
000000
000000
ENDCHAR
STARTCHAR C249a
ENCODING 9370
SWIDTH 1000 0
DWIDTH 24 0
BBX 24 24 0 0
BITMAP
000000
000000
000000
043c00
0c6600
1cc300
2cc300
0cc300
0cc300
0cc300
0cc300
0c4700
0c3b00
0c0300
0c0200
0c0600
0c0408
0c0c1c
0c081c
0c1008
0c2000
000000
000000
000000
ENDCHAR
STARTCHAR C249b
ENCODING 9371
SWIDTH 1000 0
DWIDTH 24 0
BBX 24 24 0 0
BITMAP
000000
000000
000000
0f0700
1f8880
3198c0
2198c0
0198c0
0198c0
0318c0
0318c0
0618c0
0618c0
0c18c0
0c18c0
1818c0
1818c4
3018ce
3018ce
3f8884
3f8700
000000
000000
000000
ENDCHAR
STARTCHAR C2500
ENCODING 9472
SWIDTH 1000 0
DWIDTH 24 0
BBX 24 24 0 0
BITMAP
000000
000000
000000
000000
000000
000000
000000
000000
000000
000000
000000
ffffff
000000
000000
000000
000000
000000
000000
000000
000000
000000
000000
000000
000000
ENDCHAR
STARTCHAR C2501
ENCODING 9473
SWIDTH 1000 0
DWIDTH 24 0
BBX 24 24 0 0
BITMAP
000000
000000
000000
000000
000000
000000
000000
000000
000000
000000
000000
ffffff
ffffff
000000
000000
000000
000000
000000
000000
000000
000000
000000
000000
000000
ENDCHAR
STARTCHAR C2502
ENCODING 9474
SWIDTH 1000 0
DWIDTH 24 0
BBX 24 24 0 0
BITMAP
001000
001000
001000
001000
001000
001000
001000
001000
001000
001000
001000
001000
001000
001000
001000
001000
001000
001000
001000
001000
001000
001000
001000
001000
ENDCHAR
STARTCHAR C2503
ENCODING 9475
SWIDTH 1000 0
DWIDTH 24 0
BBX 24 24 0 0
BITMAP
001800
001800
001800
001800
001800
001800
001800
001800
001800
001800
001800
001800
001800
001800
001800
001800
001800
001800
001800
001800
001800
001800
001800
001800
ENDCHAR
STARTCHAR C2504
ENCODING 9476
SWIDTH 1000 0
DWIDTH 24 0
BBX 24 24 0 0
BITMAP
000000
000000
000000
000000
000000
000000
000000
000000
000000
000000
000000
3c3c3c
000000
000000
000000
000000
000000
000000
000000
000000
000000
000000
000000
000000
ENDCHAR
STARTCHAR C2505
ENCODING 9477
SWIDTH 1000 0
DWIDTH 24 0
BBX 24 24 0 0
BITMAP
000000
000000
000000
000000
000000
000000
000000
000000
000000
000000
000000
3c3c3c
3c3c3c
000000
000000
000000
000000
000000
000000
000000
000000
000000
000000
000000
ENDCHAR
STARTCHAR C2506
ENCODING 9478
SWIDTH 1000 0
DWIDTH 24 0
BBX 24 24 0 0
BITMAP
000000
000000
001000
001000
001000
001000
000000
000000
000000
000000
001000
001000
001000
001000
000000
000000
000000
000000
001000
001000
001000
001000
000000
000000
ENDCHAR
STARTCHAR C2507
ENCODING 9479
SWIDTH 1000 0
DWIDTH 24 0
BBX 24 24 0 0
BITMAP
000000
000000
001800
001800
001800
001800
000000
000000
000000
000000
001800
001800
001800
001800
000000
000000
000000
000000
001800
001800
001800
001800
000000
000000
ENDCHAR
STARTCHAR C2508
ENCODING 9480
SWIDTH 1000 0
DWIDTH 24 0
BBX 24 24 0 0
BITMAP
000000
000000
000000
000000
000000
000000
000000
000000
000000
000000
000000
79e79e
000000
000000
000000
000000
000000
000000
000000
000000
000000
000000
000000
000000
ENDCHAR
STARTCHAR C2509
ENCODING 9481
SWIDTH 1000 0
DWIDTH 24 0
BBX 24 24 0 0
BITMAP
000000
000000
000000
000000
000000
000000
000000
000000
000000
000000
000000
79e79e
79e79e
000000
000000
000000
000000
000000
000000
000000
000000
000000
000000
000000
ENDCHAR
STARTCHAR C250a
ENCODING 9482
SWIDTH 1000 0
DWIDTH 24 0
BBX 24 24 0 0
BITMAP
000000
001000
001000
001000
001000
000000
000000
001000
001000
001000
001000
000000
000000
001000
001000
001000
001000
000000
000000
001000
001000
001000
001000
000000
ENDCHAR
STARTCHAR C250b
ENCODING 9483
SWIDTH 1000 0
DWIDTH 24 0
BBX 24 24 0 0
BITMAP
000000
001800
001800
001800
001800
000000
000000
001800
001800
001800
001800
000000
000000
001800
001800
001800
001800
000000
000000
001800
001800
001800
001800
000000
ENDCHAR
STARTCHAR C250c
ENCODING 9484
SWIDTH 1000 0
DWIDTH 24 0
BBX 24 24 0 0
BITMAP
000000
000000
000000
000000
000000
000000
000000
000000
000000
000000
000000
001fff
001000
001000
001000
001000
001000
001000
001000
001000
001000
001000
001000
001000
ENDCHAR
STARTCHAR C250d
ENCODING 9485
SWIDTH 1000 0
DWIDTH 24 0
BBX 24 24 0 0
BITMAP
000000
000000
000000
000000
000000
000000
000000
000000
000000
000000
000000
001fff
001fff
001000
001000
001000
001000
001000
001000
001000
001000
001000
001000
001000
ENDCHAR
STARTCHAR C250e
ENCODING 9486
SWIDTH 1000 0
DWIDTH 24 0
BBX 24 24 0 0
BITMAP
000000
000000
000000
000000
000000
000000
000000
000000
000000
000000
000000
001fff
001800
001800
001800
001800
001800
001800
001800
001800
001800
001800
001800
001800
ENDCHAR
STARTCHAR C250f
ENCODING 9487
SWIDTH 1000 0
DWIDTH 24 0
BBX 24 24 0 0
BITMAP
000000
000000
000000
000000
000000
000000
000000
000000
000000
000000
000000
001fff
001fff
001800
001800
001800
001800
001800
001800
001800
001800
001800
001800
001800
ENDCHAR
STARTCHAR C2510
ENCODING 9488
SWIDTH 1000 0
DWIDTH 24 0
BBX 24 24 0 0
BITMAP
000000
000000
000000
000000
000000
000000
000000
000000
000000
000000
000000
fff000
001000
001000
001000
001000
001000
001000
001000
001000
001000
001000
001000
001000
ENDCHAR
STARTCHAR C2511
ENCODING 9489
SWIDTH 1000 0
DWIDTH 24 0
BBX 24 24 0 0
BITMAP
000000
000000
000000
000000
000000
000000
000000
000000
000000
000000
000000
fff000
fff000
001000
001000
001000
001000
001000
001000
001000
001000
001000
001000
001000
ENDCHAR
STARTCHAR C2512
ENCODING 9490
SWIDTH 1000 0
DWIDTH 24 0
BBX 24 24 0 0
BITMAP
000000
000000
000000
000000
000000
000000
000000
000000
000000
000000
000000
fff800
001800
001800
001800
001800
001800
001800
001800
001800
001800
001800
001800
001800
ENDCHAR
STARTCHAR C2513
ENCODING 9491
SWIDTH 1000 0
DWIDTH 24 0
BBX 24 24 0 0
BITMAP
000000
000000
000000
000000
000000
000000
000000
000000
000000
000000
000000
fff800
fff800
001800
001800
001800
001800
001800
001800
001800
001800
001800
001800
001800
ENDCHAR
STARTCHAR C2514
ENCODING 9492
SWIDTH 1000 0
DWIDTH 24 0
BBX 24 24 0 0
BITMAP
001000
001000
001000
001000
001000
001000
001000
001000
001000
001000
001000
001fff
000000
000000
000000
000000
000000
000000
000000
000000
000000
000000
000000
000000
ENDCHAR
STARTCHAR C2515
ENCODING 9493
SWIDTH 1000 0
DWIDTH 24 0
BBX 24 24 0 0
BITMAP
001000
001000
001000
001000
001000
001000
001000
001000
001000
001000
001000
001fff
001fff
000000
000000
000000
000000
000000
000000
000000
000000
000000
000000
000000
ENDCHAR
STARTCHAR C2516
ENCODING 9494
SWIDTH 1000 0
DWIDTH 24 0
BBX 24 24 0 0
BITMAP
001800
001800
001800
001800
001800
001800
001800
001800
001800
001800
001800
001fff
000000
000000
000000
000000
000000
000000
000000
000000
000000
000000
000000
000000
ENDCHAR
STARTCHAR C2517
ENCODING 9495
SWIDTH 1000 0
DWIDTH 24 0
BBX 24 24 0 0
BITMAP
001800
001800
001800
001800
001800
001800
001800
001800
001800
001800
001800
001fff
001fff
000000
000000
000000
000000
000000
000000
000000
000000
000000
000000
000000
ENDCHAR
STARTCHAR C2518
ENCODING 9496
SWIDTH 1000 0
DWIDTH 24 0
BBX 24 24 0 0
BITMAP
001000
001000
001000
001000
001000
001000
001000
001000
001000
001000
001000
fff000
000000
000000
000000
000000
000000
000000
000000
000000
000000
000000
000000
000000
ENDCHAR
STARTCHAR C2519
ENCODING 9497
SWIDTH 1000 0
DWIDTH 24 0
BBX 24 24 0 0
BITMAP
001000
001000
001000
001000
001000
001000
001000
001000
001000
001000
001000
fff000
fff000
000000
000000
000000
000000
000000
000000
000000
000000
000000
000000
000000
ENDCHAR
STARTCHAR C251a
ENCODING 9498
SWIDTH 1000 0
DWIDTH 24 0
BBX 24 24 0 0
BITMAP
001800
001800
001800
001800
001800
001800
001800
001800
001800
001800
001800
fff800
000000
000000
000000
000000
000000
000000
000000
000000
000000
000000
000000
000000
ENDCHAR
STARTCHAR C251b
ENCODING 9499
SWIDTH 1000 0
DWIDTH 24 0
BBX 24 24 0 0
BITMAP
001800
001800
001800
001800
001800
001800
001800
001800
001800
001800
001800
fff800
fff800
000000
000000
000000
000000
000000
000000
000000
000000
000000
000000
000000
ENDCHAR
STARTCHAR C251c
ENCODING 9500
SWIDTH 1000 0
DWIDTH 24 0
BBX 24 24 0 0
BITMAP
001000
001000
001000
001000
001000
001000
001000
001000
001000
001000
001000
001fff
001000
001000
001000
001000
001000
001000
001000
001000
001000
001000
001000
001000
ENDCHAR
STARTCHAR C251d
ENCODING 9501
SWIDTH 1000 0
DWIDTH 24 0
BBX 24 24 0 0
BITMAP
001000
001000
001000
001000
001000
001000
001000
001000
001000
001000
001000
001fff
001fff
001000
001000
001000
001000
001000
001000
001000
001000
001000
001000
001000
ENDCHAR
STARTCHAR C251e
ENCODING 9502
SWIDTH 1000 0
DWIDTH 24 0
BBX 24 24 0 0
BITMAP
001800
001800
001800
001800
001800
001800
001800
001800
001800
001800
001800
001fff
001000
001000
001000
001000
001000
001000
001000
001000
001000
001000
001000
001000
ENDCHAR
STARTCHAR C251f
ENCODING 9503
SWIDTH 1000 0
DWIDTH 24 0
BBX 24 24 0 0
BITMAP
001000
001000
001000
001000
001000
001000
001000
001000
001000
001000
001000
001fff
001800
001800
001800
001800
001800
001800
001800
001800
001800
001800
001800
001800
ENDCHAR
STARTCHAR C2520
ENCODING 9504
SWIDTH 1000 0
DWIDTH 24 0
BBX 24 24 0 0
BITMAP
001800
001800
001800
001800
001800
001800
001800
001800
001800
001800
001800
001fff
001800
001800
001800
001800
001800
001800
001800
001800
001800
001800
001800
001800
ENDCHAR
STARTCHAR C2521
ENCODING 9505
SWIDTH 1000 0
DWIDTH 24 0
BBX 24 24 0 0
BITMAP
001800
001800
001800
001800
001800
001800
001800
001800
001800
001800
001800
001fff
001fff
001000
001000
001000
001000
001000
001000
001000
001000
001000
001000
001000
ENDCHAR
STARTCHAR C2522
ENCODING 9506
SWIDTH 1000 0
DWIDTH 24 0
BBX 24 24 0 0
BITMAP
001000
001000
001000
001000
001000
001000
001000
001000
001000
001000
001000
001fff
001fff
001800
001800
001800
001800
001800
001800
001800
001800
001800
001800
001800
ENDCHAR
STARTCHAR C2523
ENCODING 9507
SWIDTH 1000 0
DWIDTH 24 0
BBX 24 24 0 0
BITMAP
001800
001800
001800
001800
001800
001800
001800
001800
001800
001800
001800
001fff
001fff
001800
001800
001800
001800
001800
001800
001800
001800
001800
001800
001800
ENDCHAR
STARTCHAR C2524
ENCODING 9508
SWIDTH 1000 0
DWIDTH 24 0
BBX 24 24 0 0
BITMAP
001000
001000
001000
001000
001000
001000
001000
001000
001000
001000
001000
fff000
001000
001000
001000
001000
001000
001000
001000
001000
001000
001000
001000
001000
ENDCHAR
STARTCHAR C2525
ENCODING 9509
SWIDTH 1000 0
DWIDTH 24 0
BBX 24 24 0 0
BITMAP
001000
001000
001000
001000
001000
001000
001000
001000
001000
001000
001000
fff000
fff000
001000
001000
001000
001000
001000
001000
001000
001000
001000
001000
001000
ENDCHAR
STARTCHAR C2526
ENCODING 9510
SWIDTH 1000 0
DWIDTH 24 0
BBX 24 24 0 0
BITMAP
001800
001800
001800
001800
001800
001800
001800
001800
001800
001800
001800
fff800
001000
001000
001000
001000
001000
001000
001000
001000
001000
001000
001000
001000
ENDCHAR
STARTCHAR C2527
ENCODING 9511
SWIDTH 1000 0
DWIDTH 24 0
BBX 24 24 0 0
BITMAP
001000
001000
001000
001000
001000
001000
001000
001000
001000
001000
001000
fff800
001800
001800
001800
001800
001800
001800
001800
001800
001800
001800
001800
001800
ENDCHAR
STARTCHAR C2528
ENCODING 9512
SWIDTH 1000 0
DWIDTH 24 0
BBX 24 24 0 0
BITMAP
001800
001800
001800
001800
001800
001800
001800
001800
001800
001800
001800
fff800
001800
001800
001800
001800
001800
001800
001800
001800
001800
001800
001800
001800
ENDCHAR
STARTCHAR C2529
ENCODING 9513
SWIDTH 1000 0
DWIDTH 24 0
BBX 24 24 0 0
BITMAP
001800
001800
001800
001800
001800
001800
001800
001800
001800
001800
001800
fff800
fff800
001000
001000
001000
001000
001000
001000
001000
001000
001000
001000
001000
ENDCHAR
STARTCHAR C252a
ENCODING 9514
SWIDTH 1000 0
DWIDTH 24 0
BBX 24 24 0 0
BITMAP
001000
001000
001000
001000
001000
001000
001000
001000
001000
001000
001000
fff800
fff800
001800
001800
001800
001800
001800
001800
001800
001800
001800
001800
001800
ENDCHAR
STARTCHAR C252b
ENCODING 9515
SWIDTH 1000 0
DWIDTH 24 0
BBX 24 24 0 0
BITMAP
001800
001800
001800
001800
001800
001800
001800
001800
001800
001800
001800
fff800
fff800
001800
001800
001800
001800
001800
001800
001800
001800
001800
001800
001800
ENDCHAR
STARTCHAR C252c
ENCODING 9516
SWIDTH 1000 0
DWIDTH 24 0
BBX 24 24 0 0
BITMAP
000000
000000
000000
000000
000000
000000
000000
000000
000000
000000
000000
ffffff
001000
001000
001000
001000
001000
001000
001000
001000
001000
001000
001000
001000
ENDCHAR
STARTCHAR C252d
ENCODING 9517
SWIDTH 1000 0
DWIDTH 24 0
BBX 24 24 0 0
BITMAP
000000
000000
000000
000000
000000
000000
000000
000000
000000
000000
000000
ffffff
fff000
001000
001000
001000
001000
001000
001000
001000
001000
001000
001000
001000
ENDCHAR
STARTCHAR C252e
ENCODING 9518
SWIDTH 1000 0
DWIDTH 24 0
BBX 24 24 0 0
BITMAP
000000
000000
000000
000000
000000
000000
000000
000000
000000
000000
000000
ffffff
001fff
001000
001000
001000
001000
001000
001000
001000
001000
001000
001000
001000
ENDCHAR
STARTCHAR C252f
ENCODING 9519
SWIDTH 1000 0
DWIDTH 24 0
BBX 24 24 0 0
BITMAP
000000
000000
000000
000000
000000
000000
000000
000000
000000
000000
000000
ffffff
ffffff
001000
001000
001000
001000
001000
001000
001000
001000
001000
001000
001000
ENDCHAR
STARTCHAR C2530
ENCODING 9520
SWIDTH 1000 0
DWIDTH 24 0
BBX 24 24 0 0
BITMAP
000000
000000
000000
000000
000000
000000
000000
000000
000000
000000
000000
ffffff
001800
001800
001800
001800
001800
001800
001800
001800
001800
001800
001800
001800
ENDCHAR
STARTCHAR C2531
ENCODING 9521
SWIDTH 1000 0
DWIDTH 24 0
BBX 24 24 0 0
BITMAP
000000
000000
000000
000000
000000
000000
000000
000000
000000
000000
000000
ffffff
fff800
001800
001800
001800
001800
001800
001800
001800
001800
001800
001800
001800
ENDCHAR
STARTCHAR C2532
ENCODING 9522
SWIDTH 1000 0
DWIDTH 24 0
BBX 24 24 0 0
BITMAP
000000
000000
000000
000000
000000
000000
000000
000000
000000
000000
000000
ffffff
001fff
001800
001800
001800
001800
001800
001800
001800
001800
001800
001800
001800
ENDCHAR
STARTCHAR C2533
ENCODING 9523
SWIDTH 1000 0
DWIDTH 24 0
BBX 24 24 0 0
BITMAP
000000
000000
000000
000000
000000
000000
000000
000000
000000
000000
000000
ffffff
ffffff
001800
001800
001800
001800
001800
001800
001800
001800
001800
001800
001800
ENDCHAR
STARTCHAR C2534
ENCODING 9524
SWIDTH 1000 0
DWIDTH 24 0
BBX 24 24 0 0
BITMAP
001000
001000
001000
001000
001000
001000
001000
001000
001000
001000
001000
ffffff
000000
000000
000000
000000
000000
000000
000000
000000
000000
000000
000000
000000
ENDCHAR
STARTCHAR C2535
ENCODING 9525
SWIDTH 1000 0
DWIDTH 24 0
BBX 24 24 0 0
BITMAP
001000
001000
001000
001000
001000
001000
001000
001000
001000
001000
001000
ffffff
fff000
000000
000000
000000
000000
000000
000000
000000
000000
000000
000000
000000
ENDCHAR
STARTCHAR C2536
ENCODING 9526
SWIDTH 1000 0
DWIDTH 24 0
BBX 24 24 0 0
BITMAP
001000
001000
001000
001000
001000
001000
001000
001000
001000
001000
001000
ffffff
001fff
000000
000000
000000
000000
000000
000000
000000
000000
000000
000000
000000
ENDCHAR
STARTCHAR C2537
ENCODING 9527
SWIDTH 1000 0
DWIDTH 24 0
BBX 24 24 0 0
BITMAP
001000
001000
001000
001000
001000
001000
001000
001000
001000
001000
001000
ffffff
ffffff
000000
000000
000000
000000
000000
000000
000000
000000
000000
000000
000000
ENDCHAR
STARTCHAR C2538
ENCODING 9528
SWIDTH 1000 0
DWIDTH 24 0
BBX 24 24 0 0
BITMAP
001800
001800
001800
001800
001800
001800
001800
001800
001800
001800
001800
ffffff
000000
000000
000000
000000
000000
000000
000000
000000
000000
000000
000000
000000
ENDCHAR
STARTCHAR C2539
ENCODING 9529
SWIDTH 1000 0
DWIDTH 24 0
BBX 24 24 0 0
BITMAP
001800
001800
001800
001800
001800
001800
001800
001800
001800
001800
001800
ffffff
fff800
000000
000000
000000
000000
000000
000000
000000
000000
000000
000000
000000
ENDCHAR
STARTCHAR C253a
ENCODING 9530
SWIDTH 1000 0
DWIDTH 24 0
BBX 24 24 0 0
BITMAP
001800
001800
001800
001800
001800
001800
001800
001800
001800
001800
001800
ffffff
001fff
000000
000000
000000
000000
000000
000000
000000
000000
000000
000000
000000
ENDCHAR
STARTCHAR C253b
ENCODING 9531
SWIDTH 1000 0
DWIDTH 24 0
BBX 24 24 0 0
BITMAP
001800
001800
001800
001800
001800
001800
001800
001800
001800
001800
001800
ffffff
ffffff
000000
000000
000000
000000
000000
000000
000000
000000
000000
000000
000000
ENDCHAR
STARTCHAR C253c
ENCODING 9532
SWIDTH 1000 0
DWIDTH 24 0
BBX 24 24 0 0
BITMAP
001000
001000
001000
001000
001000
001000
001000
001000
001000
001000
001000
ffffff
001000
001000
001000
001000
001000
001000
001000
001000
001000
001000
001000
001000
ENDCHAR
STARTCHAR C253d
ENCODING 9533
SWIDTH 1000 0
DWIDTH 24 0
BBX 24 24 0 0
BITMAP
001000
001000
001000
001000
001000
001000
001000
001000
001000
001000
001000
ffffff
fff000
001000
001000
001000
001000
001000
001000
001000
001000
001000
001000
001000
ENDCHAR
STARTCHAR C253e
ENCODING 9534
SWIDTH 1000 0
DWIDTH 24 0
BBX 24 24 0 0
BITMAP
001000
001000
001000
001000
001000
001000
001000
001000
001000
001000
001000
ffffff
001fff
001000
001000
001000
001000
001000
001000
001000
001000
001000
001000
001000
ENDCHAR
STARTCHAR C253f
ENCODING 9535
SWIDTH 1000 0
DWIDTH 24 0
BBX 24 24 0 0
BITMAP
001000
001000
001000
001000
001000
001000
001000
001000
001000
001000
001000
ffffff
ffffff
001000
001000
001000
001000
001000
001000
001000
001000
001000
001000
001000
ENDCHAR
STARTCHAR C2540
ENCODING 9536
SWIDTH 1000 0
DWIDTH 24 0
BBX 24 24 0 0
BITMAP
001800
001800
001800
001800
001800
001800
001800
001800
001800
001800
001800
ffffff
001000
001000
001000
001000
001000
001000
001000
001000
001000
001000
001000
001000
ENDCHAR
STARTCHAR C2541
ENCODING 9537
SWIDTH 1000 0
DWIDTH 24 0
BBX 24 24 0 0
BITMAP
001000
001000
001000
001000
001000
001000
001000
001000
001000
001000
001000
ffffff
001800
001800
001800
001800
001800
001800
001800
001800
001800
001800
001800
001800
ENDCHAR
STARTCHAR C2542
ENCODING 9538
SWIDTH 1000 0
DWIDTH 24 0
BBX 24 24 0 0
BITMAP
001800
001800
001800
001800
001800
001800
001800
001800
001800
001800
001800
ffffff
001800
001800
001800
001800
001800
001800
001800
001800
001800
001800
001800
001800
ENDCHAR
STARTCHAR C2543
ENCODING 9539
SWIDTH 1000 0
DWIDTH 24 0
BBX 24 24 0 0
BITMAP
001800
001800
001800
001800
001800
001800
001800
001800
001800
001800
001800
ffffff
fff000
001000
001000
001000
001000
001000
001000
001000
001000
001000
001000
001000
ENDCHAR
STARTCHAR C2544
ENCODING 9540
SWIDTH 1000 0
DWIDTH 24 0
BBX 24 24 0 0
BITMAP
001800
001800
001800
001800
001800
001800
001800
001800
001800
001800
001800
ffffff
001fff
001000
001000
001000
001000
001000
001000
001000
001000
001000
001000
001000
ENDCHAR
STARTCHAR C2545
ENCODING 9541
SWIDTH 1000 0
DWIDTH 24 0
BBX 24 24 0 0
BITMAP
001000
001000
001000
001000
001000
001000
001000
001000
001000
001000
001000
ffffff
fff800
001800
001800
001800
001800
001800
001800
001800
001800
001800
001800
001800
ENDCHAR
STARTCHAR C2546
ENCODING 9542
SWIDTH 1000 0
DWIDTH 24 0
BBX 24 24 0 0
BITMAP
001000
001000
001000
001000
001000
001000
001000
001000
001000
001000
001000
ffffff
001fff
001800
001800
001800
001800
001800
001800
001800
001800
001800
001800
001800
ENDCHAR
STARTCHAR C2547
ENCODING 9543
SWIDTH 1000 0
DWIDTH 24 0
BBX 24 24 0 0
BITMAP
001800
001800
001800
001800
001800
001800
001800
001800
001800
001800
001800
ffffff
ffffff
001000
001000
001000
001000
001000
001000
001000
001000
001000
001000
001000
ENDCHAR
STARTCHAR C2548
ENCODING 9544
SWIDTH 1000 0
DWIDTH 24 0
BBX 24 24 0 0
BITMAP
001000
001000
001000
001000
001000
001000
001000
001000
001000
001000
001000
ffffff
ffffff
001800
001800
001800
001800
001800
001800
001800
001800
001800
001800
001800
ENDCHAR
STARTCHAR C2549
ENCODING 9545
SWIDTH 1000 0
DWIDTH 24 0
BBX 24 24 0 0
BITMAP
001800
001800
001800
001800
001800
001800
001800
001800
001800
001800
001800
ffffff
fff800
001800
001800
001800
001800
001800
001800
001800
001800
001800
001800
001800
ENDCHAR
STARTCHAR C254a
ENCODING 9546
SWIDTH 1000 0
DWIDTH 24 0
BBX 24 24 0 0
BITMAP
001800
001800
001800
001800
001800
001800
001800
001800
001800
001800
001800
ffffff
001fff
001800
001800
001800
001800
001800
001800
001800
001800
001800
001800
001800
ENDCHAR
STARTCHAR C254b
ENCODING 9547
SWIDTH 1000 0
DWIDTH 24 0
BBX 24 24 0 0
BITMAP
001800
001800
001800
001800
001800
001800
001800
001800
001800
001800
001800
ffffff
ffffff
001800
001800
001800
001800
001800
001800
001800
001800
001800
001800
001800
ENDCHAR
STARTCHAR C25a0
ENCODING 9632
SWIDTH 1000 0
DWIDTH 24 0
BBX 24 24 0 0
BITMAP
000000
000000
3ffffc
3ffffc
3ffffc
3ffffc
3ffffc
3ffffc
3ffffc
3ffffc
3ffffc
3ffffc
3ffffc
3ffffc
3ffffc
3ffffc
3ffffc
3ffffc
3ffffc
3ffffc
3ffffc
3ffffc
000000
000000
ENDCHAR
STARTCHAR C25a1
ENCODING 9633
SWIDTH 1000 0
DWIDTH 24 0
BBX 24 24 0 0
BITMAP
000000
000000
3ffffc
200004
200004
200004
200004
200004
200004
200004
200004
200004
200004
200004
200004
200004
200004
200004
200004
200004
200004
3ffffc
000000
000000
ENDCHAR
STARTCHAR C25b2
ENCODING 9650
SWIDTH 1000 0
DWIDTH 24 0
BBX 24 24 0 0
BITMAP
000000
000000
001800
003c00
003c00
007e00
007e00
00ff00
00ff00
01ff80
01ff80
03ffc0
03ffc0
07ffe0
07ffe0
0ffff0
0ffff0
1ffff8
1ffff8
3ffffc
3ffffc
000000
000000
000000
ENDCHAR
STARTCHAR C25b3
ENCODING 9651
SWIDTH 1000 0
DWIDTH 24 0
BBX 24 24 0 0
BITMAP
000000
000000
001800
002400
002400
004200
004200
008100
008100
010080
010080
020040
020040
040020
040020
080010
080010
100008
100008
200004
3ffffc
000000
000000
000000
ENDCHAR
STARTCHAR C25c6
ENCODING 9670
SWIDTH 1000 0
DWIDTH 24 0
BBX 24 24 0 0
BITMAP
001000
003800
007c00
00fe00
01ff00
03ff80
07ffc0
0fffe0
1ffff0
3ffff8
7ffffc
fffffe
7ffffc
3ffff8
1ffff0
0fffe0
07ffc0
03ff80
01ff00
00fe00
007c00
003800
001000
000000
ENDCHAR
STARTCHAR C25c7
ENCODING 9671
SWIDTH 1000 0
DWIDTH 24 0
BBX 24 24 0 0
BITMAP
001000
002800
004400
008200
010100
020080
040040
080020
100010
200008
400004
800002
400004
200008
100010
080020
040040
020080
010100
008200
004400
002800
001000
000000
ENDCHAR
STARTCHAR C25cb
ENCODING 9675
SWIDTH 1000 0
DWIDTH 24 0
BBX 24 24 0 0
BITMAP
000000
000000
007e00
018180
060060
080010
080010
100008
100008
200004
200004
200004
200004
200004
200004
100008
100008
080010
080010
060060
018180
007e00
000000
000000
ENDCHAR
STARTCHAR C25ce
ENCODING 9678
SWIDTH 1000 0
DWIDTH 24 0
BBX 24 24 0 0
BITMAP
000000
000000
007e00
018180
060060
087e10
098190
120048
120048
240024
240024
240024
240024
240024
240024
120048
120048
098190
087e10
060060
018180
007e00
000000
000000
ENDCHAR
STARTCHAR C25cf
ENCODING 9679
SWIDTH 1000 0
DWIDTH 24 0
BBX 24 24 0 0
BITMAP
000000
000000
007e00
01ff80
07ffe0
0ffff0
0ffff0
1ffff8
1ffff8
3ffffc
3ffffc
3ffffc
3ffffc
3ffffc
3ffffc
1ffff8
1ffff8
0ffff0
0ffff0
07ffe0
01ff80
007e00
000000
000000
ENDCHAR
STARTCHAR C2605
ENCODING 9733
SWIDTH 1000 0
DWIDTH 24 0
BBX 24 24 0 0
BITMAP
000000
001000
001000
003800
003800
003800
007c00
007c00
007c00
fffffe
7ffffc
1ffff0
0fffe0
03ff80
01ff00
03ff80
03ff80
03ff80
07efc0
0783c0
0701c0
0c0060
080020
000000
ENDCHAR
STARTCHAR C2606
ENCODING 9734
SWIDTH 1000 0
DWIDTH 24 0
BBX 24 24 0 0
BITMAP
000000
001000
001000
002800
002800
002800
004400
004400
004400
ff83fe
60000c
100010
0c0060
020080
010100
020080
020080
021080
046c40
048240
0701c0
0c0060
080020
000000
ENDCHAR
STARTCHAR C2640
ENCODING 9792
SWIDTH 1000 0
DWIDTH 24 0
BBX 24 24 0 0
BITMAP
000000
000000
007c00
008200
010100
010100
010100
010100
010100
008200
007c00
001000
001000
001000
001000
0fffe0
001000
001000
001000
001000
001000
001000
001000
000000
ENDCHAR
STARTCHAR C2642
ENCODING 9794
SWIDTH 1000 0
DWIDTH 24 0
BBX 24 24 0 0
BITMAP
000000
001000
003800
005400
009200
011100
021080
001000
001000
001000
001000
001000
001000
007c00
008200
010100
010100
010100
010100
010100
008200
007c00
000000
000000
ENDCHAR
STARTCHAR C3000
ENCODING 12288
SWIDTH 1000 0
DWIDTH 24 0
BBX 24 24 0 0
BITMAP
000000
000000
000000
000000
000000
000000
000000
000000
000000
000000
000000
000000
000000
000000
000000
000000
000000
000000
000000
000000
000000
000000
000000
000000
ENDCHAR
STARTCHAR C3001
ENCODING 12289
SWIDTH 1000 0
DWIDTH 24 0
BBX 24 24 0 0
BITMAP
000000
000000
000000
000000
000000
000000
000000
000000
000000
000000
000000
000000
000000
000000
000000
100000
0c0000
070000
038000
018000
018000
000000
000000
000000
ENDCHAR
STARTCHAR C3002
ENCODING 12290
SWIDTH 1000 0
DWIDTH 24 0
BBX 24 24 0 0
BITMAP
000000
000000
000000
000000
000000
000000
000000
000000
000000
000000
000000
000000
000000
000000
070000
088000
104000
104000
104000
088000
070000
000000
000000
000000
ENDCHAR
STARTCHAR C3003
ENCODING 12291
SWIDTH 1000 0
DWIDTH 24 0
BBX 24 24 0 0
BITMAP
000000
000000
000000
000000
000000
000000
000000
000000
004100
00e380
00c300
018600
018600
030c00
030c00
061800
041000
000000
000000
000000
000000
000000
000000
000000
ENDCHAR
STARTCHAR C3005
ENCODING 12293
SWIDTH 1000 0
DWIDTH 24 0
BBX 24 24 0 0
BITMAP
000000
000000
000000
004000
007000
006000
00c000
00c0c0
01ffe0
0180c0
030180
020180
040300
080300
008600
006400
003800
001c00
000e00
000700
000300
000200
000000
000000
ENDCHAR
STARTCHAR C3008
ENCODING 12296
SWIDTH 1000 0
DWIDTH 24 0
BBX 24 24 0 0
BITMAP
000000
000010
000010
000020
000020
000040
000040
000080
000080
000100
000100
000200
000200
000100
000100
000080
000080
000040
000040
000020
000020
000010
000010
000000
ENDCHAR
STARTCHAR C3009
ENCODING 12297
SWIDTH 1000 0
DWIDTH 24 0
BBX 24 24 0 0
BITMAP
000000
080000
080000
040000
040000
020000
020000
010000
010000
008000
008000
004000
004000
008000
008000
010000
010000
020000
020000
040000
040000
080000
080000
000000
ENDCHAR
STARTCHAR C300a
ENCODING 12298
SWIDTH 1000 0
DWIDTH 24 0
BBX 24 24 0 0
BITMAP
000000
000012
000012
000024
000024
000048
000048
000090
000090
000120
000120
000240
000240
000120
000120
000090
000090
000048
000048
000024
000024
000012
000012
000000
ENDCHAR
STARTCHAR C300b
ENCODING 12299
SWIDTH 1000 0
DWIDTH 24 0
BBX 24 24 0 0
BITMAP
000000
480000
480000
240000
240000
120000
120000
090000
090000
048000
048000
024000
024000
048000
048000
090000
090000
120000
120000
240000
240000
480000
480000
000000
ENDCHAR
STARTCHAR C300c
ENCODING 12300
SWIDTH 1000 0
DWIDTH 24 0
BBX 24 24 0 0
BITMAP
000000
0001fc
000100
000100
000100
000100
000100
000100
000100
000100
000100
000100
000100
000100
000100
000100
000100
000100
000100
000100
000000
000000
000000
000000
ENDCHAR
STARTCHAR C300d
ENCODING 12301
SWIDTH 1000 0
DWIDTH 24 0
BBX 24 24 0 0
BITMAP
000000
000000
000000
000000
008000
008000
008000
008000
008000
008000
008000
008000
008000
008000
008000
008000
008000
008000
008000
008000
008000
008000
3f8000
000000
ENDCHAR
STARTCHAR C300e
ENCODING 12302
SWIDTH 1000 0
DWIDTH 24 0
BBX 24 24 0 0
BITMAP
000000
0003fc
000204
000204
00027c
000240
000240
000240
000240
000240
000240
000240
000240
000240
000240
000240
000240
000240
000240
0003c0
000000
000000
000000
000000
ENDCHAR
STARTCHAR C300f
ENCODING 12303
SWIDTH 1000 0
DWIDTH 24 0
BBX 24 24 0 0
BITMAP
000000
000000
000000
000000
03c000
024000
024000
024000
024000
024000
024000
024000
024000
024000
024000
024000
024000
024000
024000
3e4000
204000
204000
3fc000
000000
ENDCHAR
STARTCHAR C3010
ENCODING 12304
SWIDTH 1000 0
DWIDTH 24 0
BBX 24 24 0 0
BITMAP
000000
0003fc
0003f8
0003f0
0003f0
0003f0
0003e0
0003e0
0003e0
0003c0
0003c0
0003c0
0003c0
0003c0
0003c0
0003e0
0003e0
0003e0
0003f0
0003f0
0003f0
0003f8
0003fc
000000
ENDCHAR
STARTCHAR C3011
ENCODING 12305
SWIDTH 1000 0
DWIDTH 24 0
BBX 24 24 0 0
BITMAP
000000
1fe000
0fe000
07e000
07e000
07e000
03e000
03e000
03e000
01e000
01e000
01e000
01e000
01e000
01e000
03e000
03e000
03e000
07e000
07e000
07e000
0fe000
1fe000
000000
ENDCHAR
STARTCHAR C3013
ENCODING 12307
SWIDTH 1000 0
DWIDTH 24 0
BBX 24 24 0 0
BITMAP
000000
000000
3ffffc
3ffffc
3ffffc
3ffffc
3ffffc
3ffffc
3ffffc
000000
000000
000000
000000
000000
000000
3ffffc
3ffffc
3ffffc
3ffffc
3ffffc
3ffffc
3ffffc
000000
000000
ENDCHAR
STARTCHAR C3014
ENCODING 12308
SWIDTH 1000 0
DWIDTH 24 0
BBX 24 24 0 0
BITMAP
000000
000010
000020
000040
000080
000080
000080
000080
000080
000080
000080
000080
000080
000080
000080
000080
000080
000080
000080
000080
000040
000020
000010
000000
ENDCHAR
STARTCHAR C3015
ENCODING 12309
SWIDTH 1000 0
DWIDTH 24 0
BBX 24 24 0 0
BITMAP
000000
080000
040000
020000
010000
010000
010000
010000
010000
010000
010000
010000
010000
010000
010000
010000
010000
010000
010000
010000
020000
040000
080000
000000
ENDCHAR
STARTCHAR C3016
ENCODING 12310
SWIDTH 1000 0
DWIDTH 24 0
BBX 24 24 0 0
BITMAP
000000
0003fc
000208
000210
000210
000210
000220
000220
000220
000240
000240
000240
000240
000240
000240
000220
000220
000220
000210
000210
000210
000208
0003fc
000000
ENDCHAR
STARTCHAR C3017
ENCODING 12311
SWIDTH 1000 0
DWIDTH 24 0
BBX 24 24 0 0
BITMAP
000000
3fc000
104000
084000
084000
084000
044000
044000
044000
024000
024000
024000
024000
024000
024000
044000
044000
044000
084000
084000
084000
104000
3fc000
000000
ENDCHAR
STARTCHAR C3041
ENCODING 12353
SWIDTH 1000 0
DWIDTH 24 0
BBX 24 24 0 0
BITMAP
000000
000000
000000
00c000
006000
006000
006600
047f00
07e000
036400
006200
007e00
01e300
036580
0264c0
0468c0
0470c0
07e0c0
0360c0
002180
000300
000000
000000
000000
ENDCHAR
STARTCHAR C3042
ENCODING 12354
SWIDTH 1000 0
DWIDTH 24 0
BBX 24 24 0 0
BITMAP
000000
000000
006000
007000
003000
003080
006780
07ff00
036000
006000
006600
006600
00ff80
01e6e0
066460
0c6c30
0c7830
083030
086030
0fb060
0730c0
000380
000000
000000
ENDCHAR
STARTCHAR C3043
ENCODING 12355
SWIDTH 1000 0
DWIDTH 24 0
BBX 24 24 0 0
BITMAP
000000
000000
000000
000000
000000
000000
018000
00c100
00c080
0080c0
018060
010060
010830
019030
00b020
00e000
006000
000000
000000
000000
000000
000000
000000
000000
ENDCHAR
STARTCHAR C3044
ENCODING 12356
SWIDTH 1000 0
DWIDTH 24 0
BBX 24 24 0 0
BITMAP
000000
000000
000000
000000
000000
060000
030000
030100
0300c0
030060
020070
060030
040838
041018
063010
026000
036000
01c000
00c000
000000
000000
000000
000000
000000
ENDCHAR
STARTCHAR C3045
ENCODING 12357
SWIDTH 1000 0
DWIDTH 24 0
BBX 24 24 0 0
BITMAP
000000
000000
000000
000000
00e000
001000
001800
006000
000000
023c00
03e600
018300
000300
000300
000300
000600
000600
000c00
003000
00c000
000000
000000
000000
000000
ENDCHAR
STARTCHAR C3046
ENCODING 12358
SWIDTH 1000 0
DWIDTH 24 0
BBX 24 24 0 0
BITMAP
000000
000000
000000
00f000
003c00
001c00
003000
004000
041e00
03ff00
01e180
000180
000180
000180
000180
000300
000300
000600
000c00
003000
00c000
000000
000000
000000
ENDCHAR
STARTCHAR C3047
ENCODING 12359
SWIDTH 1000 0
DWIDTH 24 0
BBX 24 24 0 0
BITMAP
000000
000000
000000
004000
003c00
001c00
001000
002000
000e00
003e00
01ec00
00c800
001000
002000
004000
00f000
00d800
018c00
0307f0
0203f0
000000
000000
000000
000000
ENDCHAR
STARTCHAR C3048
ENCODING 12360
SWIDTH 1000 0
DWIDTH 24 0
BBX 24 24 0 0
BITMAP
000000
000000
00e000
007800
001800
003000
004000
000600
003f00
07e600
03cc00
001800
003000
006000
00c000
01f000
019800
030800
060c00
0607fc
0c03fc
000000
000000
000000
ENDCHAR
STARTCHAR C3049
ENCODING 12361
SWIDTH 1000 0
DWIDTH 24 0
BBX 24 24 0 0
BITMAP
000000
000000
000000
000000
00c180
0060c0
006060
007860
07fc80
03e000
006600
007980
00e0c0
016060
026060
066060
0768c0
04e700
006000
000000
000000
000000
000000
000000
ENDCHAR
STARTCHAR C304a
ENCODING 12362
SWIDTH 1000 0
DWIDTH 24 0
BBX 24 24 0 0
BITMAP
000000
000000
000000
010000
00c000
00c0c0
00c030
00f018
0ff818
07c020
00c700
00f8c0
00c060
00c030
03c030
06c030
0cd060
0cd0c0
02cf80
01c000
008000
000000
000000
000000
ENDCHAR
STARTCHAR C304b
ENCODING 12363
SWIDTH 1000 0
DWIDTH 24 0
BBX 24 24 0 0
BITMAP
000000
000000
000000
000000
007000
003000
003000
003000
006040
007c30
1fc630
0f8618
018618
010678
030c18
020c00
069800
0c7800
1c7000
182000
000000
000000
000000
000000
ENDCHAR
STARTCHAR C304c
ENCODING 12364
SWIDTH 1000 0
DWIDTH 24 0
BBX 24 24 0 0
BITMAP
000000
000000
000030
000018
0070cc
003864
003030
003010
006040
007c30
1fc630
0f8618
018618
010678
030c18
020c00
069800
0c7800
1c7000
182000
000000
000000
000000
000000
ENDCHAR
STARTCHAR C304d
ENCODING 12365
SWIDTH 1000 0
DWIDTH 24 0
BBX 24 24 0 0
BITMAP
000000
000000
00c000
01e000
006300
003f80
03f000
01d800
000c60
0007f0
001f00
03ff00
01e180
000180
0000c0
001fc0
0603c0
0600c0
030000
03fe00
01fe00
000000
000000
000000
ENDCHAR
STARTCHAR C304e
ENCODING 12366
SWIDTH 1000 0
DWIDTH 24 0
BBX 24 24 0 0
BITMAP
000000
000000
01800c
03c066
00c636
007f34
07e020
03b000
0018c0
000fe0
003e00
07fe00
03c300
000300
000180
003f80
0c0780
0c0180
060000
07fc00
03fc00
000000
000000
000000
ENDCHAR
STARTCHAR C304f
ENCODING 12367
SWIDTH 1000 0
DWIDTH 24 0
BBX 24 24 0 0
BITMAP
000000
000000
000c00
000600
000700
000e00
001c00
001800
003000
006000
004000
00c000
008000
00c000
006000
003000
001800
001c00
000e00
000700
000300
000000
000000
000000
ENDCHAR
STARTCHAR C3050
ENCODING 12368
SWIDTH 1000 0
DWIDTH 24 0
BBX 24 24 0 0
BITMAP
000000
000000
001860
000c30
000e18
001c10
0038c0
003060
006030
00c020
008000
018000
010000
018000
00c000
006000
003000
003800
001c00
000e00
000600
000000
000000
000000
ENDCHAR
STARTCHAR C3051
ENCODING 12369
SWIDTH 1000 0
DWIDTH 24 0
BBX 24 24 0 0
BITMAP
000000
000000
000300
060180
030180
030180
030180
0601f8
061ffc
040f80
040180
040180
048180
048180
058180
058180
078180
038300
030300
000600
000c00
001000
000000
000000
ENDCHAR
STARTCHAR C3052
ENCODING 12370
SWIDTH 1000 0
DWIDTH 24 0
BBX 24 24 0 0
BITMAP
000000
000038
00060c
0c0364
060330
070310
060300
0603f0
043ff8
0c1f00
080300
080300
090300
090300
0b0300
0b0300
0f0300
060600
060600
000c00
001800
002000
000000
000000
ENDCHAR
STARTCHAR C3053
ENCODING 12371
SWIDTH 1000 0
DWIDTH 24 0
BBX 24 24 0 0
BITMAP
000000
000000
000000
000000
002000
003fe0
0019e0
000380
000400
000000
000000
000000
004000
008000
008000
008000
008000
0070f0
003ff0
000fc0
000000
000000
000000
000000
ENDCHAR
STARTCHAR C3054
ENCODING 12372
SWIDTH 1000 0
DWIDTH 24 0
BBX 24 24 0 0
BITMAP
000000
000000
000000
00000c
010066
01ff32
00cf10
001c00
002000
000000
000000
000000
020000
040000
040000
040000
040000
038780
01ff80
007e00
000000
000000
000000
000000
ENDCHAR
STARTCHAR C3055
ENCODING 12373
SWIDTH 1000 0
DWIDTH 24 0
BBX 24 24 0 0
BITMAP
000000
000000
000000
007000
003800
0018c0
001bc0
001f00
0ffc00
07e600
000600
000300
000300
000180
003f80
0c07c0
0c00c0
0c0000
060000
07fc00
03fc00
000000
000000
000000
ENDCHAR
STARTCHAR C3056
ENCODING 12374
SWIDTH 1000 0
DWIDTH 24 0
BBX 24 24 0 0
BITMAP
000000
000018
00000c
00e066
007032
003198
003790
003e00
1ff800
0fcc00
000c00
000600
000600
000300
007f00
180f80
180180
180000
0c0000
0ff800
07f800
000000
000000
000000
ENDCHAR
STARTCHAR C3057
ENCODING 12375
SWIDTH 1000 0
DWIDTH 24 0
BBX 24 24 0 0
BITMAP
000000
000000
000000
000000
018000
00e000
00c000
00c000
00c000
00c000
00c000
00c000
00c000
008000
008020
008060
0081c0
008380
00fe00
007c00
000000
000000
000000
000000
ENDCHAR
STARTCHAR C3058
ENCODING 12376
SWIDTH 1000 0
DWIDTH 24 0
BBX 24 24 0 0
BITMAP
000000
000000
000000
000100
030180
0188c0
01ccc0
018600
018600
018000
010000
010000
010000
010000
010020
0100c0
010380
010700
01fc00
00f800
000000
000000
000000
000000
ENDCHAR
STARTCHAR C3059
ENCODING 12377
SWIDTH 1000 0
DWIDTH 24 0
BBX 24 24 0 0
BITMAP
000000
000000
001800
000e00
000c00
000c00
000ff0
18fff8
0ffc00
070c00
000c00
003c00
004c00
008600
008600
007e00
003c00
000800
001800
003000
006000
00c000
010000
000000
ENDCHAR
STARTCHAR C305a
ENCODING 12378
SWIDTH 1000 0
DWIDTH 24 0
BBX 24 24 0 0
BITMAP
000000
00001c
003006
001c72
001818
001808
001bc0
18ffe0
0fd800
061800
001800
007800
009800
010c00
010c00
00fc00
006c00
000800
001000
003000
006000
018000
000000
000000
ENDCHAR
STARTCHAR C305b
ENCODING 12379
SWIDTH 1000 0
DWIDTH 24 0
BBX 24 24 0 0
BITMAP
000000
000000
000000
000380
0001c0
018180
03c180
00c180
00cff8
00fffc
1ff180
0fc180
00c180
00cd80
00c780
00c300
00c000
00e000
007ff0
003ff0
000000
000000
000000
000000
ENDCHAR
STARTCHAR C305c
ENCODING 12380
SWIDTH 1000 0
DWIDTH 24 0
BBX 24 24 0 0
BITMAP
000000
000038
00000c
000264
000330
018190
03c180
00c180
00c180
00cff0
00fff8
1ff180
0fc180
00c180
00cd80
004780
004300
006000
003000
001ff0
000ff0
000000
000000
000000
ENDCHAR
STARTCHAR C305d
ENCODING 12381
SWIDTH 1000 0
DWIDTH 24 0
BBX 24 24 0 0
BITMAP
000000
000000
000000
001c00
042600
07c600
038e00
001800
003000
004000
018000
020380
047fc0
0ffc00
0e1000
002000
004000
004000
004000
003000
003f00
001f00
000000
000000
ENDCHAR
STARTCHAR C305e
ENCODING 12382
SWIDTH 1000 0
DWIDTH 24 0
BBX 24 24 0 0
BITMAP
000000
000000
000000
007870
08cc18
0f8dc8
071c60
003020
006000
008000
030000
040700
08ff80
1ff800
1c2000
004000
008000
008000
008000
006000
007e00
003e00
000000
000000
ENDCHAR
STARTCHAR C305f
ENCODING 12383
SWIDTH 1000 0
DWIDTH 24 0
BBX 24 24 0 0
BITMAP
000000
000000
000000
00e000
007000
006000
006000
007c00
1ff9e0
0fc078
00c038
0180c0
018000
010000
030000
022000
063000
063000
0e1ff8
0c0ff8
0c0000
000000
000000
000000
ENDCHAR
STARTCHAR C3060
ENCODING 12384
SWIDTH 1000 0
DWIDTH 24 0
BBX 24 24 0 0
BITMAP
000000
000000
000038
00e00c
006004
0060e0
006030
007c10
1ff800
0fc3c0
00c0f0
018070
018180
010000
030000
022000
063000
063000
0e1ff8
0c0ff8
0c0000
000000
000000
000000
ENDCHAR
STARTCHAR C3061
ENCODING 12385
SWIDTH 1000 0
DWIDTH 24 0
BBX 24 24 0 0
BITMAP
000000
000000
018000
00c000
00c000
00de00
00ff00
1fc000
0ec000
00c000
00c000
018000
018f80
01b8c0
036060
03c060
038060
030060
000040
0000c0
000180
000700
001800
000000
ENDCHAR
STARTCHAR C3062
ENCODING 12386
SWIDTH 1000 0
DWIDTH 24 0
BBX 24 24 0 0
BITMAP
000000
000000
018038
00c00c
00c0e4
00de30
00ff10
1fc000
0ec000
00c000
00c000
0187c0
019c60
01b030
036030
03c030
038030
030060
0000c0
000180
000700
001800
000000
000000
ENDCHAR
STARTCHAR C3063
ENCODING 12387
SWIDTH 1000 0
DWIDTH 24 0
BBX 24 24 0 0
BITMAP
000000
000000
000000
000000
000000
000000
000000
000f00
007980
07c0c0
030060
000060
000060
000060
0000c0
000180
000600
001800
000000
000000
000000
000000
000000
000000
ENDCHAR
STARTCHAR C3064
ENCODING 12388
SWIDTH 1000 0
DWIDTH 24 0
BBX 24 24 0 0
BITMAP
000000
000000
000000
000000
000000
000000
001f00
00f180
1380c0
1e0060
0c0060
000060
000060
000060
0000c0
000180
000300
000c00
003000
000000
000000
000000
000000
000000
ENDCHAR
STARTCHAR C3065
ENCODING 12389
SWIDTH 1000 0
DWIDTH 24 0
BBX 24 24 0 0
BITMAP
000000
000000
000038
00000c
000004
000070
000018
001f88
00f0c0
138060
1e0030
0c0030
000030
000030
000030
000060
0000c0
000180
000600
001800
000000
000000
000000
000000
ENDCHAR
STARTCHAR C3066
ENCODING 12390
SWIDTH 1000 0
DWIDTH 24 0
BBX 24 24 0 0
BITMAP
000000
000000
000000
000000
000070
0007f8
11ff80
0ff800
061000
001000
002000
002000
002000
002000
003000
001000
001800
000fe0
0007e0
000000
000000
000000
000000
000000
ENDCHAR
STARTCHAR C3067
ENCODING 12391
SWIDTH 1000 0
DWIDTH 24 0
BBX 24 24 0 0
BITMAP
000000
000000
000000
000000
0001f0
000ff8
03fe00
1ff800
0c1040
002030
002018
004108
0040c0
004060
004020
006000
002000
003000
001fc0
000fc0
000000
000000
000000
000000
ENDCHAR
STARTCHAR C3068
ENCODING 12392
SWIDTH 1000 0
DWIDTH 24 0
BBX 24 24 0 0
BITMAP
000000
000000
000000
003000
001800
001800
001800
001800
001880
001860
001be0
003f80
006000
00c000
008000
010000
010000
018000
00ffc0
007fc0
000000
000000
000000
000000
ENDCHAR
STARTCHAR C3069
ENCODING 12393
SWIDTH 1000 0
DWIDTH 24 0
BBX 24 24 0 0
BITMAP
000000
000000
000000
006070
003018
0031c8
003060
003020
003100
0030c0
0037c0
003f00
00c000
018000
010000
020000
020000
030000
01ff80
00ff80
000000
000000
000000
000000
ENDCHAR
STARTCHAR C306a
ENCODING 12394
SWIDTH 1000 0
DWIDTH 24 0
BBX 24 24 0 0
BITMAP
000000
000000
000000
01c000
00c000
00c000
00d800
00fc80
0fe060
078070
0181f0
030810
020c00
060c00
0c0c00
0c7c00
00ff00
018fc0
0188e0
00f000
000000
000000
000000
000000
ENDCHAR
STARTCHAR C306b
ENCODING 12395
SWIDTH 1000 0
DWIDTH 24 0
BBX 24 24 0 0
BITMAP
000000
000000
000000
000000
060000
0381e0
0307f0
031870
0300e0
060180
060200
060000
044000
044000
048800
049800
069800
068ff8
0387f8
018000
000000
000000
000000
000000
ENDCHAR
STARTCHAR C306c
ENCODING 12396
SWIDTH 1000 0
DWIDTH 24 0
BBX 24 24 0 0
BITMAP
000000
000000
000000
000000
00c000
006000
106700
0c78c0
0c6040
0ce060
056060
066060
046060
0ec060
0ac060
0b83e0
118de0
19c8f0
1ec998
0c0618
000000
000000
000000
000000
ENDCHAR
STARTCHAR C306d
ENCODING 12397
SWIDTH 1000 0
DWIDTH 24 0
BBX 24 24 0 0
BITMAP
000000
000000
000000
030000
01c000
018000
018000
018f00
1ff180
0de080
01c0c0
01c0c0
0180c0
0380c0
0780c0
0d80c0
0d80c0
198fe0
1f91b8
0b9118
018e00
000000
000000
000000
ENDCHAR
STARTCHAR C306e
ENCODING 12398
SWIDTH 1000 0
DWIDTH 24 0
BBX 24 24 0 0
BITMAP
000000
000000
000000
000000
000000
003e00
00cdc0
038ce0
060c70
061838
0c1818
0c1818
0c3018
0c3018
0c6030
0cc030
078060
0300c0
000380
000e00
000000
000000
000000
000000
ENDCHAR
STARTCHAR C306f
ENCODING 12399
SWIDTH 1000 0
DWIDTH 24 0
BBX 24 24 0 0
BITMAP
000000
000000
000600
060380
030300
030300
030310
0343f0
033fe0
061f80
060180
060180
040180
048180
050180
050180
071fc0
0721f0
032338
031e08
000000
000000
000000
000000
ENDCHAR
STARTCHAR C3070
ENCODING 12400
SWIDTH 1000 0
DWIDTH 24 0
BBX 24 24 0 0
BITMAP
000000
000000
00001c
0c0c06
060732
060618
060608
0607e0
06ffe0
0c7f00
0c0300
0c0300
080300
090300
0a0300
0a0300
0e3f80
0e43e0
064670
063c10
000000
000000
000000
000000
ENDCHAR
STARTCHAR C3071
ENCODING 12401
SWIDTH 1000 0
DWIDTH 24 0
BBX 24 24 0 0
BITMAP
000000
000000
000000
0c0c18
040624
060624
060618
0687c0
067fc0
0c3f00
0c0300
0c0300
080300
090300
0a0300
0a0300
0e3f80
0e43e0
064670
063c10
000000
000000
000000
000000
ENDCHAR
STARTCHAR C3072
ENCODING 12402
SWIDTH 1000 0
DWIDTH 24 0
BBX 24 24 0 0
BITMAP
000000
000000
000000
000000
00c0c0
03e0c0
1fc0c0
0c80e0
0180b0
030098
03009c
06018c
060180
060180
060300
060300
060600
030e00
03fc00
01f000
000000
000000
000000
000000
ENDCHAR
STARTCHAR C3073
ENCODING 12403
SWIDTH 1000 0
DWIDTH 24 0
BBX 24 24 0 0
BITMAP
000000
000038
00000c
000004
0181b0
07c198
3f8188
1901c0
030160
020130
060138
0c0318
0c0300
0c0300
0c0600
0c0600
0c0c00
061c00
07f800
03e000
000000
000000
000000
000000
ENDCHAR
STARTCHAR C3074
ENCODING 12404
SWIDTH 1000 0
DWIDTH 24 0
BBX 24 24 0 0
BITMAP
000000
000018
000024
000024
018198
07c180
3f8180
1901c0
030160
020130
060138
0c0318
0c0300
0c0300
0c0600
0c0600
0c0c00
061c00
07f800
03e000
000000
000000
000000
000000
ENDCHAR
STARTCHAR C3075
ENCODING 12405
SWIDTH 1000 0
DWIDTH 24 0
BBX 24 24 0 0
BITMAP
000000
000000
000000
003000
001800
000c00
000c00
001800
003000
006000
006000
003000
001f00
0038e0
00cc30
210618
360678
3f0618
0efc00
003800
000000
000000
000000
000000
ENDCHAR
STARTCHAR C3076
ENCODING 12406
SWIDTH 1000 0
DWIDTH 24 0
BBX 24 24 0 0
BITMAP
000000
000000
0000e0
006030
003010
0019c0
001860
003020
006000
00c000
00c000
006000
003e00
0071c0
009860
010c30
360cf0
3f0c30
1cf800
000000
000000
000000
000000
000000
ENDCHAR
STARTCHAR C3077
ENCODING 12407
SWIDTH 1000 0
DWIDTH 24 0
BBX 24 24 0 0
BITMAP
000000
000000
000000
000060
007090
001890
001860
002000
004000
008000
00c000
006000
003e00
0071c0
009860
010c30
360cf0
3f0c30
1cf800
007000
000000
000000
000000
000000
ENDCHAR
STARTCHAR C3078
ENCODING 12408
SWIDTH 1000 0
DWIDTH 24 0
BBX 24 24 0 0
BITMAP
000000
000000
000000
000000
000000
000000
000000
018000
03c000
067000
0c1c00
3c0f00
1803f0
0000fc
00001c
000000
000000
000000
000000
000000
000000
000000
000000
000000
ENDCHAR
STARTCHAR C3079
ENCODING 12409
SWIDTH 1000 0
DWIDTH 24 0
BBX 24 24 0 0
BITMAP
000000
000000
000000
000000
0000e0
000030
000390
0000c0
018040
03c000
067000
0c1c00
3c0f00
1803f0
0000fc
00001c
000000
000000
000000
000000
000000
000000
000000
000000
ENDCHAR
STARTCHAR C307a
ENCODING 12410
SWIDTH 1000 0
DWIDTH 24 0
BBX 24 24 0 0
BITMAP
000000
000000
000000
000000
000030
000048
000048
000030
018000
03c000
067000
0c1c00
3c0f00
1803f0
0000fc
00001c
000000
000000
000000
000000
000000
000000
000000
000000
ENDCHAR
STARTCHAR C307b
ENCODING 12411
SWIDTH 1000 0
DWIDTH 24 0
BBX 24 24 0 0
BITMAP
000000
000000
000000
0600c0
033fe0
031f00
030300
030300
0703f0
067ff0
063f00
060300
040300
048300
050300
050300
073f80
0743e0
034670
033c10
010000
000000
000000
000000
ENDCHAR
STARTCHAR C307c
ENCODING 12412
SWIDTH 1000 0
DWIDTH 24 0
BBX 24 24 0 0
BITMAP
000000
00001c
000006
0c0032
060198
067fc8
063e00
060600
0c0600
0c07f0
0cfff0
0c7f00
080300
080300
090300
0a0300
0a0300
0e3f80
0e43e0
064670
063c10
020000
000000
000000
ENDCHAR
STARTCHAR C307d
ENCODING 12413
SWIDTH 1000 0
DWIDTH 24 0
BBX 24 24 0 0
BITMAP
000000
000000
000018
0c0024
060324
067f98
063e00
060600
0c0600
0c07e0
0cffe0
0c7f00
080700
080300
090300
0a0300
0a0300
0e3fc0
0e43e0
064670
063c10
020000
000000
000000
ENDCHAR
STARTCHAR C307e
ENCODING 12414
SWIDTH 1000 0
DWIDTH 24 0
BBX 24 24 0 0
BITMAP
000000
000000
001c00
000e00
000600
000618
0807fc
0fffe0
07fe00
000600
0007f0
01ffe0
00fe00
000600
000600
000600
00fe00
01ff80
0307e0
030e78
019818
00f000
000000
000000
ENDCHAR
STARTCHAR C307f
ENCODING 12415
SWIDTH 1000 0
DWIDTH 24 0
BBX 24 24 0 0
BITMAP
000000
000000
000000
021800
03fc00
01fc00
001800
001800
0018c0
0030c0
003cc0
01ff80
0761c0
0c63e0
18c330
198618
1f060c
0c0c00
001800
001000
002000
004000
000000
000000
ENDCHAR
STARTCHAR C3080
ENCODING 12416
SWIDTH 1000 0
DWIDTH 24 0
BBX 24 24 0 0
BITMAP
000000
000000
000000
018000
00c000
00cc00
10fc00
1ff830
0fc018
00c00c
00c006
07c01e
0cc004
0cc020
0cc020
07c030
018030
018030
018070
01fff0
00ffc0
000000
000000
000000
ENDCHAR
STARTCHAR C3081
ENCODING 12417
SWIDTH 1000 0
DWIDTH 24 0
BBX 24 24 0 0
BITMAP
000000
000000
000000
000c00
000600
030600
018600
019f00
01edc0
038c60
068830
0cd818
0cd018
187018
187018
18d818
1d8830
0f0030
060060
0000c0
000300
000000
000000
000000
ENDCHAR
STARTCHAR C3082
ENCODING 12418
SWIDTH 1000 0
DWIDTH 24 0
BBX 24 24 0 0
BITMAP
000000
000000
003000
001800
001800
001800
021f00
03ff00
01f000
003000
003040
003030
003030
083f18
0fff18
07e018
006018
006018
006018
006018
003030
003ff0
001fe0
000000
ENDCHAR
STARTCHAR C3083
ENCODING 12419
SWIDTH 1000 0
DWIDTH 24 0
BBX 24 24 0 0
BITMAP
000000
000000
000000
000000
001c00
000600
00c600
013c00
018000
008780
00dc60
08f030
0fe030
0631e0
0018c0
000c00
000c00
000600
000600
000300
000000
000000
000000
000000
ENDCHAR
STARTCHAR C3084
ENCODING 12420
SWIDTH 1000 0
DWIDTH 24 0
BBX 24 24 0 0
BITMAP
000000
000000
000000
003800
001c00
018e00
03fc00
030000
0307f0
019c18
00f018
1bc018
0f6018
0063f0
0031e0
001800
001800
000c00
000c00
000600
000600
000000
000000
000000
ENDCHAR
STARTCHAR C3085
ENCODING 12421
SWIDTH 1000 0
DWIDTH 24 0
BBX 24 24 0 0
BITMAP
000000
000000
000000
001c00
000e00
060600
030600
030f80
0336c0
062660
066660
04c660
058660
050660
070660
0626c0
021c80
000f00
001800
003000
00c000
000000
000000
000000
ENDCHAR
STARTCHAR C3086
ENCODING 12422
SWIDTH 1000 0
DWIDTH 24 0
BBX 24 24 0 0
BITMAP
000000
000000
001c00
0c0e00
0c0600
0c0780
0c0fe0
0c3e30
186630
184630
18c630
198630
190630
1b0660
0e6460
0e3fc0
060f00
001800
003000
006000
018000
000000
000000
000000
ENDCHAR
STARTCHAR C3087
ENCODING 12423
SWIDTH 1000 0
DWIDTH 24 0
BBX 24 24 0 0
BITMAP
000000
000000
000000
000000
000000
003000
001c00
001800
0019c0
001fe0
001800
001800
001800
001800
01f800
03fe00
061f80
0619c0
073060
03e020
00c000
000000
000000
000000
ENDCHAR
STARTCHAR C3088
ENCODING 12424
SWIDTH 1000 0
DWIDTH 24 0
BBX 24 24 0 0
BITMAP
000000
000000
000000
003000
001c00
001c00
001800
001ce0
001ff0
001800
001800
001800
001800
001800
001800
03f800
07ff00
0c1fc0
0c18e0
0c3030
07e010
03c000
000000
000000
ENDCHAR
STARTCHAR C3089
ENCODING 12425
SWIDTH 1000 0
DWIDTH 24 0
BBX 24 24 0 0
BITMAP
000000
000000
018000
00e000
007000
006000
008000
030000
030000
030000
030000
030000
063f00
067180
06c0c0
0780c0
0700c0
0300c0
000180
000700
001c00
000000
000000
000000
ENDCHAR
STARTCHAR C308a
ENCODING 12426
SWIDTH 1000 0
DWIDTH 24 0
BBX 24 24 0 0
BITMAP
000000
000000
030000
018000
018e00
019f00
01b180
01a180
036180
034180
03c180
038180
018180
008300
000300
000600
000600
000c00
000c00
001800
003000
00c000
000000
000000
ENDCHAR
STARTCHAR C308b
ENCODING 12427
SWIDTH 1000 0
DWIDTH 24 0
BBX 24 24 0 0
BITMAP
000000
000000
000000
000700
001f80
00f300
006600
000c00
000c00
001800
003380
006ce0
00f070
00c030
018030
038030
030e30
001160
0011e0
001380
000e00
000000
000000
000000
ENDCHAR
STARTCHAR C308c
ENCODING 12428
SWIDTH 1000 0
DWIDTH 24 0
BBX 24 24 0 0
BITMAP
000000
000000
000000
030000
01c000
018000
018700
01df80
1fb180
0fe180
01c180
038180
078300
0d8300
0d8300
198300
318304
398188
3781f8
03c0e0
018000
000000
000000
000000
ENDCHAR
STARTCHAR C308d
ENCODING 12429
SWIDTH 1000 0
DWIDTH 24 0
BBX 24 24 0 0
BITMAP
000000
000000
000700
003f80
01fb00
01c700
000600
000c00
001800
003700
007f80
0060c0
00c060
018060
030060
070060
060060
0000c0
000180
000f00
003800
000000
000000
000000
ENDCHAR
STARTCHAR C308e
ENCODING 12430
SWIDTH 1000 0
DWIDTH 24 0
BBX 24 24 0 0
BITMAP
000000
000000
000000
000000
000000
00c000
006000
006000
007800
00f300
07edc0
037060
006060
00e060
016060
0360c0
0660c0
0e6180
01e600
004000
000000
000000
000000
000000
ENDCHAR
STARTCHAR C308f
ENCODING 12431
SWIDTH 1000 0
DWIDTH 24 0
BBX 24 24 0 0
BITMAP
000000
000000
000000
000000
01c000
00e000
00c000
00f000
01e3c0
1fcfe0
0ef030
00e018
01c018
01c018
03c018
06c030
0cc030
0cc060
1bc0c0
19c300
008000
000000
000000
000000
ENDCHAR
STARTCHAR C3090
ENCODING 12432
SWIDTH 1000 0
DWIDTH 24 0
BBX 24 24 0 0
BITMAP
000000
000000
000000
000000
007000
03f800
01d800
001800
001800
003f80
0070c0
01b060
033030
046030
0c6030
0cc630
0ccf30
0791b0
0791e0
031fc0
000f00
000000
000000
000000
ENDCHAR
STARTCHAR C3091
ENCODING 12433
SWIDTH 1000 0
DWIDTH 24 0
BBX 24 24 0 0
BITMAP
000000
000000
000000
003c00
03fe00
01cc00
001800
003000
00ff00
018180
030180
067180
0c9380
005700
00fc00
010000
0783c0
0ec7e0
1c6c30
183818
0830f8
000030
000000
000000
ENDCHAR
STARTCHAR C3092
ENCODING 12434
SWIDTH 1000 0
DWIDTH 24 0
BBX 24 24 0 0
BITMAP
000000
000000
006000
003000
003300
003f00
07fc00
03e040
00c060
00c030
01f070
0318e0
061bc0
0c1f00
0c7c00
01f800
039800
031800
031800
038000
01ffc0
00ffc0
000000
000000
ENDCHAR
STARTCHAR C3093
ENCODING 12435
SWIDTH 1000 0
DWIDTH 24 0
BBX 24 24 0 0
BITMAP
000000
000000
000000
00e000
007000
007000
006000
006000
00c000
00c000
018000
019c00
03e600
038604
07060c
060618
0e0618
0c0730
1c03e0
1801c0
000000
000000
000000
000000
ENDCHAR
STARTCHAR C30a1
ENCODING 12449
SWIDTH 1000 0
DWIDTH 24 0
BBX 24 24 0 0
BITMAP
000000
000000
000000
000000
000000
000000
000000
07ff80
07ffc0
020180
000300
000600
003c00
001800
001800
001800
003000
003000
006000
004000
008000
010000
000000
000000
ENDCHAR
STARTCHAR C30a2
ENCODING 12450
SWIDTH 1000 0
DWIDTH 24 0
BBX 24 24 0 0
BITMAP
000000
000000
000000
0007c0
10ffe0
0ff8e0
0700c0
000180
002300
001c00
001800
001800
001800
003000
003000
006000
006000
00c000
018000
010000
020000
000000
000000
000000
ENDCHAR
STARTCHAR C30a3
ENCODING 12451
SWIDTH 1000 0
DWIDTH 24 0
BBX 24 24 0 0
BITMAP
000000
000000
000000
000000
000000
000000
000600
000700
000e00
000c00
001800
001800
003c00
007800
00d800
019800
031800
041800
001800
001800
001800
001800
000000
000000
ENDCHAR
STARTCHAR C30a4
ENCODING 12452
SWIDTH 1000 0
DWIDTH 24 0
BBX 24 24 0 0
BITMAP
000000
000000
000600
000700
000700
000e00
000c00
001800
003800
007800
00dc00
019800
031800
061800
081800
001800
001800
001800
001800
001800
001800
000800
000000
000000
ENDCHAR
STARTCHAR C30a5
ENCODING 12453
SWIDTH 1000 0
DWIDTH 24 0
BBX 24 24 0 0
BITMAP
000000
000000
000000
000000
000000
000000
003800
001c00
001800
001980
011fc0
01f980
01e180
018180
018180
000300
000300
000600
000600
000c00
001800
002000
004000
000000
ENDCHAR
STARTCHAR C30a6
ENCODING 12454
SWIDTH 1000 0
DWIDTH 24 0
BBX 24 24 0 0
BITMAP
000000
000800
001e00
000c00
000c00
000c40
010df0
01ff60
01f060
018060
018060
018060
018060
0000c0
0000c0
000180
000180
000300
000600
000c00
003000
00c000
000000
000000
ENDCHAR
STARTCHAR C30a7
ENCODING 12455
SWIDTH 1000 0
DWIDTH 24 0
BBX 24 24 0 0
BITMAP
000000
000000
000000
000000
000000
000000
000000
000000
000000
020700
01ff80
00f800
001800
001800
001800
101bc0
0fffe0
07e020
000000
000000
000000
000000
000000
000000
ENDCHAR
STARTCHAR C30a8
ENCODING 12456
SWIDTH 1000 0
DWIDTH 24 0
BBX 24 24 0 0
BITMAP
000000
000000
000000
000000
000000
000000
040780
03ffc0
01f800
001c00
001c00
001800
001800
001800
201ff8
1ffffc
0fe00c
000000
000000
000000
000000
000000
000000
000000
ENDCHAR
STARTCHAR C30a9
ENCODING 12457
SWIDTH 1000 0
DWIDTH 24 0
BBX 24 24 0 0
BITMAP
000000
000000
000000
000000
000000
000000
001800
000c00
000c00
000c00
000dc0
043fe0
07fc00
033c00
006c00
00cc00
018c00
010c00
060c00
0c7c00
001c00
000800
000000
000000
ENDCHAR
STARTCHAR C30aa
ENCODING 12458
SWIDTH 1000 0
DWIDTH 24 0
BBX 24 24 0 0
BITMAP
000000
000000
000800
001c00
000e00
000c00
000c00
000fe0
10fff0
0ffc00
003c00
007c00
006c00
00cc00
018c00
030c00
060c00
0c0c00
180c00
307c00
001c00
000800
000000
000000
ENDCHAR
STARTCHAR C30ab
ENCODING 12459
SWIDTH 1000 0
DWIDTH 24 0
BBX 24 24 0 0
BITMAP
000000
000000
000000
000000
007000
003800
001800
001800
001880
081fc0
07f8e0
03b0c0
0030c0
0060c0
0060c0
00c0c0
00c180
018180
018180
030300
061300
080e00
000400
000000
ENDCHAR
STARTCHAR C30ac
ENCODING 12460
SWIDTH 1000 0
DWIDTH 24 0
BBX 24 24 0 0
BITMAP
000000
000000
00e038
00700c
003004
0030e0
003030
003110
103f80
0ff1c0
076180
006180
00c180
00c180
018300
018300
030300
030600
062600
0c1c00
100800
000000
000000
000000
ENDCHAR
STARTCHAR C30ad
ENCODING 12461
SWIDTH 1000 0
DWIDTH 24 0
BBX 24 24 0 0
BITMAP
000000
000000
000000
000000
038000
018000
00c000
00c700
005f00
10f800
0fe000
0731f0
0037e0
003e00
10f800
0f8c00
060c00
000600
000600
000300
000300
000000
000000
000000
ENDCHAR
STARTCHAR C30ae
ENCODING 12462
SWIDTH 1000 0
DWIDTH 24 0
BBX 24 24 0 0
BITMAP
000000
000000
0000e0
000030
038390
0180c0
00c040
00c700
005f00
10f800
0fe000
0731f0
0037e0
003e00
10f800
0f8c00
060c00
000600
000600
000300
000300
000000
000000
000000
ENDCHAR
STARTCHAR C30af
ENCODING 12463
SWIDTH 1000 0
DWIDTH 24 0
BBX 24 24 0 0
BITMAP
000000
000000
000000
000000
00e000
007000
006000
006300
00ff80
00db00
018300
018300
030600
060600
080c00
000c00
001800
003000
006000
00c000
030000
0c0000
000000
000000
ENDCHAR
STARTCHAR C30b0
ENCODING 12464
SWIDTH 1000 0
DWIDTH 24 0
BBX 24 24 0 0
BITMAP
000000
000000
000070
000018
00e008
0070e0
006030
006310
00ff80
00db00
018300
018300
030600
060600
080c00
000c00
001800
003000
006000
00c000
030000
0c0000
000000
000000
ENDCHAR
STARTCHAR C30b1
ENCODING 12465
SWIDTH 1000 0
DWIDTH 24 0
BBX 24 24 0 0
BITMAP
000000
000000
000000
006000
003000
003000
006070
0067f8
00ff80
00c180
018180
030300
040300
000600
000600
000c00
000c00
001800
003000
006000
018000
060000
000000
000000
ENDCHAR
STARTCHAR C30b2
ENCODING 12466
SWIDTH 1000 0
DWIDTH 24 0
BBX 24 24 0 0
BITMAP
000000
000000
000038
00000c
00c064
006030
006010
00c0c0
00cfe0
01ff00
018300
030300
060600
080600
000c00
000c00
001800
001800
003000
006000
018000
060000
000000
000000
ENDCHAR
STARTCHAR C30b3
ENCODING 12467
SWIDTH 1000 0
DWIDTH 24 0
BBX 24 24 0 0
BITMAP
000000
000000
000000
000000
000000
000000
0403c0
03ffe0
01f0c0
0000c0
000180
000180
000180
000300
000300
080780
07ffc0
03f800
000000
000000
000000
000000
000000
000000
ENDCHAR
STARTCHAR C30b4
ENCODING 12468
SWIDTH 1000 0
DWIDTH 24 0
BBX 24 24 0 0
BITMAP
000000
000000
000038
00000c
0000e4
000030
000010
0207c0
01ffe0
00f8c0
0000c0
0000c0
000180
000180
000300
000300
040780
03ffc0
01f000
000000
000000
000000
000000
000000
ENDCHAR
STARTCHAR C30b5
ENCODING 12469
SWIDTH 1000 0
DWIDTH 24 0
BBX 24 24 0 0
BITMAP
000000
000000
000000
000600
018300
00c300
00c300
00c300
00c3f0
20fff8
1fff00
0fc300
00c300
00c600
00c600
000c00
000c00
001800
003000
006000
018000
000000
000000
000000
ENDCHAR
STARTCHAR C30b6
ENCODING 12470
SWIDTH 1000 0
DWIDTH 24 0
BBX 24 24 0 0
BITMAP
000000
000000
000038
00000c
000ce4
030630
018610
018600
018600
0187e0
41fff0
3ffe00
1f8600
018600
018c00
018c00
001800
001800
003000
006000
00c000
010000
000000
000000
ENDCHAR
STARTCHAR C30b7
ENCODING 12471
SWIDTH 1000 0
DWIDTH 24 0
BBX 24 24 0 0
BITMAP
000000
000000
000000
030000
01c000
00e000
006000
004000
000004
0c000c
070018
038030
018060
0100c0
000180
000300
000600
001c00
023800
03f000
01e000
00c000
000000
000000
ENDCHAR
STARTCHAR C30b8
ENCODING 12472
SWIDTH 1000 0
DWIDTH 24 0
BBX 24 24 0 0
BITMAP
000000
000000
000038
03000c
01c384
00e0c0
006040
004004
00000c
0c0018
070030
038060
0180c0
010180
000300
000600
001c00
023800
03f000
01e000
00c000
000000
000000
000000
ENDCHAR
STARTCHAR C30b9
ENCODING 12473
SWIDTH 1000 0
DWIDTH 24 0
BBX 24 24 0 0
BITMAP
000000
000000
000000
000000
000000
000180
080fc0
07fb80
03e300
000300
000600
000600
000c00
000c00
001b80
0030e0
006070
00c030
018020
060000
000000
000000
000000
000000
ENDCHAR
STARTCHAR C30ba
ENCODING 12474
SWIDTH 1000 0
DWIDTH 24 0
BBX 24 24 0 0
BITMAP
000000
000000
000038
00000c
0000e4
000c30
083f10
07ee00
03cc00
000c00
001800
003000
003000
006e00
00c380
0181c0
0300c0
060080
180000
000000
000000
000000
000000
000000
ENDCHAR
STARTCHAR C30bb
ENCODING 12475
SWIDTH 1000 0
DWIDTH 24 0
BBX 24 24 0 0
BITMAP
000000
000000
000000
000000
007000
003800
003000
003000
003030
0037f8
0fff38
07b060
0030c0
003180
003200
003000
003000
003800
001ff0
000ff0
000000
000000
000000
000000
ENDCHAR
STARTCHAR C30bc
ENCODING 12476
SWIDTH 1000 0
DWIDTH 24 0
BBX 24 24 0 0
BITMAP
000000
000000
000000
000038
00000c
00e0e4
007030
006010
006000
0060c0
106fe0
0ffce0
066180
006300
006400
006000
006000
007000
003fe0
001fe0
000000
000000
000000
000000
ENDCHAR
STARTCHAR C30bd
ENCODING 12477
SWIDTH 1000 0
DWIDTH 24 0
BBX 24 24 0 0
BITMAP
000000
000000
000000
000000
000000
000380
0001c0
0001c0
0c0180
060180
030300
038300
018600
010600
000c00
001800
003000
006000
018000
060000
180000
000000
000000
000000
ENDCHAR
STARTCHAR C30be
ENCODING 12478
SWIDTH 1000 0
DWIDTH 24 0
BBX 24 24 0 0
BITMAP
000000
000000
000038
00000c
0000e4
000030
000010
000380
0c01c0
060180
030180
038300
018300
010600
000600
000c00
001800
003000
006000
018000
060000
000000
000000
000000
ENDCHAR
STARTCHAR C30bf
ENCODING 12479
SWIDTH 1000 0
DWIDTH 24 0
BBX 24 24 0 0
BITMAP
000000
000000
000000
000000
007000
003800
003800
003180
007fc0
007f80
00c180
008180
01b180
031b00
040700
000780
000cc0
001840
003000
006000
018000
060000
000000
000000
ENDCHAR
STARTCHAR C30c0
ENCODING 12480
SWIDTH 1000 0
DWIDTH 24 0
BBX 24 24 0 0
BITMAP
000000
000000
000038
00000c
00e004
0070e0
007030
006310
00ff80
00ff00
018300
010300
036300
063600
080e00
000f00
001980
003080
006000
00c000
030000
0c0000
000000
000000
ENDCHAR
STARTCHAR C30c1
ENCODING 12481
SWIDTH 1000 0
DWIDTH 24 0
BBX 24 24 0 0
BITMAP
000000
000000
000000
000e00
000f00
003c00
00f000
03d800
001800
001ff0
00fff8
1ff800
0f1800
001800
001800
003000
003000
006000
00c000
030000
0c0000
000000
000000
000000
ENDCHAR
STARTCHAR C30c2
ENCODING 12482
SWIDTH 1000 0
DWIDTH 24 0
BBX 24 24 0 0
BITMAP
000000
000000
000038
000e0c
000f04
003c70
00f018
03d808
001800
001fe0
00fff0
1ff800
0f1800
001800
001800
003000
003000
006000
00c000
030000
0c0000
000000
000000
000000
ENDCHAR
STARTCHAR C30c3
ENCODING 12483
SWIDTH 1000 0
DWIDTH 24 0
BBX 24 24 0 0
BITMAP
000000
000000
000000
000000
000000
000000
000000
000000
003000
0018c0
030c70
018c60
00c8e0
00c0c0
008180
000300
000600
000c00
001800
003000
00c000
030000
000000
000000
ENDCHAR
STARTCHAR C30c4
ENCODING 12484
SWIDTH 1000 0
DWIDTH 24 0
BBX 24 24 0 0
BITMAP
000000
000000
000000
000000
0060e0
003070
0c3870
061860
071860
0310c0
0200c0
000180
000180
000300
000600
000c00
001800
006000
018000
060000
000000
000000
000000
000000
ENDCHAR
STARTCHAR C30c5
ENCODING 12485
SWIDTH 1000 0
DWIDTH 24 0
BBX 24 24 0 0
BITMAP
000000
00001c
000006
000002
000038
00600c
0030c4
0c3860
061870
071860
0310c0
0200c0
000180
000180
000300
000600
000c00
001800
006000
018000
000000
000000
000000
000000
ENDCHAR
STARTCHAR C30c6
ENCODING 12486
SWIDTH 1000 0
DWIDTH 24 0
BBX 24 24 0 0
BITMAP
000000
000000
000000
000000
001f80
07ffc0
03e000
000000
0003f0
00fff8
1ffc00
0f0c00
000c00
001800
001800
003000
003000
006000
00c000
018000
030000
0c0000
000000
000000
ENDCHAR
STARTCHAR C30c7
ENCODING 12487
SWIDTH 1000 0
DWIDTH 24 0
BBX 24 24 0 0
BITMAP
000000
000000
000038
00001c
00000c
003e60
07ff38
03c018
000000
0007e0
01fff0
1ff800
0e1800
001800
003000
003000
006000
006000
00c000
018000
030000
0c0000
000000
000000
ENDCHAR
STARTCHAR C30c8
ENCODING 12488
SWIDTH 1000 0
DWIDTH 24 0
BBX 24 24 0 0
BITMAP
000000
000000
000000
007000
003800
003000
003000
003000
003000
003c00
003700
003380
0031c0
0030c0
003000
003000
003000
003000
003000
003000
003000
001000
000000
000000
ENDCHAR
STARTCHAR C30c9
ENCODING 12489
SWIDTH 1000 0
DWIDTH 24 0
BBX 24 24 0 0
BITMAP
000000
000000
000000
00c1c0
007060
006720
006180
006080
006000
006000
007800
006e00
006700
006380
006180
006000
006000
006000
006000
006000
006000
002000
000000
000000
ENDCHAR
STARTCHAR C30ca
ENCODING 12490
SWIDTH 1000 0
DWIDTH 24 0
BBX 24 24 0 0
BITMAP
000000
000000
000000
003800
001c00
001800
001800
001800
001bf0
1ffff8
0fd800
001800
001800
003000
003000
006000
006000
00c000
018000
030000
060000
080000
000000
000000
ENDCHAR
STARTCHAR C30cb
ENCODING 12491
SWIDTH 1000 0
DWIDTH 24 0
BBX 24 24 0 0
BITMAP
000000
000000
000000
000000
000000
000000
000000
040780
03ffc0
01f800
000000
000000
000000
4007f8
3ffffc
1ff800
000000
000000
000000
000000
000000
000000
000000
000000
ENDCHAR
STARTCHAR C30cc
ENCODING 12492
SWIDTH 1000 0
DWIDTH 24 0
BBX 24 24 0 0
BITMAP
000000
000000
000000
000000
000000
000300
003f80
07e380
038300
000300
000700
00e600
003e00
000f00
001b80
0031c0
00e0c0
0180c0
060000
180000
000000
000000
000000
000000
ENDCHAR
STARTCHAR C30cd
ENCODING 12493
SWIDTH 1000 0
DWIDTH 24 0
BBX 24 24 0 0
BITMAP
000000
000000
003000
001800
000c00
000c00
000000
001e00
04f700
03cc00
010c00
001e00
003b80
0079c0
00d880
019800
031800
0c1800
301800
001800
003800
001000
000000
000000
ENDCHAR
STARTCHAR C30ce
ENCODING 12494
SWIDTH 1000 0
DWIDTH 24 0
BBX 24 24 0 0
BITMAP
000000
000000
000000
000000
000000
000700
000380
000380
000700
000700
000e00
000e00
001c00
001800
003000
006000
00c000
018000
030000
0c0000
000000
000000
000000
000000
ENDCHAR
STARTCHAR C30cf
ENCODING 12495
SWIDTH 1000 0
DWIDTH 24 0
BBX 24 24 0 0
BITMAP
000000
000000
000000
000000
000000
000000
000000
01c000
00e600
006180
00c0c0
00c060
018070
030030
060030
0c0020
300000
000000
000000
000000
000000
000000
000000
000000
ENDCHAR
STARTCHAR C30d0
ENCODING 12496
SWIDTH 1000 0
DWIDTH 24 0
BBX 24 24 0 0
BITMAP
000000
000000
000000
000038
00000c
0000e4
000030
01c010
00e600
006180
00c0c0
00c060
018070
030030
060030
0c0020
300000
000000
000000
000000
000000
000000
000000
000000
ENDCHAR
STARTCHAR C30d1
ENCODING 12497
SWIDTH 1000 0
DWIDTH 24 0
BBX 24 24 0 0
BITMAP
000000
000000
000000
000018
000024
000024
000018
01c000
00e600
006180
00c0c0
00c060
018070
030030
060030
0c0020
300000
000000
000000
000000
000000
000000
000000
000000
ENDCHAR
STARTCHAR C30d2
ENCODING 12498
SWIDTH 1000 0
DWIDTH 24 0
BBX 24 24 0 0
BITMAP
000000
000000
000000
000000
038000
01c000
018000
018000
018780
019fc0
01f800
018000
018000
018000
018000
018000
01c000
00ffe0
007fe0
000000
000000
000000
000000
000000
ENDCHAR
STARTCHAR C30d3
ENCODING 12499
SWIDTH 1000 0
DWIDTH 24 0
BBX 24 24 0 0
BITMAP
000000
000000
000038
00000c
0381c4
01c060
018020
018000
018780
019fc0
01f800
018000
018000
018000
018000
01c000
00ffe0
007fe0
000000
000000
000000
000000
000000
000000
ENDCHAR
STARTCHAR C30d4
ENCODING 12500
SWIDTH 1000 0
DWIDTH 24 0
BBX 24 24 0 0
BITMAP
000000
000000
000018
000024
038024
01c018
018000
018000
018780
019fc0
01f800
018000
018000
018000
018000
01c000
00fff0
007ff0
000000
000000
000000
000000
000000
000000
ENDCHAR
STARTCHAR C30d5
ENCODING 12501
SWIDTH 1000 0
DWIDTH 24 0
BBX 24 24 0 0
BITMAP
000000
000000
000000
000000
000000
0003e0
087ff0
0ffc60
0780c0
0000c0
000180
000180
000300
000300
000600
000c00
001800
003000
00c000
030000
040000
000000
000000
000000
ENDCHAR
STARTCHAR C30d6
ENCODING 12502
SWIDTH 1000 0
DWIDTH 24 0
BBX 24 24 0 0
BITMAP
000000
00001c
000006
000032
000018
000008
0007c0
10ffe0
1ff8c0
000180
000180
000300
000300
000600
000600
000c00
001800
003000
006000
018000
060000
000000
000000
000000
ENDCHAR
STARTCHAR C30d7
ENCODING 12503
SWIDTH 1000 0
DWIDTH 24 0
BBX 24 24 0 0
BITMAP
000000
000018
000024
000024
000018
000000
0007c0
08ffe0
0ff8c0
000180
000180
000300
000300
000600
000600
000c00
001800
003000
006000
018000
060000
000000
000000
000000
ENDCHAR
STARTCHAR C30d8
ENCODING 12504
SWIDTH 1000 0
DWIDTH 24 0
BBX 24 24 0 0
BITMAP
000000
000000
000000
000000
000000
000000
00c000
01e000
037000
061800
0c0c00
380700
3003c0
0000f8
00003c
00000c
000000
000000
000000
000000
000000
000000
000000
000000
ENDCHAR
STARTCHAR C30d9
ENCODING 12505
SWIDTH 1000 0
DWIDTH 24 0
BBX 24 24 0 0
BITMAP
000000
000000
000000
000070
000038
00001c
00038c
00c1c0
01e0e0
037060
061800
0c0c00
380700
3003c0
0000f8
00003c
00000c
000000
000000
000000
000000
000000
000000
000000
ENDCHAR
STARTCHAR C30da
ENCODING 12506
SWIDTH 1000 0
DWIDTH 24 0
BBX 24 24 0 0
BITMAP
000000
000000
000000
000000
000030
000048
000048
00c030
01e000
037000
061800
0c0c00
380700
3003c0
0000f8
00003c
00000c
000000
000000
000000
000000
000000
000000
000000
ENDCHAR
STARTCHAR C30db
ENCODING 12507
SWIDTH 1000 0
DWIDTH 24 0
BBX 24 24 0 0
BITMAP
000000
000000
000000
000000
003800
001c00
001800
001800
1019c0
0fffe0
079800
001800
001800
021980
0218e0
061870
0e1830
1c9830
18f820
007000
002000
000000
000000
000000
ENDCHAR
STARTCHAR C30dc
ENCODING 12508
SWIDTH 1000 0
DWIDTH 24 0
BBX 24 24 0 0
BITMAP
000000
000000
000038
00000c
007004
003870
003018
003008
1033c0
0fffe0
07b000
003000
003000
043300
0431c0
0c30e0
1c3060
193060
01f000
00e000
004000
000000
000000
000000
ENDCHAR
STARTCHAR C30dd
ENCODING 12509
SWIDTH 1000 0
DWIDTH 24 0
BBX 24 24 0 0
BITMAP
000000
000000
000000
000030
007048
003848
003030
003000
103380
0fffc0
073000
003000
003000
043300
0431c0
0c30e0
1c3060
393060
01f000
00e000
004000
000000
000000
000000
ENDCHAR
STARTCHAR C30de
ENCODING 12510
SWIDTH 1000 0
DWIDTH 24 0
BBX 24 24 0 0
BITMAP
000000
000000
000000
000000
000000
000000
000000
0007e0
10fe70
0ff878
0700e0
0001c0
000300
00e600
003800
001c00
000e00
000600
000600
000000
000000
000000
000000
000000
ENDCHAR
STARTCHAR C30df
ENCODING 12511
SWIDTH 1000 0
DWIDTH 24 0
BBX 24 24 0 0
BITMAP
000000
000000
000000
007000
001e00
000700
000300
000100
01c000
007800
001c00
000e00
000600
000200
000000
01c000
007800
001c00
000e00
000700
000300
000100
000000
000000
ENDCHAR
STARTCHAR C30e0
ENCODING 12512
SWIDTH 1000 0
DWIDTH 24 0
BBX 24 24 0 0
BITMAP
000000
000000
000000
000000
000000
003000
001800
001c00
003800
003000
006000
006100
00c0c0
00c060
018070
198ff0
0fff38
07f018
000008
000000
000000
000000
000000
000000
ENDCHAR
STARTCHAR C30e1
ENCODING 12513
SWIDTH 1000 0
DWIDTH 24 0
BBX 24 24 0 0
BITMAP
000000
000000
000000
000700
000380
000180
000180
000180
000300
00e300
003b00
000e00
000f00
000d80
0019c0
0030c0
006080
00c000
030000
0c0000
000000
000000
000000
000000
ENDCHAR
STARTCHAR C30e2
ENCODING 12514
SWIDTH 1000 0
DWIDTH 24 0
BBX 24 24 0 0
BITMAP
000000
000000
000000
000000
000000
000f80
047fc0
03f000
01b000
003000
0031f0
003ff8
20fe00
1ff000
0e3000
003000
003000
003800
001ff0
000ff0
000000
000000
000000
000000
ENDCHAR
STARTCHAR C30e3
ENCODING 12515
SWIDTH 1000 0
DWIDTH 24 0
BBX 24 24 0 0
BITMAP
000000
000000
000000
000000
000000
000000
000000
000000
038000
01c000
00c380
006fc0
08fce0
0fe0c0
073100
003000
001800
001800
000c00
000c00
000600
000600
000000
000000
ENDCHAR
STARTCHAR C30e4
ENCODING 12516
SWIDTH 1000 0
DWIDTH 24 0
BBX 24 24 0 0
BITMAP
000000
000000
000000
000000
038000
01c000
00c000
00c1e0
006ff0
007e38
10f060
0ff0c0
071900
001800
000c00
000c00
000600
000600
000300
000300
000180
000180
000000
000000
ENDCHAR
STARTCHAR C30e5
ENCODING 12517
SWIDTH 1000 0
DWIDTH 24 0
BBX 24 24 0 0
BITMAP
000000
000000
000000
000000
000000
000000
000000
000000
000000
000000
010600
00ff00
000300
000600
000600
000c00
040fc0
03ffe0
01f020
000000
000000
000000
000000
000000
ENDCHAR
STARTCHAR C30e6
ENCODING 12518
SWIDTH 1000 0
DWIDTH 24 0
BBX 24 24 0 0
BITMAP
000000
000000
000000
000000
000000
000200
020f80
03ffc0
01f380
000300
000300
000300
000600
000600
000c00
20fff0
1ffff8
0f0008
040000
000000
000000
000000
000000
000000
ENDCHAR
STARTCHAR C30e7
ENCODING 12519
SWIDTH 1000 0
DWIDTH 24 0
BBX 24 24 0 0
BITMAP
000000
000000
000000
000000
000000
000000
000000
000000
000000
000780
01ffc0
00e180
000180
000f80
01ff80
00f300
000300
000f80
01ff80
00f000
000000
000000
000000
000000
ENDCHAR
STARTCHAR C30e8
ENCODING 12520
SWIDTH 1000 0
DWIDTH 24 0
BBX 24 24 0 0
BITMAP
000000
000000
000000
000000
000080
040fc0
07ffe0
0000c0
0000c0
0000c0
040fc0
03ffc0
01f0c0
000180
000180
000180
040fe0
03ffe0
01f000
000000
000000
000000
000000
000000
ENDCHAR
STARTCHAR C30e9
ENCODING 12521
SWIDTH 1000 0
DWIDTH 24 0
BBX 24 24 0 0
BITMAP
000000
000000
000000
000f00
01ff80
00f000
000000
0000c0
001fe0
07ffe0
03e0c0
0100c0
000180
000180
000300
000300
000600
000c00
001800
003000
00c000
030000
000000
000000
ENDCHAR
STARTCHAR C30ea
ENCODING 12522
SWIDTH 1000 0
DWIDTH 24 0
BBX 24 24 0 0
BITMAP
000000
000000
000e00
000700
038380
01c380
01c300
018300
018300
018300
018300
018300
018300
018300
000300
000600
000600
000c00
001800
003000
006000
018000
000000
000000
ENDCHAR
STARTCHAR C30eb
ENCODING 12523
SWIDTH 1000 0
DWIDTH 24 0
BBX 24 24 0 0
BITMAP
000000
000000
000000
000000
000e00
01c700
00e600
00e600
00c600
00c600
00c600
018602
018604
030618
030630
0606e0
0c07c0
180f00
200600
000000
000000
000000
000000
000000
ENDCHAR
STARTCHAR C30ec
ENCODING 12524
SWIDTH 1000 0
DWIDTH 24 0
BBX 24 24 0 0
BITMAP
000000
000000
000000
008000
01c000
00e000
00e000
00c000
00c000
00c000
00c000
00c008
00c030
00c0e0
00c1c0
00c700
00de00
00f800
00f000
00c000
000000
000000
000000
000000
ENDCHAR
STARTCHAR C30ed
ENCODING 12525
SWIDTH 1000 0
DWIDTH 24 0
BBX 24 24 0 0
BITMAP
000000
000000
000000
000000
000000
0607e0
03fff0
03f870
030060
030060
030060
0300c0
0300c0
0300c0
0300c0
03ffc0
03ffe0
010000
000000
000000
000000
000000
000000
000000
ENDCHAR
STARTCHAR C30ee
ENCODING 12526
SWIDTH 1000 0
DWIDTH 24 0
BBX 24 24 0 0
BITMAP
000000
000000
000000
000000
000000
000000
000000
000300
031f80
01ff80
018300
018300
018300
000600
000600
000c00
000c00
001800
003000
004000
008000
000000
000000
000000
ENDCHAR
STARTCHAR C30ef
ENCODING 12527
SWIDTH 1000 0
DWIDTH 24 0
BBX 24 24 0 0
BITMAP
000000
000000
000000
000000
060fc0
03ffe0
03f0e0
0300c0
0300c0
0300c0
030180
030180
030300
000300
000600
000600
000c00
001800
003000
006000
018000
000000
000000
000000
ENDCHAR
STARTCHAR C30f0
ENCODING 12528
SWIDTH 1000 0
DWIDTH 24 0
BBX 24 24 0 0
BITMAP
000000
000000
001c00
000e00
000c00
000c00
000cc0
07ffe0
018c00
018c00
018c00
018c00
218ff0
3ffff8
1ffc00
000c00
000c00
000c00
000c00
000c00
000c00
000c00
000000
000000
ENDCHAR
STARTCHAR C30f1
ENCODING 12529
SWIDTH 1000 0
DWIDTH 24 0
BBX 24 24 0 0
BITMAP
000000
000000
000000
000000
000000
000180
07ffc0
03f9c0
000380
000300
003c00
001800
001800
001800
001800
00fff8
3ffffc
1f0000
000000
000000
000000
000000
000000
000000
ENDCHAR
STARTCHAR C30f2
ENCODING 12530
SWIDTH 1000 0
DWIDTH 24 0
BBX 24 24 0 0
BITMAP
000000
000000
000000
000000
0000c0
007fe0
07ffe0
0000c0
0000c0
0000c0
007ff0
1fffe0
0f8180
000300
000300
000600
000600
000c00
001800
003000
006000
018000
000000
000000
ENDCHAR
STARTCHAR C30f3
ENCODING 12531
SWIDTH 1000 0
DWIDTH 24 0
BBX 24 24 0 0
BITMAP
000000
000000
000000
000000
018000
00e000
007000
003008
003030
000060
0000c0
000180
000300
000e00
001c00
047000
07e000
03c000
010000
000000
000000
000000
000000
000000
ENDCHAR
STARTCHAR C30f4
ENCODING 12532
SWIDTH 1000 0
DWIDTH 24 0
BBX 24 24 0 0
BITMAP
000000
000000
01c01c
00e1c6
007062
006020
006300
187f80
0fff80
0fe300
0c0300
0c0300
0c0300
0c0600
000600
000c00
000c00
001800
003000
006000
018000
060000
000000
000000
ENDCHAR
STARTCHAR C30f5
ENCODING 12533
SWIDTH 1000 0
DWIDTH 24 0
BBX 24 24 0 0
BITMAP
000000
000000
000000
000000
000000
000000
000000
003800
001c00
001800
001980
001fc0
03ff80
01f980
003180
003180
006180
00c180
018300
021f00
040600
000400
000000
000000
ENDCHAR
STARTCHAR C30f6
ENCODING 12534
SWIDTH 1000 0
DWIDTH 24 0
BBX 24 24 0 0
BITMAP
000000
000000
000000
000000
000000
00c000
007000
003000
003000
0060e0
007ff0
00ff00
018300
010300
020300
000600
000600
000c00
000c00
001800
006000
018000
000000
000000
ENDCHAR
STARTCHAR C3105
ENCODING 12549
SWIDTH 1000 0
DWIDTH 24 0
BBX 24 24 0 0
BITMAP
000000
000000
000000
010000
01c000
018000
030000
030040
07fff0
020060
000060
000060
000060
000060
0000c0
0000c0
0000c0
0000c0
000d80
000700
000200
000000
000000
000000
ENDCHAR
STARTCHAR C3106
ENCODING 12550
SWIDTH 1000 0
DWIDTH 24 0
BBX 24 24 0 0
BITMAP
000000
000000
000000
004000
007000
006000
00c000
00c080
01ffe0
0080c0
0000c0
0000c0
001180
000d80
000700
000300
000780
000cc0
0018c0
006040
018000
000000
000000
000000
ENDCHAR
STARTCHAR C3107
ENCODING 12551
SWIDTH 1000 0
DWIDTH 24 0
BBX 24 24 0 0
BITMAP
000000
000000
000000
000000
000000
040040
07fff0
060060
060060
060060
060060
060060
060060
060060
060060
060060
060060
060060
040040
000000
000000
000000
000000
000000
ENDCHAR
STARTCHAR C3108
ENCODING 12552
SWIDTH 1000 0
DWIDTH 24 0
BBX 24 24 0 0
BITMAP
000000
000000
000000
000000
000000
07ffc0
030000
030000
030000
030000
030000
030000
030000
030000
030000
030000
038000
01fff0
00fff0
000000
000000
000000
000000
000000
ENDCHAR
STARTCHAR C3109
ENCODING 12553
SWIDTH 1000 0
DWIDTH 24 0
BBX 24 24 0 0
BITMAP
000000
000000
000000
008000
00e000
00c000
018000
018080
03ffe0
0120c0
0038c0
0030c0
0060c0
0060c0
00c0c0
00c0c0
0180c0
0180c0
030d80
040700
080200
000000
000000
000000
ENDCHAR
STARTCHAR C310a
ENCODING 12554
SWIDTH 1000 0
DWIDTH 24 0
BBX 24 24 0 0
BITMAP
000000
000000
000000
001000
001c00
001800
001800
001800
0ffff0
003000
003000
006000
006000
00c200
00c180
0180c0
030fe0
07f060
038060
000040
000000
000000
000000
000000
ENDCHAR
STARTCHAR C310b
ENCODING 12555
SWIDTH 1000 0
DWIDTH 24 0
BBX 24 24 0 0
BITMAP
000000
000000
000000
000000
000400
00ff00
0f0600
000600
000c00
000c00
001880
003fe0
0010c0
0000c0
0000c0
0000c0
0000c0
000180
000d80
000700
000200
000000
000000
000000
ENDCHAR
STARTCHAR C310c
ENCODING 12556
SWIDTH 1000 0
DWIDTH 24 0
BBX 24 24 0 0
BITMAP
000000
000000
000000
000400
000700
008600
00c600
008400
018c00
010c40
010bf0
03fc60
011860
001860
003060
0030c0
0060c0
00c0c0
018d80
020700
000200
000000
000000
000000
ENDCHAR
STARTCHAR C310d
ENCODING 12557
SWIDTH 1000 0
DWIDTH 24 0
BBX 24 24 0 0
BITMAP
000000
000000
000000
004100
006180
004100
00c300
008200
008200
010400
010400
020800
020800
010400
008200
00c300
006180
0030c0
0030c0
001040
000000
000000
000000
000000
ENDCHAR
STARTCHAR C310e
ENCODING 12558
SWIDTH 1000 0
DWIDTH 24 0
BBX 24 24 0 0
BITMAP
000000
000000
000000
000000
0001c0
1fffe0
008000
00c000
00c000
018000
018200
03ff80
010300
000300
000300
000300
000300
000600
003600
001c00
000800
000000
000000
000000
ENDCHAR
STARTCHAR C310f
ENCODING 12559
SWIDTH 1000 0
DWIDTH 24 0
BBX 24 24 0 0
BITMAP
000000
000000
000000
000000
0001f0
003f00
03e000
00c000
00c000
00c000
00c000
00c000
00c000
00c000
008000
018000
018000
030000
060000
0c0000
100000
000000
000000
000000
ENDCHAR
STARTCHAR C3110
ENCODING 12560
SWIDTH 1000 0
DWIDTH 24 0
BBX 24 24 0 0
BITMAP
000000
000000
000000
000000
000200
000380
008300
00e300
00c300
00c300
00c300
018300
018300
018700
019b00
03e300
010300
000300
000300
000300
000200
000000
000000
000000
ENDCHAR
STARTCHAR C3111
ENCODING 12561
SWIDTH 1000 0
DWIDTH 24 0
BBX 24 24 0 0
BITMAP
000000
000000
000000
000000
000400
000600
000c00
000800
001000
002000
002000
004000
004000
003000
001800
000c00
000600
000300
000300
000100
000000
000000
000000
000000
ENDCHAR
STARTCHAR C3112
ENCODING 12562
SWIDTH 1000 0
DWIDTH 24 0
BBX 24 24 0 0
BITMAP
000000
000000
000000
000000
000060
0ffff0
001800
001800
001800
001800
001800
001800
001800
001800
001800
001800
001800
001800
001800
001800
001000
000000
000000
000000
ENDCHAR
STARTCHAR C3113
ENCODING 12563
SWIDTH 1000 0
DWIDTH 24 0
BBX 24 24 0 0
BITMAP
000000
000000
000000
003000
001c00
0018c0
0c1870
071860
061860
061860
061860
061860
061860
0fffe0
041840
001800
001800
001800
001800
1ffff8
000000
000000
000000
000000
ENDCHAR
STARTCHAR C3114
ENCODING 12564
SWIDTH 1000 0
DWIDTH 24 0
BBX 24 24 0 0
BITMAP
000000
000000
000000
000000
000400
000700
000c00
001900
0031c0
006300
018600
020c00
001c00
006c00
018c00
020c00
000c00
000c00
000c00
000c00
000800
000000
000000
000000
ENDCHAR
STARTCHAR C3115
ENCODING 12565
SWIDTH 1000 0
DWIDTH 24 0
BBX 24 24 0 0
BITMAP
000000
000000
000000
000080
01ffe0
0000c0
0000c0
0000c0
0100c0
01ffc0
018000
018000
018000
018000
018000
030000
030000
020000
060000
0c0000
100000
000000
000000
000000
ENDCHAR
STARTCHAR C3116
ENCODING 12566
SWIDTH 1000 0
DWIDTH 24 0
BBX 24 24 0 0
BITMAP
000000
000000
000000
000000
020100
03ffc0
030180
030180
030180
032180
033180
031980
031180
030180
030180
030180
030180
03ff80
030180
020100
000000
000000
000000
000000
ENDCHAR
STARTCHAR C3117
ENCODING 12567
SWIDTH 1000 0
DWIDTH 24 0
BBX 24 24 0 0
BITMAP
000000
000000
000000
000100
07ffc0
00c180
00c180
00c180
00c180
00c180
00c180
00db00
00ce00
00c400
00c000
00c000
00c000
00c000
00c000
00c000
008000
000000
000000
000000
ENDCHAR
STARTCHAR C3118
ENCODING 12568
SWIDTH 1000 0
DWIDTH 24 0
BBX 24 24 0 0
BITMAP
000000
000000
000000
001000
001c00
001800
001800
0ffff8
003000
003000
006040
00fff0
004060
000060
000060
0000c0
0000c0
000180
000180
000300
000200
000000
000000
000000
ENDCHAR
STARTCHAR C3119
ENCODING 12569
SWIDTH 1000 0
DWIDTH 24 0
BBX 24 24 0 0
BITMAP
000000
000000
000000
000000
002000
003800
003000
003000
006000
006000
00c000
00c000
018000
018200
030180
0600c0
0c1fe0
1fe060
0e0060
000040
000000
000000
000000
000000
ENDCHAR
STARTCHAR C311a
ENCODING 12570
SWIDTH 1000 0
DWIDTH 24 0
BBX 24 24 0 0
BITMAP
000000
000000
000000
000080
0400e0
0300c0
018180
00e100
006300
002600
001800
001800
001800
001800
001800
001800
001800
001800
001800
001800
001000
000000
000000
000000
ENDCHAR
STARTCHAR C311b
ENCODING 12571
SWIDTH 1000 0
DWIDTH 24 0
BBX 24 24 0 0
BITMAP
000000
000000
000000
000000
0000e0
07fff0
001800
001800
001800
001800
00f800
010000
020000
020000
020000
020000
020000
020000
010180
00fe00
000000
000000
000000
000000
ENDCHAR
STARTCHAR C311c
ENCODING 12572
SWIDTH 1000 0
DWIDTH 24 0
BBX 24 24 0 0
BITMAP
000000
000000
000000
003000
001c00
001800
001800
001800
1ffff8
001800
001800
000800
00f800
010000
020000
020000
020000
020000
0100c0
00ff00
000000
000000
000000
000000
ENDCHAR
STARTCHAR C311d
ENCODING 12573
SWIDTH 1000 0
DWIDTH 24 0
BBX 24 24 0 0
BITMAP
000000
000000
000000
060600
038380
030300
030300
030300
0303f0
037f00
1f8600
030600
030600
030c00
031800
032000
030000
038000
01ffe0
00ffe0
000000
000000
000000
000000
ENDCHAR
STARTCHAR C311e
ENCODING 12574
SWIDTH 1000 0
DWIDTH 24 0
BBX 24 24 0 0
BITMAP
000000
000000
000000
000000
000000
001ff0
0fe800
010c00
018c00
018c00
030c20
030ff8
07fc30
021830
001830
001860
003060
003060
0060c0
00c0c0
030180
000000
000000
000000
ENDCHAR
STARTCHAR C311f
ENCODING 12575
SWIDTH 1000 0
DWIDTH 24 0
BBX 24 24 0 0
BITMAP
000000
000000
000000
002000
07f800
003000
003000
003000
003000
003000
003000
003000
001800
001800
001800
001800
000c00
000600
0003e0
000180
000000
000000
000000
000000
ENDCHAR
STARTCHAR C3120
ENCODING 12576
SWIDTH 1000 0
DWIDTH 24 0
BBX 24 24 0 0
BITMAP
000000
000000
000000
002000
003800
003000
003000
006000
004200
00c380
018300
030600
07fc00
021800
003000
006000
00c100
030080
07ffc0
0380c0
000040
000000
000000
000000
ENDCHAR
STARTCHAR C3121
ENCODING 12577
SWIDTH 1000 0
DWIDTH 24 0
BBX 24 24 0 0
BITMAP
000000
000000
000000
000080
03ffe0
0000c0
0000c0
0000c0
0000c0
006180
003980
000d80
000700
000380
0007c0
000ce0
001860
003020
00c000
030000
0c0000
000000
000000
000000
ENDCHAR
STARTCHAR C3122
ENCODING 12578
SWIDTH 1000 0
DWIDTH 24 0
BBX 24 24 0 0
BITMAP
000000
000000
000000
000100
07ffc0
000180
010180
01c300
018300
018640
03fff0
010060
000060
000060
0000c0
0000c0
0000c0
000180
000180
000300
000200
000000
000000
000000
ENDCHAR
STARTCHAR C3123
ENCODING 12579
SWIDTH 1000 0
DWIDTH 24 0
BBX 24 24 0 0
BITMAP
000000
000000
000000
060000
038000
030000
030000
030000
060000
060000
060000
060040
0ffff0
040060
000060
000060
0000c0
0000c0
0000c0
000180
000180
000000
000000
000000
ENDCHAR
STARTCHAR C3124
ENCODING 12580
SWIDTH 1000 0
DWIDTH 24 0
BBX 24 24 0 0
BITMAP
000000
000000
000000
002000
003800
003000
003000
003000
003ff0
0ff600
006600
006600
006600
00c600
00c600
00c600
018600
018700
0303f8
0601f8
180000
000000
000000
000000
ENDCHAR
STARTCHAR C3125
ENCODING 12581
SWIDTH 1000 0
DWIDTH 24 0
BBX 24 24 0 0
BITMAP
000000
000000
000000
000000
004000
007000
006000
006000
006000
00c000
00c000
00c000
018000
018000
030000
020000
060000
0800e0
1ffff0
0e0000
000000
000000
000000
000000
ENDCHAR
STARTCHAR C3126
ENCODING 12582
SWIDTH 1000 0
DWIDTH 24 0
BBX 24 24 0 0
BITMAP
000000
000000
000000
018c00
00c700
00c600
00c600
00c600
00c600
00c600
00c600
00c600
00c600
018610
018610
030610
030618
0607f8
0803f0
100000
000000
000000
000000
000000
ENDCHAR
STARTCHAR C3127
ENCODING 12583
SWIDTH 1000 0
DWIDTH 24 0
BBX 24 24 0 0
BITMAP
000000
000000
000000
003000
001c00
001800
001800
001800
001800
001800
001800
001800
001800
001800
001800
001800
001800
001800
001800
001800
001000
000000
000000
000000
ENDCHAR
STARTCHAR C3128
ENCODING 12584
SWIDTH 1000 0
DWIDTH 24 0
BBX 24 24 0 0
BITMAP
000000
000000
000000
000000
000100
0001c0
000180
000180
000300
030300
00c600
003600
001c00
000e00
001f00
003380
006180
00c080
030000
0c0000
000000
000000
000000
000000
ENDCHAR
STARTCHAR C3129
ENCODING 12585
SWIDTH 1000 0
DWIDTH 24 0
BBX 24 24 0 0
BITMAP
000000
000000
000000
000000
000000
000040
020070
038060
030060
030060
030060
030060
030060
070060
060060
061fe0
0fe060
040040
000000
000000
000000
000000
000000
000000
ENDCHAR
STARTCHAR C3220
ENCODING 12832
SWIDTH 1000 0
DWIDTH 24 0
BBX 24 24 0 0
BITMAP
000000
020040
040020
080010
180018
100008
30000c
200004
600006
600006
600006
6000c6
67ffe6
600006
600006
600006
200004
30000c
100008
180018
080010
040020
020040
000000
ENDCHAR
STARTCHAR C3221
ENCODING 12833
SWIDTH 1000 0
DWIDTH 24 0
BBX 24 24 0 0
BITMAP
000000
020040
040020
080010
180018
100008
30018c
23ffc4
600006
600006
600006
600006
600006
600006
600006
6000c6
27ffe4
30000c
100008
180018
080010
040020
020040
000000
ENDCHAR
STARTCHAR C3222
ENCODING 12834
SWIDTH 1000 0
DWIDTH 24 0
BBX 24 24 0 0
BITMAP
000000
020040
040020
080010
180018
100188
33ffcc
200004
600006
600006
600306
61ff86
600006
600006
600006
600006
2000c4
37ffec
100008
180018
080010
040020
020040
000000
ENDCHAR
STARTCHAR C3223
ENCODING 12835
SWIDTH 1000 0
DWIDTH 24 0
BBX 24 24 0 0
BITMAP
000000
020040
040020
080010
180018
100008
37ffec
262464
662466
662466
662466
662466
664466
664566
668366
670066
260064
37ffec
160068
180018
080010
040020
020040
000000
ENDCHAR
STARTCHAR C3224
ENCODING 12836
SWIDTH 1000 0
DWIDTH 24 0
BBX 24 24 0 0
BITMAP
000000
020040
040020
080010
180198
13ffc8
30300c
203004
603006
603006
606306
61ff86
606306
606306
606306
60c306
20c304
30c30c
17ffe8
180018
080010
040020
020040
000000
ENDCHAR
STARTCHAR C3225
ENCODING 12837
SWIDTH 1000 0
DWIDTH 24 0
BBX 24 24 0 0
BITMAP
000000
020040
040020
080010
183018
101808
300c0c
200804
600066
6ffff6
600006
608006
60e406
60c206
618306
610186
2301c4
3200cc
140088
180018
080010
040020
020040
000000
ENDCHAR
STARTCHAR C3226
ENCODING 12838
SWIDTH 1000 0
DWIDTH 24 0
BBX 24 24 0 0
BITMAP
000000
020040
040020
080010
182018
103808
30300c
203004
603006
6030c6
6033e6
60fc06
6f3006
603006
603046
603046
203064
303fec
101fc8
180018
080010
040020
020040
000000
ENDCHAR
STARTCHAR C3227
ENCODING 12839
SWIDTH 1000 0
DWIDTH 24 0
BBX 24 24 0 0
BITMAP
000000
020040
040020
080010
180018
100c08
30040c
204404
607406
606606
60c206
60c306
608306
618186
6101c6
6200f6
240044
30000c
100008
180018
080010
040020
020040
000000
ENDCHAR
STARTCHAR C3228
ENCODING 12840
SWIDTH 1000 0
DWIDTH 24 0
BBX 24 24 0 0
BITMAP
000000
020040
040020
084010
187018
106008
30600c
206604
63ff06
606606
606606
606606
606626
60c626
60c626
618636
2107f4
3203ec
140008
180018
080010
040020
020040
000000
ENDCHAR
STARTCHAR C3229
ENCODING 12841
SWIDTH 1000 0
DWIDTH 24 0
BBX 24 24 0 0
BITMAP
000000
020040
040020
080010
181018
101c08
30180c
201804
601806
601806
601866
6ffff6
601806
601806
601806
601806
201804
30180c
101808
181018
080010
040020
020040
000000
ENDCHAR
STARTCHAR C4e00
ENCODING 19968
SWIDTH 1000 0
DWIDTH 24 0
BBX 24 24 0 0
BITMAP
000000
000000
000000
000000
000000
000000
000000
000000
000000
000000
00000c
7ffffe
000000
000000
000000
000000
000000
000000
000000
000000
000000
000000
000000
000000
ENDCHAR
STARTCHAR C4e01
ENCODING 19969
SWIDTH 1000 0
DWIDTH 24 0
BBX 24 24 0 0
BITMAP
000000
000000
00000c
7ffffe
001800
001800
001800
001800
001800
001800
001800
001800
001800
001800
001800
001800
001800
001800
001800
001800
00f800
003000
002000
000000
ENDCHAR
STARTCHAR C4e03
ENCODING 19971
SWIDTH 1000 0
DWIDTH 24 0
BBX 24 24 0 0
BITMAP
000000
008000
00e000
00c000
00c000
00c000
00c00c
00c01e
00c0e0
00c700
00f800
07c000
78c000
00c000
00c008
00c008
00c008
00c008
00c008
00c00c
00fffc
007ff8
000000
000000
ENDCHAR
STARTCHAR C4e07
ENCODING 19975
SWIDTH 1000 0
DWIDTH 24 0
BBX 24 24 0 0
BITMAP
000000
000000
00000c
7ffffe
006000
006000
006000
006000
006060
007ff0
006060
006060
006060
00c060
00c060
00c060
018060
018060
030060
0600e0
0c1fc0
180380
600100
000000
ENDCHAR
STARTCHAR C4e08
ENCODING 19976
SWIDTH 1000 0
DWIDTH 24 0
BBX 24 24 0 0
BITMAP
000800
000e00
000c00
000c00
000c00
000c0c
7ffffe
000c00
040c00
040c00
040c00
020c00
020c00
010c00
019800
00d800
007000
007000
00dc00
018700
0703fe
1800f8
600010
000000
ENDCHAR
STARTCHAR C4e09
ENCODING 19977
SWIDTH 1000 0
DWIDTH 24 0
BBX 24 24 0 0
BITMAP
000000
000000
000030
3ffff8
000000
000000
000000
000000
000000
000000
000060
1ffff0
000000
000000
000000
000000
000000
000000
000000
00000c
7ffffe
000000
000000
000000
ENDCHAR
STARTCHAR C4e0a
ENCODING 19978
SWIDTH 1000 0
DWIDTH 24 0
BBX 24 24 0 0
BITMAP
002000
003800
003000
003000
003000
003000
003000
003000
003030
003ff8
003000
003000
003000
003000
003000
003000
003000
003000
003000
003000
00300c
7ffffe
000000
000000
ENDCHAR
STARTCHAR C4e0b
ENCODING 19979
SWIDTH 1000 0
DWIDTH 24 0
BBX 24 24 0 0
BITMAP
000000
000000
00000c
7ffffe
003000
003000
003000
003000
003000
003700
0031c0
0030f0
003030
003010
003000
003000
003000
003000
003000
003000
003000
003000
003000
002000
ENDCHAR
STARTCHAR C4e0c
ENCODING 19980
SWIDTH 1000 0
DWIDTH 24 0
BBX 24 24 0 0
BITMAP
000000
00000c
7ffffe
018180
018180
018180
018180
018180
018180
018180
018180
018180
018180
018180
030180
030180
030180
060180
060180
0c0180
180180
300180
400100
000000
ENDCHAR
STARTCHAR C4e0d
ENCODING 19981
SWIDTH 1000 0
DWIDTH 24 0
BBX 24 24 0 0
BITMAP
000000
000000
00000c
7ffffe
001c00
001800
003800
003000
007c00
007800
00d980
00d8c0
019870
031838
06181c
0c180e
181806
601804
801800
001800
001800
001800
001800
001000
ENDCHAR
STARTCHAR C4e0e
ENCODING 19982
SWIDTH 1000 0
DWIDTH 24 0
BBX 24 24 0 0
BITMAP
010000
01c000
018000
018000
018018
01fffc
030000
030000
030000
030030
07fff8
020030
000030
000030
000630
3fff30
000030
000030
000030
000030
000070
000fe0
0001c0
000080
ENDCHAR
STARTCHAR C4e10
ENCODING 19984
SWIDTH 1000 0
DWIDTH 24 0
BBX 24 24 0 0
BITMAP
000000
000000
00000c
7ffffe
001800
001800
081800
0e1830
0c1ff8
0c1800
0c1800
0c1800
0c1818
1ffffc
080018
000018
000018
000018
000038
000030
000070
0007e0
0001c0
000080
ENDCHAR
STARTCHAR C4e11
ENCODING 19985
SWIDTH 1000 0
DWIDTH 24 0
BBX 24 24 0 0
BITMAP
000000
000000
000060
1ffff0
003060
003060
003060
003060
003060
006060
006060
0fffe0
006060
006060
00c060
00c060
00c060
00c060
018060
018060
01806c
7ffffe
000000
000000
ENDCHAR
STARTCHAR C4e13
ENCODING 19987
SWIDTH 1000 0
DWIDTH 24 0
BBX 24 24 0 0
BITMAP
002000
003800
003000
003000
003060
1ffff0
006000
006000
00600c
7ffffe
00c000
00c000
018020
03fff0
010060
0000c0
000180
018300
007600
001c00
000e00
000380
000180
000080
ENDCHAR
STARTCHAR C4e14
ENCODING 19988
SWIDTH 1000 0
DWIDTH 24 0
BBX 24 24 0 0
BITMAP
000000
0200c0
03ffe0
0300c0
0300c0
0300c0
0300c0
0300c0
03ffc0
0300c0
0300c0
0300c0
0300c0
0300c0
03ffc0
0300c0
0300c0
0300c0
0300c0
0300c0
0300cc
7ffffe
000000
000000
ENDCHAR
STARTCHAR C4e15
ENCODING 19989
SWIDTH 1000 0
DWIDTH 24 0
BBX 24 24 0 0
BITMAP
000000
000000
000018
3ffffc
000c00
000c00
001800
001800
003c00
003900
0078c0
00d860
019838
03181c
06180c
181804
601800
001800
001800
001000
00000c
7ffffe
000000
000000
ENDCHAR
STARTCHAR C4e16
ENCODING 19990
SWIDTH 1000 0
DWIDTH 24 0
BBX 24 24 0 0
BITMAP
002080
0038e0
0830c0
0e30c0
0c30c0
0c30c0
0c30c0
0c30cc
7ffffe
0c30c0
0c30c0
0c30c0
0c30c0
0c30c0
0c30c0
0c30c0
0c3fc0
0c30c0
0c2080
0c0000
0c0018
1ffffc
080000
000000
ENDCHAR
STARTCHAR C4e18
ENCODING 19992
SWIDTH 1000 0
DWIDTH 24 0
BBX 24 24 0 0
BITMAP
000000
000040
0003e0
043ff0
07f000
060000
060000
060000
060000
060000
060018
07fffc
060300
060300
060300
060300
060300
060300
060300
060300
06030c
7ffffe
000000
000000
ENDCHAR
STARTCHAR C4e19
ENCODING 19993
SWIDTH 1000 0
DWIDTH 24 0
BBX 24 24 0 0
BITMAP
000000
00000c
7ffffe
001800
001800
001800
101818
1ffffc
181818
181818
181818
181818
183618
183318
186198
18c0d8
198098
1a0018
180018
180018
1800f8
180030
100020
000000
ENDCHAR
STARTCHAR C4e1a
ENCODING 19994
SWIDTH 1000 0
DWIDTH 24 0
BBX 24 24 0 0
BITMAP
008200
00e380
00c300
00c300
00c300
00c300
00c310
20c31c
10c318
08c338
0cc330
0cc320
06c360
06c340
06c340
06c380
04c300
00c300
00c300
00c300
00c30c
7ffffe
000000
000000
ENDCHAR
STARTCHAR C4e1b
ENCODING 19995
SWIDTH 1000 0
DWIDTH 24 0
BBX 24 24 0 0
BITMAP
000000
020200
038380
030300
030300
030300
030300
030300
030300
030380
068280
0666c0
063640
0c2c60
0c0c60
181830
301838
20301e
406008
018000
00000c
7ffffe
000000
000000
ENDCHAR
STARTCHAR C4e1c
ENCODING 19996
SWIDTH 1000 0
DWIDTH 24 0
BBX 24 24 0 0
BITMAP
002000
003800
003000
006000
00600c
7ffffe
00c000
019000
031c00
031800
061800
0c1830
1ffff8
081800
021900
0398c0
031860
061830
0c1818
18181c
30180c
60f808
803000
002000
ENDCHAR
STARTCHAR C4e1d
ENCODING 19997
SWIDTH 1000 0
DWIDTH 24 0
BBX 24 24 0 0
BITMAP
000000
020080
0380e0
0300c0
060180
062180
0c3b10
0c731c
186618
10c430
3fcff0
118460
0300c0
020180
060300
0c0600
180400
3feff8
1e0780
000000
00000c
7ffffe
000000
000000
ENDCHAR
STARTCHAR C4e1e
ENCODING 19998
SWIDTH 1000 0
DWIDTH 24 0
BBX 24 24 0 0
BITMAP
000000
000060
0ffff0
0000e0
000180
001600
019c08
3fda1c
019a30
019a60
019980
031900
031980
061880
0618c0
0c1860
181838
20181e
40f808
003000
002030
3ffff8
000000
000000
ENDCHAR
STARTCHAR C4e22
ENCODING 20002
SWIDTH 1000 0
DWIDTH 24 0
BBX 24 24 0 0
BITMAP
000000
0000e0
000ff0
01fe00
1f1800
001800
001800
001860
0ffff0
001800
001800
001800
00180c
7ffffe
002000
003800
006000
00c100
0180c0
030060
040030
1ffff8
0e0018
000010
ENDCHAR
STARTCHAR C4e24
ENCODING 20004
SWIDTH 1000 0
DWIDTH 24 0
BBX 24 24 0 0
BITMAP
000000
00000c
7ffffe
00c300
00c300
00c300
10c318
1ffffc
18c318
18c318
18c318
18c318
18e318
19b398
1996d8
1b1678
1a0c58
1c0818
181018
180018
180018
1800f8
180030
100020
ENDCHAR
STARTCHAR C4e25
ENCODING 20005
SWIDTH 1000 0
DWIDTH 24 0
BBX 24 24 0 0
BITMAP
000000
000018
3ffffc
006600
086620
046638
066660
036640
026680
10660c
1ffffe
180000
180000
180000
180000
180000
180000
180000
180000
300000
300000
600000
400000
800000
ENDCHAR
STARTCHAR C4e27
ENCODING 20007
SWIDTH 1000 0
DWIDTH 24 0
BBX 24 24 0 0
BITMAP
001000
001c00
001800
001830
1ffff8
001800
061880
0318e0
019980
011900
001a0c
7ffffe
062000
062020
061070
0610c0
060980
060e00
060600
060380
0661e0
07807e
0e0018
040000
ENDCHAR
STARTCHAR C4e28
ENCODING 20008
SWIDTH 1000 0
DWIDTH 24 0
BBX 24 24 0 0
BITMAP
001000
001c00
001800
001800
001800
001800
001800
001800
001800
001800
001800
001800
001800
001800
001800
001800
001800
001800
001800
001800
001800
001800
001800
001000
ENDCHAR
STARTCHAR C4e2a
ENCODING 20010
SWIDTH 1000 0
DWIDTH 24 0
BBX 24 24 0 0
BITMAP
001000
001c00
003800
003400
006600
00c300
018180
0310c0
061c60
0c1838
18181f
60180c
801800
001800
001800
001800
001800
001800
001800
001800
001800
001800
001800
001000
ENDCHAR
STARTCHAR C4e2b
ENCODING 20011
SWIDTH 1000 0
DWIDTH 24 0
BBX 24 24 0 0
BITMAP
000010
10001c
0c0030
070060
0380c0
01c180
00c200
009400
001800
001800
001800
001800
001800
001800
001800
001800
001800
001800
001800
001800
001800
001800
001800
001000
ENDCHAR
STARTCHAR C4e2c
ENCODING 20012
SWIDTH 1000 0
DWIDTH 24 0
BBX 24 24 0 0
BITMAP
000800
000e00
000c00
080c00
060c00
030c00
018c00
00cc00
00ec00
006c00
004c00
000c00
000c00
000c00
003c00
00ec00
038c00
1e0c00
0c0c00
000c00
000c00
000c00
000c00
000800
ENDCHAR
STARTCHAR C4e2d
ENCODING 20013
SWIDTH 1000 0
DWIDTH 24 0
BBX 24 24 0 0
BITMAP
001000
001c00
001800
001800
001800
101818
1ffffc
181818
181818
181818
181818
181818
181818
1ffff8
181818
101810
001800
001800
001800
001800
001800
001800
001800
001000
ENDCHAR
STARTCHAR C4e30
ENCODING 20016
SWIDTH 1000 0
DWIDTH 24 0
BBX 24 24 0 0
BITMAP
001000
001c00
001800
001800
001818
3ffffc
001800
001800
001800
001860
1ffff0
001800
001800
001800
001800
00180c
7ffffe
001800
001800
001800
001800
001800
001800
001000
ENDCHAR
STARTCHAR C4e32
ENCODING 20018
SWIDTH 1000 0
DWIDTH 24 0
BBX 24 24 0 0
BITMAP
001000
001c00
001800
081830
0ffff8
0c1830
0c1830
0c1830
0ffff0
081820
001800
101818
1ffffc
181818
181818
181818
181818
1ffff8
181818
101810
001800
001800
001800
001000
ENDCHAR
STARTCHAR C4e34
ENCODING 20020
SWIDTH 1000 0
DWIDTH 24 0
BBX 24 24 0 0
BITMAP
020400
038700
030600
030600
230c0c
3b0ffe
331a00
331900
333180
3360c0
338080
33200c
333ffe
33318c
33318c
33318c
33318c
33318c
33318c
23318c
033ffc
03300c
032008
020000
ENDCHAR
STARTCHAR C4e36
ENCODING 20022
SWIDTH 1000 0
DWIDTH 24 0
BBX 24 24 0 0
BITMAP
000000
000000
000000
000000
000000
000000
000000
000000
000000
020000
018000
00e000
007000
003800
001800
001000
000000
000000
000000
000000
000000
000000
000000
000000
ENDCHAR
STARTCHAR C4e38
ENCODING 20024
SWIDTH 1000 0
DWIDTH 24 0
BBX 24 24 0 0
BITMAP
004000
007000
006000
006000
006000
006180
3fffc0
006180
006180
00c180
08c180
06c180
038180
01c180
01e180
037184
033184
062184
060184
0c0186
1801fe
3000fc
400000
000000
ENDCHAR
STARTCHAR C4e39
ENCODING 20025
SWIDTH 1000 0
DWIDTH 24 0
BBX 24 24 0 0
BITMAP
000000
020060
03fff0
030060
032060
031060
031860
030c60
030c60
030860
030066
7fffff
030060
030060
030060
030060
030060
030060
030060
060060
060060
0c03e0
0800c0
100080
ENDCHAR
STARTCHAR C4e3a
ENCODING 20026
SWIDTH 1000 0
DWIDTH 24 0
BBX 24 24 0 0
BITMAP
001000
001c00
0c1800
061800
031800
019800
011800
001818
3ffffc
003018
003018
003018
006418
006618
006318
00c198
00c118
018018
030018
060018
0c0038
1807f0
2000e0
400040
ENDCHAR
STARTCHAR C4e3b
ENCODING 20027
SWIDTH 1000 0
DWIDTH 24 0
BBX 24 24 0 0
BITMAP
006000
003800
001c00
000c00
000800
000018
1ffffc
001800
001800
001800
001800
001800
001830
1ffff8
001800
001800
001800
001800
001800
001800
00180c
7ffffe
000000
000000
ENDCHAR
STARTCHAR C4e3d
ENCODING 20029
SWIDTH 1000 0
DWIDTH 24 0
BBX 24 24 0 0
BITMAP
000000
00000c
7ffffe
000000
000000
106418
1ff7fc
186618
186618
186618
1c6718
1a6698
1b66d8
196658
186658
186618
186618
186618
186618
186618
1be6f8
18c630
108420
000000
ENDCHAR
STARTCHAR C4e3e
ENCODING 20030
SWIDTH 1000 0
DWIDTH 24 0
BBX 24 24 0 0
BITMAP
004040
0c2070
063060
0318c0
031880
021100
00010c
7ffffe
00c200
019100
031cc0
061870
0c193f
1bff8c
601800
801800
001830
1ffff8
001800
001800
001800
001800
001800
001000
ENDCHAR
STARTCHAR C4e3f
ENCODING 20031
SWIDTH 1000 0
DWIDTH 24 0
BBX 24 24 0 0
BITMAP
000000
000800
000e00
000c00
000c00
000c00
000c00
000c00
000c00
000c00
000c00
000c00
000c00
001800
001800
003000
003000
006000
00c000
018000
030000
0c0000
300000
000000
ENDCHAR
STARTCHAR C4e43
ENCODING 20035
SWIDTH 1000 0
DWIDTH 24 0
BBX 24 24 0 0
BITMAP
000000
000060
1ffff0
00c060
00c060
00c0c0
00c0c0
00c180
00c18c
00c3fe
00c10c
01800c
01800c
01800c
01800c
03000c
03000c
060018
0c0018
080038
1007f0
2000e0
400040
000000
ENDCHAR
STARTCHAR C4e45
ENCODING 20037
SWIDTH 1000 0
DWIDTH 24 0
BBX 24 24 0 0
BITMAP
008000
00e000
00c000
018000
018300
03ff80
030700
060600
060c00
0c0c00
180e00
101a00
201a00
003300
003100
006180
00c080
0180c0
030060
060070
0c003c
30001f
400008
000000
ENDCHAR
STARTCHAR C4e47
ENCODING 20039
SWIDTH 1000 0
DWIDTH 24 0
BBX 24 24 0 0
BITMAP
000000
0001c0
001fe0
00fc00
1fe000
006000
006000
006000
006000
00600c
0061fe
01fe00
fe6000
006000
006000
006000
006008
006008
006008
006008
00600c
007ffc
003ff8
000000
ENDCHAR
STARTCHAR C4e48
ENCODING 20040
SWIDTH 1000 0
DWIDTH 24 0
BBX 24 24 0 0
BITMAP
000000
000800
000e00
001c00
003800
003000
006000
00c200
018380
030700
060600
0c0c00
101800
203000
406080
004040
008060
010030
020018
0ffffc
07f81c
02000c
000008
000000
ENDCHAR
STARTCHAR C4e49
ENCODING 20041
SWIDTH 1000 0
DWIDTH 24 0
BBX 24 24 0 0
BITMAP
000000
006040
003070
041860
041c60
020cc0
0208c0
0300c0
010180
018180
008300
00c300
004600
006600
003c00
001800
003c00
006600
00c300
0381c0
0600f0
18003e
600018
000000
ENDCHAR
STARTCHAR C4e4b
ENCODING 20043
SWIDTH 1000 0
DWIDTH 24 0
BBX 24 24 0 0
BITMAP
006000
003000
001800
001800
001000
000030
3ffff8
000060
0000c0
000180
000300
000600
000c00
001800
003000
006000
00c000
038000
060000
1b0000
71ffff
207ffc
000000
000000
ENDCHAR
STARTCHAR C4e4c
ENCODING 20044
SWIDTH 1000 0
DWIDTH 24 0
BBX 24 24 0 0
BITMAP
002000
003800
003000
0420c0
07ffe0
0600c0
0600c0
0600c0
0601c0
061f80
060700
060200
060018
0ffffc
040018
000018
000198
7fffd8
000018
000018
000038
0007f0
0000e0
000040
ENDCHAR
STARTCHAR C4e4d
ENCODING 20045
SWIDTH 1000 0
DWIDTH 24 0
BBX 24 24 0 0
BITMAP
008000
00e000
00c000
01800c
01fffe
033000
033000
063000
0c3000
083030
103ff8
203000
403000
003000
003000
003018
003ffc
003000
003000
003000
003000
003000
003000
002000
ENDCHAR
STARTCHAR C4e4e
ENCODING 20046
SWIDTH 1000 0
DWIDTH 24 0
BBX 24 24 0 0
BITMAP
000020
0007f0
007ff8
1ff800
001820
001838
041870
021860
0318c0
019980
019900
011a0c
7ffffe
001800
001800
001800
001800
001800
001800
001800
001800
00f800
003000
002000
ENDCHAR
STARTCHAR C4e4f
ENCODING 20047
SWIDTH 1000 0
DWIDTH 24 0
BBX 24 24 0 0
BITMAP
000000
000040
0007e0
00fff0
3f8000
006000
003000
001800
001060
1ffff0
0001c0
000380
000600
000c00
003000
00c000
018000
060000
1e0000
718000
20fffe
007ff8
000000
000000
ENDCHAR
STARTCHAR C4e50
ENCODING 20048
SWIDTH 1000 0
DWIDTH 24 0
BBX 24 24 0 0
BITMAP
000000
0000f0
040ff8
07fe00
060000
060800
060e00
060c00
0c0c00
0c0c00
0c0c0c
1ffffe
080c00
010c00
01cc80
038c60
030c30
060c18
0c0c0c
180c0e
600c06
807c04
001800
001000
ENDCHAR
STARTCHAR C4e52
ENCODING 20050
SWIDTH 1000 0
DWIDTH 24 0
BBX 24 24 0 0
BITMAP
000000
0001e0
021ff0
03fc00
030000
030000
030000
030030
03fff8
030600
030600
030600
030600
030600
03060c
7ffffe
000000
004000
00f000
01c000
030000
0c0000
300000
400000
ENDCHAR
STARTCHAR C4e53
ENCODING 20051
SWIDTH 1000 0
DWIDTH 24 0
BBX 24 24 0 0
BITMAP
000000
0000e0
020ff0
03fc00
030000
030000
030000
030030
03fff8
030600
030600
030600
030600
030600
03060c
7ffffe
000000
000c00
000380
0000e0
000070
000038
000018
000010
ENDCHAR
STARTCHAR C4e54
ENCODING 20052
SWIDTH 1000 0
DWIDTH 24 0
BBX 24 24 0 0
BITMAP
000040
0003e0
003ff0
1ffc00
003000
003000
00600c
7ffffe
00c200
018100
018180
0300c0
068270
0ce3be
30c318
40c300
00c300
00c300
018300
018300
030300
060300
040300
080200
ENDCHAR
STARTCHAR C4e56
ENCODING 20054
SWIDTH 1000 0
DWIDTH 24 0
BBX 24 24 0 0
BITMAP
000020
0003f0
00fff8
1ff800
001800
00180c
7ffffe
001800
011900
01d9c0
019990
3f999c
0199b0
0199e0
0199c4
019984
0f9984
7999fe
2118fc
001800
001800
001800
001800
001000
ENDCHAR
STARTCHAR C4e58
ENCODING 20056
SWIDTH 1000 0
DWIDTH 24 0
BBX 24 24 0 0
BITMAP
0003c0
003fe0
1ff800
001800
00180c
7ffffe
011900
01d9c8
01999c
3f99b0
0199c4
019984
07b984
3d7dfe
105afc
00db00
019980
0318c0
061860
0c1838
30181f
40180c
001800
001000
ENDCHAR
STARTCHAR C4e59
ENCODING 20057
SWIDTH 1000 0
DWIDTH 24 0
BBX 24 24 0 0
BITMAP
000000
000000
000180
3fffc0
000180
000300
000600
000c00
001800
003000
006000
00c000
018000
030000
060010
0c0010
0c0010
180010
180010
180018
1ffff8
0ffff0
000000
000000
ENDCHAR
STARTCHAR C4e5c
ENCODING 20060
SWIDTH 1000 0
DWIDTH 24 0
BBX 24 24 0 0
BITMAP
000000
020000
038000
030000
030040
0300e0
0301c0
0306c0
0338c0
03c0c0
0300c0
0f00c0
7300c0
0300c0
0300c0
0301c0
031f84
030704
030204
030004
030006
03fffe
01fffc
000000
ENDCHAR
STARTCHAR C4e5d
ENCODING 20061
SWIDTH 1000 0
DWIDTH 24 0
BBX 24 24 0 0
BITMAP
008000
00e000
00c000
00c000
00c000
00c300
00ff80
3fc300
00c300
00c300
00c300
00c300
00c300
018300
018300
018304
030304
030304
060304
0c0306
1803fe
3001fc
400000
000000
ENDCHAR
STARTCHAR C4e5e
ENCODING 20062
SWIDTH 1000 0
DWIDTH 24 0
BBX 24 24 0 0
BITMAP
004000
007000
00e000
00c000
018018
03fffc
030000
060000
0c0000
180300
27ff80
400e00
001c00
003800
007000
00e000
01c004
038004
030004
060004
060006
07fffe
03fffc
000000
ENDCHAR
STARTCHAR C4e5f
ENCODING 20063
SWIDTH 1000 0
DWIDTH 24 0
BBX 24 24 0 0
BITMAP
001000
001c00
001800
001800
041860
071870
0619e0
061e60
067860
079860
1e1860
661860
061860
061860
061860
061be0
0618c4
061884
061004
060004
060006
07fffe
03fffc
000000
ENDCHAR
STARTCHAR C4e60
ENCODING 20064
SWIDTH 1000 0
DWIDTH 24 0
BBX 24 24 0 0
BITMAP
000000
000000
000030
3ffff8
000030
010030
008030
00c030
00c030
006030
006030
0041b0
000e30
007830
01e030
0f8030
7e0030
380070
100060
0000e0
000fc0
000380
000100
000000
ENDCHAR
STARTCHAR C4e61
ENCODING 20065
SWIDTH 1000 0
DWIDTH 24 0
BBX 24 24 0 0
BITMAP
001000
001800
003c00
003000
006040
00c060
0180f0
0201c0
0fff00
070600
000c00
003820
00e038
010070
07ffe0
03c0c0
000180
000300
000600
001c00
007000
01c000
0e0000
300000
ENDCHAR
STARTCHAR C4e66
ENCODING 20070
SWIDTH 1000 0
DWIDTH 24 0
BBX 24 24 0 0
BITMAP
002000
003860
003038
00301c
00300c
003064
1ffff0
003060
003060
003060
003060
00306c
7ffffe
00300c
00300c
00300c
00300c
003018
003038
0033f0
0030e0
003040
003000
002000
ENDCHAR
STARTCHAR C4e69
ENCODING 20073
SWIDTH 1000 0
DWIDTH 24 0
BBX 24 24 0 0
BITMAP
020100
0381c0
030180
030180
030180
031980
03fd80
030180
030180
030180
030180
233180
3ff980
303180
303180
303180
303184
303184
303184
303184
3ff186
3031fe
2020fc
000000
ENDCHAR
STARTCHAR C4e70
ENCODING 20080
SWIDTH 1000 0
DWIDTH 24 0
BBX 24 24 0 0
BITMAP
000000
00000c
3ffffe
00000c
040818
030e10
018c20
01cc00
188c00
0e0c00
060c00
030c00
020c00
000c0c
7ffffe
001800
003400
003300
0060c0
00c070
018038
06001c
18000c
600004
ENDCHAR
STARTCHAR C4e71
ENCODING 20081
SWIDTH 1000 0
DWIDTH 24 0
BBX 24 24 0 0
BITMAP
000100
0071c0
03f980
3f8180
030180
030180
030180
031980
7ffd80
030180
030180
030180
233180
3ff980
303180
303180
303180
303184
303184
303184
3ff186
3031fe
2020fc
000000
ENDCHAR
STARTCHAR C4e73
ENCODING 20083
SWIDTH 1000 0
DWIDTH 24 0
BBX 24 24 0 0
BITMAP
000100
0039c0
07fd80
780180
020980
211d80
119980
193180
084980
7ffd80
001980
002180
014180
018180
019d80
03e180
7f8180
3d8184
118184
018184
018186
0f81fe
0300fc
020000
ENDCHAR
STARTCHAR C4e7e
ENCODING 20094
SWIDTH 1000 0
DWIDTH 24 0
BBX 24 24 0 0
BITMAP
020100
0381c0
030180
033180
7ffb0c
0303fe
030600
233400
3ff800
303010
3037f8
3ff030
303030
303060
3ff060
2320c0
0300c4
033184
7ff984
030304
030306
0303fe
0301fc
020000
ENDCHAR
STARTCHAR C4e86
ENCODING 20102
SWIDTH 1000 0
DWIDTH 24 0
BBX 24 24 0 0
BITMAP
000000
000018
3ffffc
000030
0000e0
000180
000200
001400
001800
001800
001800
001800
001800
001800
001800
001800
001800
001800
001800
001800
001800
00f800
003000
002000
ENDCHAR
STARTCHAR C4e88
ENCODING 20104
SWIDTH 1000 0
DWIDTH 24 0
BBX 24 24 0 0
BITMAP
000000
000030
0ffff8
000070
0000e0
030180
00e300
003c00
001c0c
7ffffe
00180c
001818
001810
001820
001800
001800
001800
001800
001800
001800
001800
00f800
003000
002000
ENDCHAR
STARTCHAR C4e89
ENCODING 20105
SWIDTH 1000 0
DWIDTH 24 0
BBX 24 24 0 0
BITMAP
008000
00e000
00c180
01ffc0
018300
030600
060860
0ffff0
181860
201860
001866
7fffff
001860
001860
001860
001860
0fffe0
001860
001840
001800
001800
00f800
003000
002000
ENDCHAR
STARTCHAR C4e8b
ENCODING 20107
SWIDTH 1000 0
DWIDTH 24 0
BBX 24 24 0 0
BITMAP
001000
001c00
00180c
7ffffe
001800
041860
07fff0
061860
061860
07ffe0
041840
001830
1ffff8
001830
001836
7fffff
001830
001830
1ffff0
001820
001800
00f800
003000
002000
ENDCHAR
STARTCHAR C4e8c
ENCODING 20108
SWIDTH 1000 0
DWIDTH 24 0
BBX 24 24 0 0
BITMAP
000000
000000
000000
000000
000030
1ffff8
000000
000000
000000
000000
000000
000000
000000
000000
000000
000000
000000
000000
00000c
7ffffe
000000
000000
000000
000000
ENDCHAR
STARTCHAR C4e8d
ENCODING 20109
SWIDTH 1000 0
DWIDTH 24 0
BBX 24 24 0 0
BITMAP
000000
000000
000060
0ffff0
000000
000000
000000
000000
00000c
7ffffe
001800
001800
001800
001800
001800
001800
001800
001800
001800
001800
001800
00f800
003000
002000
ENDCHAR
STARTCHAR C4e8e
ENCODING 20110
SWIDTH 1000 0
DWIDTH 24 0
BBX 24 24 0 0
BITMAP
000000
000000
000030
1ffff8
001800
001800
001800
001800
001800
00180c
7ffffe
001800
001800
001800
001800
001800
001800
001800
001800
001800
001800
00f800
003000
002000
ENDCHAR
STARTCHAR C4e8f
ENCODING 20111
SWIDTH 1000 0
DWIDTH 24 0
BBX 24 24 0 0
BITMAP
000000
000060
0ffff0
000000
000000
000000
000000
00000c
7ffffe
00e000
00c000
018000
018060
03fff0
010060
000060
000060
000060
000060
0000c0
0001c0
003f80
000700
000200
ENDCHAR
STARTCHAR C4e91
ENCODING 20113
SWIDTH 1000 0
DWIDTH 24 0
BBX 24 24 0 0
BITMAP
000000
000000
000060
0ffff0
000000
000000
000000
000000
00000c
7ffffe
002000
003800
006000
006000
00c100
018080
0300c0
060060
0c0030
3ffff8
1f8018
080010
000000
000000
ENDCHAR
STARTCHAR C4e92
ENCODING 20114
SWIDTH 1000 0
DWIDTH 24 0
BBX 24 24 0 0
BITMAP
000000
000018
3ffffc
006000
006000
006000
00c000
00c180
00ffc0
018180
018180
018180
030300
030300
030300
07ff00
020600
000600
000600
000c00
000c0c
7ffffe
000000
000000
ENDCHAR
STARTCHAR C4e93
ENCODING 20115
SWIDTH 1000 0
DWIDTH 24 0
BBX 24 24 0 0
BITMAP
000000
000030
1ffff8
000000
000000
000000
000000
00000c
7ffffe
00c180
00c180
00c180
00c180
00c180
00c180
00c180
018180
018180
030180
030180
060180
0c0180
100180
200100
ENDCHAR
STARTCHAR C4e94
ENCODING 20116
SWIDTH 1000 0
DWIDTH 24 0
BBX 24 24 0 0
BITMAP
000000
000018
3ffffc
003000
003000
003000
003000
006000
006000
0060c0
0fffe0
0060c0
00c0c0
00c0c0
00c0c0
00c0c0
00c0c0
0180c0
0180c0
0180c0
0180c6
7fffff
000000
000000
ENDCHAR
STARTCHAR C4e95
ENCODING 20117
SWIDTH 1000 0
DWIDTH 24 0
BBX 24 24 0 0
BITMAP
008100
00e1c0
00c180
00c180
00c180
00c198
3ffffc
00c180
00c180
00c180
00c180
00c180
00c18c
7ffffe
018180
018180
018180
030180
030180
060180
0c0180
180180
200180
400100
ENDCHAR
STARTCHAR C4e98
ENCODING 20120
SWIDTH 1000 0
DWIDTH 24 0
BBX 24 24 0 0
BITMAP
000000
000000
000018
3ffffc
000000
000000
040060
07fff0
060060
060060
060060
060060
07ffe0
060060
060060
060060
060060
07ffe0
040040
000000
00000c
7ffffe
000000
000000
ENDCHAR
STARTCHAR C4e9a
ENCODING 20122
SWIDTH 1000 0
DWIDTH 24 0
BBX 24 24 0 0
BITMAP
000000
000000
000018
3ffffc
006600
006600
006600
106610
08661c
086618
0c6630
046630
066660
066640
0666c0
066680
046700
006600
006600
006600
00660c
7ffffe
000000
000000
ENDCHAR
STARTCHAR C4e9b
ENCODING 20123
SWIDTH 1000 0
DWIDTH 24 0
BBX 24 24 0 0
BITMAP
000400
010700
01c600
118610
1d861c
198638
19a660
19f6c4
198704
198604
198604
198604
19f606
1f87fe
7803fc
200000
0000c0
0fffe0
000000
000000
00000c
7ffffe
000000
000000
ENDCHAR
STARTCHAR C4e9f
ENCODING 20127
SWIDTH 1000 0
DWIDTH 24 0
BBX 24 24 0 0
BITMAP
000000
000030
0ffff8
000030
0000c0
001300
001c00
119818
1fdbfc
199818
199818
199918
199898
199870
199830
1f9870
1118d8
00198c
00fa04
003000
00200c
7ffffe
000000
000000
ENDCHAR
STARTCHAR C4ea0
ENCODING 20128
SWIDTH 1000 0
DWIDTH 24 0
BBX 24 24 0 0
BITMAP
000000
003000
001800
000c00
000c00
000800
00000c
7ffffe
000000
000000
000000
000000
000000
000000
000000
000000
000000
000000
000000
000000
000000
000000
000000
000000
ENDCHAR
STARTCHAR C4ea1
ENCODING 20129
SWIDTH 1000 0
DWIDTH 24 0
BBX 24 24 0 0
BITMAP
000000
003000
001800
000c00
000c00
00080c
7ffffe
060000
060000
060000
060000
060000
060000
060000
060000
060000
060000
060000
060000
060018
0ffffc
040000
000000
000000
ENDCHAR
STARTCHAR C4ea2
ENCODING 20130
SWIDTH 1000 0
DWIDTH 24 0
BBX 24 24 0 0
BITMAP
006000
003000
001800
001800
00100c
7ffffe
000000
000000
010300
01ff80
018300
018300
018300
018300
018300
018300
018304
030304
030304
060304
0c0306
1803fe
6001fc
000000
ENDCHAR
STARTCHAR C4ea4
ENCODING 20132
SWIDTH 1000 0
DWIDTH 24 0
BBX 24 24 0 0
BITMAP
006000
003000
001800
001800
00100c
7ffffe
010200
01c180
030060
060038
0c811c
1881cc
208188
404300
004300
002600
001c00
001800
003c00
00e700
0383e0
0e00fe
700038
000000
ENDCHAR
STARTCHAR C4ea5
ENCODING 20133
SWIDTH 1000 0
DWIDTH 24 0
BBX 24 24 0 0
BITMAP
003000
001800
000c00
00080c
7ffffe
004000
00e000
018200
030380
020700
0ffe00
078c40
001870
0030e0
0061c0
018300
060600
180d00
0018c0
006060
018038
060018
180008
000000
ENDCHAR
STARTCHAR C4ea6
ENCODING 20134
SWIDTH 1000 0
DWIDTH 24 0
BBX 24 24 0 0
BITMAP
003000
001800
000c00
000800
00000c
7ffffe
00c300
00c300
00c300
08c300
0ec340
0cc330
18c318
18c30c
10c30c
20c306
20c306
418304
018300
030300
061f00
180600
600400
000000
ENDCHAR
STARTCHAR C4ea7
ENCODING 20135
SWIDTH 1000 0
DWIDTH 24 0
BBX 24 24 0 0
BITMAP
003000
001800
000c00
00080c
3ffffe
010080
0080c0
00c180
006100
08420c
0ffffe
0c0000
0c0000
0c0000
0c0000
0c0000
0c0000
0c0000
180000
180000
300000
200000
400000
000000
ENDCHAR
STARTCHAR C4ea8
ENCODING 20136
SWIDTH 1000 0
DWIDTH 24 0
BBX 24 24 0 0
BITMAP
006000
003000
001800
00100c
7ffffe
000000
040060
07fff0
060060
060060
07ffe0
040000
000020
3ffff0
000060
001180
001e00
001800
001800
001800
001800
00f800
003000
002000
ENDCHAR
STARTCHAR C4ea9
ENCODING 20137
SWIDTH 1000 0
DWIDTH 24 0
BBX 24 24 0 0
BITMAP
003000
001800
000c00
00080c
7ffffe
000000
000000
080030
0ffff8
0c1830
0c1830
0c1830
0c1830
0c1830
0ffff0
0c1830
0c1830
0c1830
0c1830
0c1830
0ffff0
0c0030
080020
000000
ENDCHAR
STARTCHAR C4eab
ENCODING 20139
SWIDTH 1000 0
DWIDTH 24 0
BBX 24 24 0 0
BITMAP
003000
001800
00100c
7ffffe
000000
0400c0
07ffe0
0600c0
0600c0
07ffc0
040080
000020
0ffff0
0000c0
001300
001c0c
7ffffe
001800
001800
001800
001800
00f800
003000
002000
ENDCHAR
STARTCHAR C4eac
ENCODING 20140
SWIDTH 1000 0
DWIDTH 24 0
BBX 24 24 0 0
BITMAP
003000
001800
000c00
00080c
7ffffe
000000
040060
07fff0
060060
060060
060060
060060
060060
07ffe0
041840
011800
01d980
0318e0
061830
0c1818
18181c
20f808
403000
002000
ENDCHAR
STARTCHAR C4ead
ENCODING 20141
SWIDTH 1000 0
DWIDTH 24 0
BBX 24 24 0 0
BITMAP
003000
001800
001018
3ffffc
000000
0200c0
03ffe0
0300c0
0300c0
03ffc0
0300c0
20000c
3ffffe
60000c
600048
4fffe0
001800
001800
001800
001800
001800
00f800
003000
002000
ENDCHAR
STARTCHAR C4eae
ENCODING 20142
SWIDTH 1000 0
DWIDTH 24 0
BBX 24 24 0 0
BITMAP
003000
001800
001018
3ffffc
000000
0200c0
03ffe0
0300c0
0300c0
03ffc0
020080
10000c
1ffffe
30000c
310310
61ffa0
018300
018304
018304
018304
030306
0603fe
1801fc
e00000
ENDCHAR
STARTCHAR C4eb2
ENCODING 20146
SWIDTH 1000 0
DWIDTH 24 0
BBX 24 24 0 0
BITMAP
003000
001800
000c00
000830
1ffff8
000100
018180
00c300
006200
00440c
7ffffe
001800
001800
001830
1ffff8
001800
021900
0398c0
061870
0c1838
101818
60f810
003000
002000
ENDCHAR
STARTCHAR C4eb3
ENCODING 20147
SWIDTH 1000 0
DWIDTH 24 0
BBX 24 24 0 0
BITMAP
003000
001800
001018
3ffffc
000000
03ffc0
0300c0
0300c0
03ffc0
020080
20000c
3ffffe
60010c
600f90
41f800
1e3030
0031f8
00ff00
3f3004
003004
003004
003ffe
001ffc
000000
ENDCHAR
STARTCHAR C4eb5
ENCODING 20149
SWIDTH 1000 0
DWIDTH 24 0
BBX 24 24 0 0
BITMAP
003000
001800
00100c
7ffffe
020400
038700
030660
3fdff0
030660
03d660
7f0e68
231b28
033138
1f501c
063c4c
047070
00c8c0
038700
078300
198180
6198e0
01e07e
03c030
010000
ENDCHAR
STARTCHAR C4eba
ENCODING 20154
SWIDTH 1000 0
DWIDTH 24 0
BBX 24 24 0 0
BITMAP
001000
001c00
001800
001800
001800
001800
003800
003800
003400
003400
006400
006200
00c200
00c300
018100
018180
0300c0
060060
0c0070
08003c
10001f
200008
400000
000000
ENDCHAR
STARTCHAR C4ebb
ENCODING 20155
SWIDTH 1000 0
DWIDTH 24 0
BBX 24 24 0 0
BITMAP
020000
038000
030000
030000
070000
060000
060000
0c0000
0f0000
1e0000
360000
260000
460000
860000
060000
060000
060000
060000
060000
060000
060000
060000
060000
040000
ENDCHAR
STARTCHAR C4ebf
ENCODING 20159
SWIDTH 1000 0
DWIDTH 24 0
BBX 24 24 0 0
BITMAP
020000
038000
030000
030030
077ff8
060060
0e00c0
0f00c0
1e0180
160300
360300
260600
460c00
860c00
061800
061804
063004
063004
066004
066004
066006
067ffe
063ffc
040000
ENDCHAR
STARTCHAR C4ec0
ENCODING 20160
SWIDTH 1000 0
DWIDTH 24 0
BBX 24 24 0 0
BITMAP
020200
038380
030300
030300
070300
060300
0e0300
0f0300
1e030c
16fffe
360300
260300
460300
860300
060300
060300
060300
060300
060300
060300
060300
060300
060300
040200
ENDCHAR
STARTCHAR C4ec1
ENCODING 20161
SWIDTH 1000 0
DWIDTH 24 0
BBX 24 24 0 0
BITMAP
020000
038000
030000
030000
070000
060018
067ffc
0e0000
0f0000
1e0000
360000
260000
460000
860000
060000
060000
060000
060000
06000c
06fffe
060000
060000
060000
040000
ENDCHAR
STARTCHAR C4ec2
ENCODING 20162
SWIDTH 1000 0
DWIDTH 24 0
BBX 24 24 0 0
BITMAP
040800
070e00
060c00
060c00
0e0c00
0c0c00
0c0c18
18fffc
1e0c18
3c0c18
2c0c18
4c0c18
8c0c18
0c0c18
0c1818
0c1818
0c1818
0c3018
0c3018
0c6018
0cc038
0c83f0
0d00e0
0a0040
ENDCHAR
STARTCHAR C4ec3
ENCODING 20163
SWIDTH 1000 0
DWIDTH 24 0
BBX 24 24 0 0
BITMAP
020000
038000
030000
030006
077fff
0600c0
0600c0
0c00c0
0f00c0
1e00c0
3600c0
2600c0
4600c0
8600c0
0600c0
0600c0
0600c0
0600c0
0600c0
0600c0
0600c0
0607c0
060180
040100
ENDCHAR
STARTCHAR C4ec4
ENCODING 20164
SWIDTH 1000 0
DWIDTH 24 0
BBX 24 24 0 0
BITMAP
000000
000000
08000c
0ffffe
0c0000
0c0400
0c0700
0c0600
0c0600
0c0600
0c0600
0c0600
0c0600
0c0d00
0c0d00
0c0c80
0c1880
0c18c0
0c3060
183030
18601c
30c00f
210004
460000
ENDCHAR
STARTCHAR C4ec5
ENCODING 20165
SWIDTH 1000 0
DWIDTH 24 0
BBX 24 24 0 0
BITMAP
020000
038000
030018
037ffc
071018
061018
0e1018
0f1018
1e0818
160830
360830
260830
460460
860460
0606c0
060380
060380
060380
0606c0
060c70
061838
06301f
06400c
048000
ENDCHAR
STARTCHAR C4ec6
ENCODING 20166
SWIDTH 1000 0
DWIDTH 24 0
BBX 24 24 0 0
BITMAP
010200
01c380
018300
018300
038300
030300
030300
078300
070380
0f0360
1b0330
130318
23030c
43030e
030306
030304
030300
030300
030300
030300
030300
030300
030300
020200
ENDCHAR
STARTCHAR C4ec7
ENCODING 20167
SWIDTH 1000 0
DWIDTH 24 0
BBX 24 24 0 0
BITMAP
020800
038e00
030c00
070c00
060c00
060c00
0c0c60
0efff0
1c0c60
3c0c60
2c0c60
4c0c60
8c0c60
0c0c60
0c0c60
0c1860
0c1860
0c1864
0c3064
0c3064
0c6066
0c407e
0c803c
090000
ENDCHAR
STARTCHAR C4ec9
ENCODING 20169
SWIDTH 1000 0
DWIDTH 24 0
BBX 24 24 0 0
BITMAP
040000
070000
0620c0
063fe0
0e30c0
0c30c0
0c30c0
1830c0
1e30c0
3c30c0
2c30c0
4c30c0
8c30c0
0c30c0
0c30c0
0c30c0
0c30c4
0c60c4
0c60c4
0cc0c6
0c80fe
0d007c
0e0000
080000
ENDCHAR
STARTCHAR C4eca
ENCODING 20170
SWIDTH 1000 0
DWIDTH 24 0
BBX 24 24 0 0
BITMAP
001000
001c00
003800
003400
006400
00c200
018300
030180
0630e0
0c1870
181c3c
600c1f
800808
000060
0ffff0
0000c0
0000c0
000180
000180
000300
000600
000600
000c00
001800
ENDCHAR
STARTCHAR C4ecb
ENCODING 20171
SWIDTH 1000 0
DWIDTH 24 0
BBX 24 24 0 0
BITMAP
001000
001c00
001800
003800
003400
006200
00c300
0181c0
0300e0
060078
19011f
61c1cc
818180
018180
018180
018180
018180
030180
030180
060180
040180
080180
100180
200100
ENDCHAR
STARTCHAR C4ecd
ENCODING 20173
SWIDTH 1000 0
DWIDTH 24 0
BBX 24 24 0 0
BITMAP
020000
038000
030030
037ff8
071830
061830
0e1860
0f1860
1e18c0
1618cc
3619fe
26188c
46180c
86180c
06180c
06300c
06300c
06300c
06600c
06600c
06401c
06c1f8
068070
050020
ENDCHAR
STARTCHAR C4ece
ENCODING 20174
SWIDTH 1000 0
DWIDTH 24 0
BBX 24 24 0 0
BITMAP
000000
040200
070380
060300
060300
060300
060300
060300
060300
060300
070300
068380
06c680
0c6640
0c6640
0c2c60
180c20
181830
303018
20601c
40c00f
818004
020000
000000
ENDCHAR
STARTCHAR C4ed1
ENCODING 20177
SWIDTH 1000 0
DWIDTH 24 0
BBX 24 24 0 0
BITMAP
001000
001c00
001800
003400
007600
006300
00c180
0180c0
030060
060038
1d001f
31c08c
c18180
0183c0
018e00
01b000
01c000
018020
018020
018020
018030
01fff0
00ffe0
000000
ENDCHAR
STARTCHAR C4ed3
ENCODING 20179
SWIDTH 1000 0
DWIDTH 24 0
BBX 24 24 0 0
BITMAP
001000
001c00
003800
007400
006200
00c300
018180
0300e0
060378
0fff9f
33030c
430300
830300
030300
030300
033f00
030e20
030420
030020
030030
03fff0
01ffe0
000000
000000
ENDCHAR
STARTCHAR C4ed4
ENCODING 20180
SWIDTH 1000 0
DWIDTH 24 0
BBX 24 24 0 0
BITMAP
040000
070000
060018
067ffc
0e0018
0c0030
0c0240
180380
1e0300
3c0300
2c0300
4c0306
8dffff
0c0300
0c0300
0c0300
0c0300
0c0300
0c0300
0c0300
0c0300
0c1f00
0c0600
080400
ENDCHAR
STARTCHAR C4ed5
ENCODING 20181
SWIDTH 1000 0
DWIDTH 24 0
BBX 24 24 0 0
BITMAP
020200
038380
030300
030300
070300
060300
0c0300
0e030c
1efffe
160300
360300
260300
460300
860300
060300
060300
060300
060300
060300
060318
06fffc
060000
060000
040000
ENDCHAR
STARTCHAR C4ed6
ENCODING 20182
SWIDTH 1000 0
DWIDTH 24 0
BBX 24 24 0 0
BITMAP
040200
070380
060300
060300
0e4300
0c7318
0c633c
1863d8
1e6718
3c7b18
2de318
4c6318
8c6318
0c6318
0c6318
0c63f8
0c6330
0c6324
0c6204
0c6004
0c6006
0c7ffe
0c3ffc
080000
ENDCHAR
STARTCHAR C4ed7
ENCODING 20183
SWIDTH 1000 0
DWIDTH 24 0
BBX 24 24 0 0
BITMAP
040100
0701c0
060180
060180
0e0180
0c0180
0c018c
18fffe
1e0180
3c4180
2c4180
4c4180
8c2180
0c2180
0c1100
0c1300
0c0b00
0c0600
0c0700
0c0f80
0c18e0
0c307e
0cc018
0b0000
ENDCHAR
STARTCHAR C4ed8
ENCODING 20184
SWIDTH 1000 0
DWIDTH 24 0
BBX 24 24 0 0
BITMAP
020040
038070
030060
030060
070060
060060
0e0066
0f7fff
1e0060
160060
362060
261060
461860
860c60
060c60
060860
060060
060060
060060
060060
060060
0603e0
0600c0
040080
ENDCHAR
STARTCHAR C4ed9
ENCODING 20185
SWIDTH 1000 0
DWIDTH 24 0
BBX 24 24 0 0
BITMAP
040200
070380
060300
060300
0e0300
0c4310
0c731c
186318
1e6318
3c6318
2c6318
4c6318
8c6318
0c6318
0c6318
0c6318
0c6318
0c6318
0c6318
0c6318
0cfff8
0c4018
0c0010
080000
ENDCHAR
STARTCHAR C4edd
ENCODING 20189
SWIDTH 1000 0
DWIDTH 24 0
BBX 24 24 0 0
BITMAP
001000
001c00
003800
003400
006200
00c300
018180
0300c0
060060
0c0038
18001f
6000cc
8fffe0
001800
001800
001800
001800
001800
001800
001800
001818
3ffffc
000000
000000
ENDCHAR
STARTCHAR C4ede
ENCODING 20190
SWIDTH 1000 0
DWIDTH 24 0
BBX 24 24 0 0
BITMAP
020000
038000
030000
03000c
067ffe
06060c
0c060c
0c060c
1e060c
3c260c
2c260c
4c260c
8c660c
0cc60c
0cc60c
0c860c
0c060c
0c0c0c
0c0c0c
0c180c
0c301c
0c61f8
0cc070
090020
ENDCHAR
STARTCHAR C4edf
ENCODING 20191
SWIDTH 1000 0
DWIDTH 24 0
BBX 24 24 0 0
BITMAP
020000
038018
0300fc
030fc0
077b00
060300
0e0300
0f0300
1e0300
160300
360306
26ffff
460300
860300
060300
060300
060300
060300
060300
060300
060300
060300
060300
040200
ENDCHAR
STARTCHAR C4ee1
ENCODING 20193
SWIDTH 1000 0
DWIDTH 24 0
BBX 24 24 0 0
BITMAP
020800
038e00
030c00
030c00
07180c
061ffe
063000
0c2000
0f4000
1e80c0
363fe0
260180
460300
860600
060600
060c00
060c04
061804
061804
063004
063006
063ffe
061ffc
040000
ENDCHAR
STARTCHAR C4ee3
ENCODING 20195
SWIDTH 1000 0
DWIDTH 24 0
BBX 24 24 0 0
BITMAP
040800
070e00
060cc0
060c60
0e0c30
0c0c20
0c0c0c
180ffe
1efc00
3c0c00
2c0c00
4c0600
8c0600
0c0600
0c0600
0c0300
0c0308
0c0188
0c0188
0c00c8
0c0068
0c0038
0c001c
08000c
ENDCHAR
STARTCHAR C4ee4
ENCODING 20196
SWIDTH 1000 0
DWIDTH 24 0
BBX 24 24 0 0
BITMAP
001000
001c00
003800
007400
006200
00c300
018180
0330c0
061860
0c0c38
180c1f
60080c
800060
0ffff0
0000e0
0000c0
000180
018300
006400
003800
001c00
000700
000300
000100
ENDCHAR
STARTCHAR C4ee5
ENCODING 20197
SWIDTH 1000 0
DWIDTH 24 0
BBX 24 24 0 0
BITMAP
000000
000080
1000e0
1c80c0
1840c0
1860c0
1830c0
1838c0
1818c0
1810c0
1800c0
1800c0
180180
181180
182180
184340
198320
1e0630
1c0c18
38181c
10600c
018008
060000
000000
ENDCHAR
STARTCHAR C4ee8
ENCODING 20200
SWIDTH 1000 0
DWIDTH 24 0
BBX 24 24 0 0
BITMAP
020000
038000
030000
030018
077ffc
060000
0e0000
0f0000
1e0000
160000
360030
263ff8
460000
860000
060000
060000
060000
060000
060000
06000c
06fffe
060000
060000
040000
ENDCHAR
STARTCHAR C4eea
ENCODING 20202
SWIDTH 1000 0
DWIDTH 24 0
BBX 24 24 0 0
BITMAP
040000
070800
060c20
064638
0e4730
0c4330
0c2230
182060
1e2060
3c1060
2c10c0
4c18c0
8c08c0
0c0d80
0c0580
0c0700
0c0700
0c0d80
0c18c0
0c3060
0c6038
0c801f
0d000c
080000
ENDCHAR
STARTCHAR C4eeb
ENCODING 20203
SWIDTH 1000 0
DWIDTH 24 0
BBX 24 24 0 0
BITMAP
040100
0701c0
060380
060300
0e0600
0c0c00
0c0c00
181840
1e3070
3c20e0
2c40c0
4c8180
8d0180
0c0300
0c0600
0c0420
0c0c10
0c1818
0c300c
0c41fe
0dff06
0ce006
0c0004
080000
ENDCHAR
STARTCHAR C4eec
ENCODING 20204
SWIDTH 1000 0
DWIDTH 24 0
BBX 24 24 0 0
BITMAP
040000
070000
063000
06180c
0e0dfe
0c080c
0c400c
18700c
1e600c
3c600c
2c600c
4c600c
8c600c
0c600c
0c600c
0c600c
0c600c
0c600c
0c600c
0c600c
0c600c
0c607c
0c6018
084010
ENDCHAR
STARTCHAR C4ef0
ENCODING 20208
SWIDTH 1000 0
DWIDTH 24 0
BBX 24 24 0 0
BITMAP
040000
070400
060e00
06590c
0e61fe
0c618c
0c618c
18618c
1e618c
3c618c
2c618c
4c618c
8c618c
0c638c
0c6d8c
0c798c
0c718c
0ce1fc
0c4198
0c0190
0c0180
0c0180
0c0180
080100
ENDCHAR
STARTCHAR C4ef2
ENCODING 20210
SWIDTH 1000 0
DWIDTH 24 0
BBX 24 24 0 0
BITMAP
040200
070380
060300
060300
0e0300
0c0300
0c430c
187ffe
1e630c
3c630c
2c630c
4c630c
8c630c
0c630c
0c7ffc
0c630c
0c4308
0c0300
0c0300
0c0300
0c0300
0c0300
0c0300
080200
ENDCHAR
STARTCHAR C4ef3
ENCODING 20211
SWIDTH 1000 0
DWIDTH 24 0
BBX 24 24 0 0
BITMAP
040100
0741c0
067180
066180
0e6180
0c6180
0c6190
18619c
1e61b0
3c69c0
2c7d80
4c6180
8c6180
0c6180
0c6180
0c6180
0c6184
0c6184
0c6584
0c6984
0c7186
0ce1fe
0c40fc
080000
ENDCHAR
STARTCHAR C4ef5
ENCODING 20213
SWIDTH 1000 0
DWIDTH 24 0
BBX 24 24 0 0
BITMAP
041000
071c00
061800
061800
0e3018
0c3ffc
0c6300
186300
1ec300
3c8300
2d0300
4c030c
8dfffe
0c0300
0c0300
0c0300
0c0300
0c0300
0c0300
0c0300
0c0300
0c0300
0c0300
080200
ENDCHAR
STARTCHAR C4ef6
ENCODING 20214
SWIDTH 1000 0
DWIDTH 24 0
BBX 24 24 0 0
BITMAP
020100
0381c0
031180
031d80
071980
061180
0e318c
0f3ffe
1e6180
164180
368180
260180
460186
86ffff
060180
060180
060180
060180
060180
060180
060180
060180
060180
040100
ENDCHAR
STARTCHAR C4ef7
ENCODING 20215
SWIDTH 1000 0
DWIDTH 24 0
BBX 24 24 0 0
BITMAP
040400
070700
060600
060d00
0e1900
0c1880
0c30c0
186060
1ec038
3ca09f
2d38ec
4e30c0
8c30c0
0c30c0
0c30c0
0c30c0
0c30c0
0c30c0
0c60c0
0c60c0
0cc0c0
0c80c0
0d00c0
0a0080
ENDCHAR
STARTCHAR C4efb
ENCODING 20219
SWIDTH 1000 0
DWIDTH 24 0
BBX 24 24 0 0
BITMAP
040000
070010
060078
0607fc
0e7f00
0c0300
0c0300
180300
1e0300
3c0300
2c0306
4dffff
8c0300
0c0300
0c0300
0c0300
0c0300
0c0300
0c0300
0c0300
0c0318
0c7ffc
0c0000
080000
ENDCHAR
STARTCHAR C4efd
ENCODING 20221
SWIDTH 1000 0
DWIDTH 24 0
BBX 24 24 0 0
BITMAP
040080
0710c0
061c80
061880
0e30c0
0c3040
0c3060
182030
1e6038
3cc01f
2c806c
4d7ff0
8e1860
0c1860
0c1860
0c1860
0c1860
0c3060
0c3060
0c6060
0c40e0
0c8fc0
0d0380
0a0100
ENDCHAR
STARTCHAR C4eff
ENCODING 20223
SWIDTH 1000 0
DWIDTH 24 0
BBX 24 24 0 0
BITMAP
040000
070600
060300
060180
0e0100
0c000c
0dfffe
180c00
1e0c00
3c0c30
2c0ff8
4c0c30
8c0c30
0c0c30
0c0c30
0c1830
0c1830
0c1830
0c3030
0c3030
0c6070
0cc7e0
0d01c0
0a0080
ENDCHAR
STARTCHAR C4f01
ENCODING 20225
SWIDTH 1000 0
DWIDTH 24 0
BBX 24 24 0 0
BITMAP
001000
001c00
003800
003400
006200
00c300
018180
0300c0
061070
0c1c3c
18181f
601808
821800
0398c0
031fe0
031800
031800
031800
031800
031800
03180c
7ffffe
000000
000000
ENDCHAR
STARTCHAR C4f09
ENCODING 20233
SWIDTH 1000 0
DWIDTH 24 0
BBX 24 24 0 0
BITMAP
040000
070c00
060600
060300
0e020c
0dfffe
0c0000
180000
1e20c0
3c3fe0
2c30c0
4c30c0
8c30c0
0c30c0
0c30c0
0c30c0
0c30c0
0c60c4
0c60c4
0c40c4
0cc0c6
0c80fe
0d007c
0a0000
ENDCHAR
STARTCHAR C4f0a
ENCODING 20234
SWIDTH 1000 0
DWIDTH 24 0
BBX 24 24 0 0
BITMAP
040000
070000
060030
06fff8
0e0c30
0c0c30
0c0c30
180c36
1effff
3c0c30
2c0c30
4c0c30
8c0c30
0c0c30
0cfff0
0c0c30
0c0c20
0c1800
0c1800
0c3000
0c6000
0c4000
0c8000
090000
ENDCHAR
STARTCHAR C4f0d
ENCODING 20237
SWIDTH 1000 0
DWIDTH 24 0
BBX 24 24 0 0
BITMAP
040000
070000
06000c
06fffe
0e0600
0c0600
0c0600
180600
1e0c00
3c0c30
2cfff8
4c0c30
8c0c30
0c0c30
0c0c30
0c1830
0c1830
0c1830
0c1830
0c1830
0c1836
0dffff
0c0000
080000
ENDCHAR
STARTCHAR C4f0e
ENCODING 20238
SWIDTH 1000 0
DWIDTH 24 0
BBX 24 24 0 0
BITMAP
040400
070700
060600
060600
0e060c
0dfffe
0c0600
180600
1e0600
3c0630
2cfff8
4c2030
8c2060
0c1060
0c10c0
0c08c0
0c0d80
0c0700
0c0700
0c0d80
0c18e0
0c307e
0cc018
0b0000
ENDCHAR
STARTCHAR C4f0f
ENCODING 20239
SWIDTH 1000 0
DWIDTH 24 0
BBX 24 24 0 0
BITMAP
040400
070700
060600
060660
0e0630
0c0618
0c0610
180604
1efffe
3c0600
2c0600
4c0600
8c0d00
0c0d00
0c0c80
0c0c80
0c18c0
0c1840
0c3060
0c6030
0c4038
0c801f
0d000c
0a0000
ENDCHAR
STARTCHAR C4f10
ENCODING 20240
SWIDTH 1000 0
DWIDTH 24 0
BBX 24 24 0 0
BITMAP
040800
070e80
060c40
060c60
0e0c30
0c0c20
0c0c0c
180c3e
1e0fc0
3dfc00
2c0c10
4c0c1c
8c0c38
0c0c30
0c0660
0c06c0
0c0380
0c0304
0c0f84
0c18c4
0c6064
0d803c
0c001e
080006
ENDCHAR
STARTCHAR C4f11
ENCODING 20241
SWIDTH 1000 0
DWIDTH 24 0
BBX 24 24 0 0
BITMAP
040400
070700
060600
060600
0e0600
0c060c
0dfffe
180f00
1e0f00
3c1e80
2c1e80
4c36c0
8c3640
0c6660
0c4620
0cc630
0c8618
0d061e
0e0608
0c0600
0c0600
0c0600
0c0600
080400
ENDCHAR
STARTCHAR C4f17
ENCODING 20247
SWIDTH 1000 0
DWIDTH 24 0
BBX 24 24 0 0
BITMAP
001000
001c00
003800
003400
006200
00c300
018180
0300e0
060278
1a039f
63830c
830300
030300
030300
068300
064680
066680
0c3640
0c2c60
181830
103038
20601f
41800c
020000
ENDCHAR
STARTCHAR C4f18
ENCODING 20248
SWIDTH 1000 0
DWIDTH 24 0
BBX 24 24 0 0
BITMAP
040800
070e00
060c80
060cc0
0e0c60
0c0c30
0c0c20
180c0c
1efffe
3c0d80
2c0d80
4c0d80
8c1980
0c1980
0c1980
0c1980
0c3180
0c3184
0c6184
0c6184
0cc186
0c81fe
0d00fc
0a0000
ENDCHAR
STARTCHAR C4f19
ENCODING 20249
SWIDTH 1000 0
DWIDTH 24 0
BBX 24 24 0 0
BITMAP
040400
070700
060600
060600
0e0600
0c0610
0c261c
182630
1e2660
3c66c0
2c6700
4ccd00
8ccd00
0c0c80
0c0c80
0c0c80
0c18c0
0c1860
0c3060
0c3030
0c6038
0cc01e
0d0008
0a0000
ENDCHAR
STARTCHAR C4f1a
ENCODING 20250
SWIDTH 1000 0
DWIDTH 24 0
BBX 24 24 0 0
BITMAP
001000
001c00
003800
007400
006200
00c300
018180
0300e0
060378
19ff9f
60000c
000000
000018
3ffffc
002000
003800
007000
006000
00c180
0180e0
020070
0ffff0
060030
000020
ENDCHAR
STARTCHAR C4f1b
ENCODING 20251
SWIDTH 1000 0
DWIDTH 24 0
BBX 24 24 0 0
BITMAP
040000
070000
06400c
067ffe
0e6000
0c6020
0c6038
186830
1e6430
3c6260
2c6160
4c60c0
8c60c0
0c61e0
0c6130
0c6330
0c6218
0c6418
0c6810
0c6000
0c600c
0cfffe
0c4000
080000
ENDCHAR
STARTCHAR C4f1e
ENCODING 20254
SWIDTH 1000 0
DWIDTH 24 0
BBX 24 24 0 0
BITMAP
001000
001c00
003800
007400
006200
00c300
0191c0
031cf0
06183c
18181f
641844
831870
0198c0
019980
011900
001a0c
3ffffe
001800
001800
001800
001800
001800
001800
001000
ENDCHAR
STARTCHAR C4f1f
ENCODING 20255
SWIDTH 1000 0
DWIDTH 24 0
BBX 24 24 0 0
BITMAP
040400
070700
060600
060618
0dfffc
0c0600
0c0600
180630
1efff8
3c0600
2c0600
4c060c
8dfffe
0c060c
0c060c
0c060c
0c060c
0c060c
0c067c
0c0618
0c0610
0c0600
0c0600
080400
ENDCHAR
STARTCHAR C4f20
ENCODING 20256
SWIDTH 1000 0
DWIDTH 24 0
BBX 24 24 0 0
BITMAP
040200
070380
060300
060300
0e0618
0cfffc
0c0c00
180c00
1e0c00
3c180c
2dfffe
4c1800
8c1000
0c3010
0c7ff8
0c2030
0c0060
0c00c0
0c3080
0c0d00
0c0700
0c01c0
0c00e0
080040
ENDCHAR
STARTCHAR C4f22
ENCODING 20258
SWIDTH 1000 0
DWIDTH 24 0
BBX 24 24 0 0
BITMAP
040000
070000
06000c
067ffe
0e0060
0c1060
0c1c60
181860
1e3060
3c3066
2c7fff
4c21e0
8c0360
0c0660
0c0660
0c0c60
0c1860
0c3060
0c6060
0c8060
0d0060
0c03e0
0c00c0
080080
ENDCHAR
STARTCHAR C4f24
ENCODING 20260
SWIDTH 1000 0
DWIDTH 24 0
BBX 24 24 0 0
BITMAP
041000
071c00
061800
061800
0e300c
0c3ffe
0c6000
184400
1e8700
3c8600
2d0618
4c7ffc
8c0618
0c0618
0c0618
0c0c18
0c0c18
0c0c18
0c1818
0c1818
0c3038
0c63f0
0c80e0
090040
ENDCHAR
STARTCHAR C4f25
ENCODING 20261
SWIDTH 1000 0
DWIDTH 24 0
BBX 24 24 0 0
BITMAP
041000
071c00
061810
061838
0e1830
0c1860
0c18c0
181900
1e1a00
3c1c00
2c180c
4dfffe
8c1900
0c1900
0c1880
0c1880
0c1840
0c1860
0c1830
0c189c
0c1b0f
0c1e04
0c3800
081000
ENDCHAR
STARTCHAR C4f26
ENCODING 20262
SWIDTH 1000 0
DWIDTH 24 0
BBX 24 24 0 0
BITMAP
040400
070700
060600
060d00
0e0d00
0c1880
0c18c0
183060
1e6038
3cc01f
2c900c
4d1c20
8e1870
0c18c0
0c1b80
0c1c00
0c1800
0c1808
0c1808
0c1808
0c180c
0c1ffc
0c0ff8
080000
ENDCHAR
STARTCHAR C4f27
ENCODING 20263
SWIDTH 1000 0
DWIDTH 24 0
BBX 24 24 0 0
BITMAP
040200
070380
060700
060680
0e0c80
0c0cc0
0c1860
183038
1e601e
3ce0c8
2d3fe0
4c30c0
8c30c0
0c30c0
0c30c0
0c30c0
0c37c0
0c3188
0c3108
0c3008
0c300c
0c3ffc
0c1ff8
080000
ENDCHAR
STARTCHAR C4f2a
ENCODING 20266
SWIDTH 1000 0
DWIDTH 24 0
BBX 24 24 0 0
BITMAP
020200
038380
030300
034300
076300
063300
0e2300
0f030c
1efffe
16060c
36060c
26060c
46068c
8606cc
06066c
060c4c
060c0c
060c0c
06180c
06180c
06301c
0621f8
064070
048020
ENDCHAR
STARTCHAR C4f2b
ENCODING 20267
SWIDTH 1000 0
DWIDTH 24 0
BBX 24 24 0 0
BITMAP
020200
038300
030180
030180
070100
06200c
063ffe
0c600c
0f6018
1e4010
360020
260000
460000
860000
060000
060000
060000
060000
060000
06000c
06fffe
060000
060000
040000
ENDCHAR
STARTCHAR C4f2f
ENCODING 20271
SWIDTH 1000 0
DWIDTH 24 0
BBX 24 24 0 0
BITMAP
020000
038200
030380
030300
070600
062418
0e3ffc
0f3018
1e3018
163018
363018
263018
463018
863ff8
063018
063018
063018
063018
063018
063018
063ff8
063018
062010
040000
ENDCHAR
STARTCHAR C4f30
ENCODING 20272
SWIDTH 1000 0
DWIDTH 24 0
BBX 24 24 0 0
BITMAP
040200
070380
060300
060300
0e0300
0c0306
0dffff
180300
1e0300
3c0300
2c0300
4c4318
8c7ffc
0c6018
0c6018
0c6018
0c6018
0c6018
0c6018
0c6018
0c7ff8
0c6018
0c4010
080000
ENDCHAR
STARTCHAR C4f32
ENCODING 20274
SWIDTH 1000 0
DWIDTH 24 0
BBX 24 24 0 0
BITMAP
040000
070000
064018
067ffc
0e6018
0c6018
0c6018
186018
1e7ff8
3c6400
2c6710
4c661c
8c6630
0c6660
0c66c0
0c6700
0c6604
0c6604
0cc604
0cc604
0c8606
0d87fe
0d03fc
0a0000
ENDCHAR
STARTCHAR C4f34
ENCODING 20276
SWIDTH 1000 0
DWIDTH 24 0
BBX 24 24 0 0
BITMAP
040400
070700
060600
068610
0e4638
0c6660
0c3640
182680
1e0618
3cfffc
2c0600
4c0600
8c0600
0c060c
0dfffe
0c0600
0c0600
0c0600
0c0600
0c0600
0c0600
0c0600
0c0600
080400
ENDCHAR
STARTCHAR C4f36
ENCODING 20278
SWIDTH 1000 0
DWIDTH 24 0
BBX 24 24 0 0
BITMAP
040400
070700
060e00
060d00
0e1900
0c1080
0c30c0
186060
1ec438
3c861f
2d030c
4e0200
8c0030
0cfff8
0c0070
0c0060
0c00c0
0c2180
0c1a00
0c0e00
0c0700
0c0380
0c0180
080080
ENDCHAR
STARTCHAR C4f38
ENCODING 20280
SWIDTH 1000 0
DWIDTH 24 0
BBX 24 24 0 0
BITMAP
040200
070380
060300
060300
0e0300
0c4318
0c7ffc
186318
1e6318
3c6318
2c7ff8
4c6318
8c6318
0c6318
0c6318
0c7ff8
0c6318
0c4310
0c0300
0c0300
0c0300
0c0300
0c0300
080200
ENDCHAR
STARTCHAR C4f3a
ENCODING 20282
SWIDTH 1000 0
DWIDTH 24 0
BBX 24 24 0 0
BITMAP
040000
070000
060018
067ffc
0e0018
0c0018
0c0198
18ffd8
1e0018
3c0018
2c4318
4c7f98
8c6318
0c6318
0c6318
0c6318
0c6318
0c7f18
0c6318
0c4218
0c0018
0c00f8
0c0030
080020
ENDCHAR
STARTCHAR C4f3c
ENCODING 20284
SWIDTH 1000 0
DWIDTH 24 0
BBX 24 24 0 0
BITMAP
040000
070020
060038
064030
0e7030
0c6430
0c6630
186330
1e6330
3c6230
2c6030
4c6030
8c6030
0c6030
0c6030
0c6260
0c6460
0c6870
0c70c8
0ce0cc
0c4186
0c0306
0c0c04
083000
ENDCHAR
STARTCHAR C4f3d
ENCODING 20285
SWIDTH 1000 0
DWIDTH 24 0
BBX 24 24 0 0
BITMAP
088000
0ee000
0cc000
0cc000
18c08c
18ccfe
1bfecc
1ccccc
38cccc
38cccc
58cccc
58cccc
98cccc
18cccc
18cccc
18cccc
18cccc
198ccc
198cfc
190ccc
1b7ccc
1a1888
1c1000
100000
ENDCHAR
STARTCHAR C4f43
ENCODING 20291
SWIDTH 1000 0
DWIDTH 24 0
BBX 24 24 0 0
BITMAP
040000
070000
060000
064018
0e7ffc
0c6318
0c6318
186318
1e6318
3c6318
2c6318
4c7ff8
8c6318
0c6318
0c6318
0c6318
0c6318
0c6318
0c6318
0c7ff8
0c6018
0c6018
0c4010
080000
ENDCHAR
STARTCHAR C4f46
ENCODING 20294
SWIDTH 1000 0
DWIDTH 24 0
BBX 24 24 0 0
BITMAP
040000
070000
062018
063ffc
0e3018
0c3018
0c3018
183018
1e3018
3c3ff8
2c3018
4c3018
8c3018
0c3018
0c3018
0c3ff8
0c3018
0c2010
0c0000
0c0000
0c000c
0cfffe
0c0000
080000
ENDCHAR
STARTCHAR C4f4d
ENCODING 20301
SWIDTH 1000 0
DWIDTH 24 0
BBX 24 24 0 0
BITMAP
020000
038600
030300
030180
070100
060018
0efffc
0f0000
1e0040
1e2070
363060
261060
461060
861860
0618c0
060cc0
060cc0
060c80
060980
060100
06010c
07fffe
060000
040000
ENDCHAR
STARTCHAR C4f4e
ENCODING 20302
SWIDTH 1000 0
DWIDTH 24 0
BBX 24 24 0 0
BITMAP
040000
070038
0641fc
067f80
0e6180
0c6180
0c6180
186180
1e6180
3c618c
2c7ffe
4c6180
8c6180
0c60c0
0c60c0
0c60c0
0c62c4
0c6464
0c7864
0c7234
0ce31c
0c418e
0c0186
080100
ENDCHAR
STARTCHAR C4f4f
ENCODING 20303
SWIDTH 1000 0
DWIDTH 24 0
BBX 24 24 0 0
BITMAP
020c00
038600
030700
070300
060200
060018
0cfffc
0e0600
1c0600
3c0600
2c0600
4c0600
8c0630
0cfff8
0c0600
0c0600
0c0600
0c0600
0c0600
0c0600
0c060c
0dfffe
0c0000
080000
ENDCHAR
STARTCHAR C4f50
ENCODING 20304
SWIDTH 1000 0
DWIDTH 24 0
BBX 24 24 0 0
BITMAP
020400
038700
030600
070600
060600
06060c
0dfffe
0e0c00
1c0c00
3c1800
2c1800
4c3018
8c3ffc
0c3180
0c6180
0c4180
0cc180
0c8180
0d0180
0e0180
0c018c
0dfffe
0c0000
080000
ENDCHAR
STARTCHAR C4f51
ENCODING 20305
SWIDTH 1000 0
DWIDTH 24 0
BBX 24 24 0 0
BITMAP
040400
070700
060600
060600
0e0600
0c060c
0dfffe
180c00
1e0c00
3c1800
2c1800
4c3018
8c3ffc
0c7818
0c5818
0c9818
0d1818
0e1818
0c1818
0c1818
0c1ff8
0c1818
0c1810
081000
ENDCHAR
STARTCHAR C4f53
ENCODING 20307
SWIDTH 1000 0
DWIDTH 24 0
BBX 24 24 0 0
BITMAP
040400
070700
060600
060600
0e0600
0c0618
0dfffc
180e80
1e1e80
3c1e80
2c36c0
4c3640
8c6640
0c6620
0cc630
0c8618
0d065e
0effe8
0c0600
0c0600
0c0600
0c0600
0c0600
080400
ENDCHAR
STARTCHAR C4f55
ENCODING 20309
SWIDTH 1000 0
DWIDTH 24 0
BBX 24 24 0 0
BITMAP
040000
070000
06000c
06fffe
0e0030
0c0030
0c0030
184330
1e7fb0
3c6330
2c6330
4c6330
8c6330
0c6330
0c6330
0c7f30
0c6230
0c4030
0c0030
0c0030
0c0030
0c01f0
0c0060
080040
ENDCHAR
STARTCHAR C4f57
ENCODING 20311
SWIDTH 1000 0
DWIDTH 24 0
BBX 24 24 0 0
BITMAP
020600
038300
030180
070180
06410c
067ffe
0c400c
0ec808
1d8e10
3c0c00
2c0c20
4c0c78
8c0ce0
0c0d80
0c0e00
0c0c00
0c0c00
0c0c04
0c0c04
0c0c04
0c0c06
0c0ffe
0c07fc
080000
ENDCHAR
STARTCHAR C4f58
ENCODING 20312
SWIDTH 1000 0
DWIDTH 24 0
BBX 24 24 0 0
BITMAP
001000
001c00
003800
003400
006600
00c300
018180
0300c0
060160
0dffb8
30001f
40000c
800030
1ffff8
001800
011900
0398c0
071860
0e1838
18181c
30180c
40f808
003000
002000
ENDCHAR
STARTCHAR C4f59
ENCODING 20313
SWIDTH 1000 0
DWIDTH 24 0
BBX 24 24 0 0
BITMAP
001000
001c00
003800
003400
006600
00c300
0181c0
0300e0
060338
1dff9f
30180c
c01800
001830
1ffff8
001800
011900
01d8c0
031870
061838
0c181c
10180c
60f808
003000
002000
ENDCHAR
STARTCHAR C4f5a
ENCODING 20314
SWIDTH 1000 0
DWIDTH 24 0
BBX 24 24 0 0
BITMAP
020200
038380
030300
072300
063b00
063300
0c3318
0e7ffc
1c6300
3c4300
2c8300
4c030c
8dfffe
0c0680
0c0680
0c0680
0c0c40
0c0c40
0c0c60
0c1830
0c1818
0c301e
0c4008
088000
ENDCHAR
STARTCHAR C4f5b
ENCODING 20315
SWIDTH 1000 0
DWIDTH 24 0
BBX 24 24 0 0
BITMAP
020880
038ee0
030cc0
030cc0
060ccc
06fffe
0c0ccc
0e0ccc
1c8ccc
3cfffc
2cccc8
4d8cc0
8d8cc6
0fffff
0d0cc6
0c0cc6
0c0cc6
0c18c6
0c18c6
0c30fe
0c60cc
0cc0c8
0d00c0
0a0080
ENDCHAR
STARTCHAR C4f5c
ENCODING 20316
SWIDTH 1000 0
DWIDTH 24 0
BBX 24 24 0 0
BITMAP
020800
038e00
030c00
030c00
07180c
061ffe
063600
0c2600
0f6600
1e4600
368618
2607fc
460600
860600
060600
06060c
0607fe
060600
060600
060600
060600
060600
060600
040400
ENDCHAR
STARTCHAR C4f5d
ENCODING 20317
SWIDTH 1000 0
DWIDTH 24 0
BBX 24 24 0 0
BITMAP
040800
070e00
060c00
061800
0e180c
0c3ffe
0c300c
18600c
1ec00c
3ca18c
2d3fcc
4e318c
8c318c
0c318c
0c318c
0c318c
0c318c
0c3f8c
0c318c
0c210c
0c001c
0c01f8
0c0070
080020
ENDCHAR
STARTCHAR C4f5e
ENCODING 20318
SWIDTH 1000 0
DWIDTH 24 0
BBX 24 24 0 0
BITMAP
040000
070030
06fff8
060000
0e0000
0c0000
0c000c
19fffe
1e0800
3c0e00
2c0c00
4c180c
8ffffe
0c30e0
0c30c0
0c60c0
0c6180
0c1980
0c0700
0c07c0
0c0c70
0c3018
0cc008
090000
ENDCHAR
ENDFONT
